<?xml version="1.0" encoding="utf-8"?>
<!-- Generator: Adobe Illustrator 14.0.0, SVG Export Plug-In . SVG Version: 6.00 Build 43363)  -->
<!DOCTYPE svg PUBLIC "-//W3C//DTD SVG 1.1//EN" "http://www.w3.org/Graphics/SVG/1.1/DTD/svg11.dtd">
<svg version="1.1" id="Layer_1" xmlns="http://www.w3.org/2000/svg" xmlns:xlink="http://www.w3.org/1999/xlink" x="0px" y="0px"
	 width="500px" height="500px" viewBox="0.578 166.89 500 500" enable-background="new 0.578 166.89 500 500" xml:space="preserve">
<g>
	<path fill="#FFFFFF" d="M438.207,356.297c-4.23,0-11.291,7.661-11.291,7.661s7.061,7.662,11.291,7.662s7.661-3.43,7.661-7.662
		C445.868,359.728,442.438,356.297,438.207,356.297"/>
	<path fill="#FFFFFF" d="M387.067,508.424c2.726-3.237,2.307-8.071-0.931-10.793c-3.238-2.726-14.424-1.489-14.424-1.489
		s1.323,10.489,4.561,13.215C379.513,512.079,384.344,511.664,387.067,508.424 M383.332,504.275c-0.194-0.496-0.39-0.99-0.585-1.484
		c0.154-0.062,0.309-0.124,0.462-0.188c0.19,0.496,0.381,0.996,0.571,1.492C383.631,504.155,383.481,504.212,383.332,504.275"/>
	<path fill="#FFFFFF" d="M444.712,386.699c0.416-4.209-2.66-7.962-6.87-8.379c-4.211-0.417-12.006,6.869-12.006,6.869
		s6.288,7.963,10.499,8.38C440.543,393.984,444.293,390.909,444.712,386.699 M437.543,385.296c-0.205,0.01-0.419-0.254-0.627-0.396
		c0.158-0.194,0.291-0.511,0.48-0.55c0.191-0.04,0.438,0.196,0.794,0.381C437.908,384.994,437.731,385.29,437.543,385.296"/>
	<path fill="#FFFFFF" d="M391.175,493.15c1.989,1.353,4.382,1.641,6.519,0.999c-0.188-0.145-0.386-0.362-0.598-0.655
		c0.628-0.074,1.257-0.146,2.243-0.262c-0.052,0.109-0.103,0.191-0.155,0.286c1.022-0.562,1.934-1.361,2.635-2.391
		c2.382-3.498,1.476-8.266-2.022-10.646c-3.498-2.379-14.273-0.396-14.273-0.396S387.678,490.767,391.175,493.15"/>
	<path fill="#FFFFFF" d="M462.558,413.271c-0.844,4.146,1.838,8.191,5.982,9.032c4.146,0.842,12.661-4.775,12.661-4.775
		s-5.466-9.399-9.613-10.241C467.441,406.444,463.399,409.124,462.558,413.271"/>
	<path fill="#FFFFFF" d="M440.037,408.944c0.841-4.146-1.839-8.189-5.984-9.031c-4.146-0.841-12.661,5.984-12.661,5.984
		s5.467,8.188,9.614,9.031C435.151,415.772,439.195,413.091,440.037,408.944 M438.169,410.587c0.16-0.02,0.358,0.275,0.589,0.475
		c-0.204,0.27-0.356,0.468-0.508,0.667c-0.2-0.217-0.465-0.406-0.57-0.663C437.643,410.976,437.978,410.611,438.169,410.587"/>
	<path fill="#FFFFFF" d="M464.605,349.647c-0.15-3.914-3.465-7.007-7.359-6.813c-3.916,0.152-6.967,3.447-6.815,7.36
		c0.128,3.309,0.188,6.05,0.188,8.63c0,56.859-20.049,109.527-56.45,148.304c-2.756,2.932-5.6,5.759-8.507,8.494
		c-0.419,1.05-0.922,2.104-1.622,2.971c-0.52,0.649-1.454,0.96-2.206,1.425c-0.158-0.156-0.314-0.314-0.471-0.469
		c-35.662,31.574-81.783,48.783-131.73,48.783c-0.986,0-1.969-0.023-2.951-0.038c0.002,0.003,0.007,0.008,0.009,0.011
		c-0.147,0.241-0.24,0.392-0.331,0.539c-0.162-0.17-0.372-0.318-0.463-0.519c-0.005-0.01,0.002-0.025,0.003-0.04
		c-11.59-0.203-22.976-1.359-34.074-3.431c0.173,0.364,0.323,0.916,0.541,1.773c-1.092-0.741-1.818-1.235-2.772-1.885
		c0.221-0.073,0.407-0.138,0.584-0.198c-2.311-0.45-4.608-0.939-6.892-1.468c0.139,0.466,0.062,0.926-0.393,1.488
		c-0.63-0.565-0.736-1.096-0.624-1.732c-24.667-5.86-47.725-16.325-68.187-30.977c-0.072,0.069-0.144,0.139-0.217,0.208
		c-0.068-0.132-0.152-0.259-0.19-0.396c-0.005-0.018,0.021-0.045,0.042-0.072c-9.983-7.182-19.354-15.351-27.977-24.481
		c-18.456-19.54-32.752-42.52-42.426-67.709c-0.169,0.163-0.334,0.32-0.497,0.478l-0.559-0.545c0.097-0.509,0.223-0.979,0.561-1.268
		c-9.298-24.7-14.178-51.49-14.178-79.244c0-2.594,0.059-5.334,0.188-8.627c0.153-3.915-2.896-7.211-6.81-7.364
		c-3.949-0.181-7.212,2.896-7.365,6.811c-0.135,3.481-0.199,6.398-0.199,9.181c0,42.838,10.949,83.573,31.392,118.502
		c0.253,0.049,0.559,0.204,1.078,0.377c-0.246,0.18-0.429,0.347-0.584,0.479c7.994,13.52,17.425,26.157,28.197,37.7
		c0.116-0.147,0.304-0.304,0.379-0.281c0.284,0.081,0.516,0.34,0.985,0.683c-0.235,0.15-0.44,0.312-0.602,0.428
		c0.042,0.046,0.085,0.093,0.127,0.138c8.426,8.921,17.515,16.988,27.157,24.18c-0.004-0.198-0.008-0.397-0.012-0.598
		c0.161,0.039,0.378,0.032,0.463,0.136c0.079,0.095,0.018,0.308,0.018,0.469c-0.122,0.019-0.255,0.035-0.388,0.054
		c12.836,9.567,26.667,17.56,41.268,23.899v-0.981c0.658,0.716,1.053,1.154,1.199,1.51c26.148,11.148,54.735,16.994,84.498,16.994
		c6.243,0,12.429-0.266,18.55-0.764c-0.005-0.007-0.015-0.017-0.02-0.021c0.166-0.176,0.319-0.37,0.51-0.514
		c0.026-0.018,0.237,0.213,0.444,0.405c-0.023,0.018-0.044,0.034-0.067,0.055c1.867-0.159,3.729-0.341,5.584-0.548
		c-0.107-0.143-0.202-0.295-0.27-0.453c-0.03-0.07,0.349-0.448,0.519-0.433c0.345,0.027,0.673,0.229,1.262,0.457
		c-0.181,0.12-0.332,0.222-0.468,0.313c40.939-4.724,78.637-20.593,109.604-46.144c-0.127-0.11-0.23-0.2-0.222-0.214
		c0.13-0.203,0.299-0.388,0.488-0.536c0.019-0.016,0.243,0.162,0.313,0.264c6.526-5.427,12.758-11.271,18.649-17.547
		c38.882-41.415,60.292-97.53,60.292-158.01C464.804,356.059,464.74,353.143,464.605,349.647 M36.604,368.568
		c-0.193-0.352-0.502-0.692-0.537-1.057c-0.02-0.213,0.402-0.466,0.832-0.919c0.188,0.602,0.415,0.944,0.349,1.215
		C37.177,368.095,36.83,368.316,36.604,368.568 M39.083,350.443c-0.203-0.099-0.42-0.179-0.598-0.312
		c-0.03-0.023,0.122-0.408,0.188-0.408c0.215,0.003,0.429,0.105,0.66,0.172C39.221,350.144,39.153,350.293,39.083,350.443
		 M47.033,389.521c0.104,0.031,0.151,0.259,0.223,0.4c-0.126,0.11-0.253,0.219-0.38,0.327c-0.102-0.192-0.203-0.386-0.303-0.578
		C46.728,389.614,46.904,389.487,47.033,389.521 M43.291,346.84c0.139,0.062,0.277,0.124,0.416,0.187
		c-0.099,0.113-0.188,0.239-0.303,0.333c-0.026,0.022-0.207-0.07-0.205-0.104C43.205,347.116,43.255,346.98,43.291,346.84
		 M42.914,361.726c0.02-0.151,0.077-0.298,0.121-0.447c0.123,0.081,0.245,0.16,0.366,0.24c-0.096,0.111-0.183,0.231-0.294,0.322
		C43.085,361.858,42.91,361.758,42.914,361.726 M43.124,366.532c0.127-0.108,0.249-0.294,0.382-0.304
		c0.115-0.007,0.243,0.189,0.363,0.295c-0.087,0.14-0.175,0.278-0.263,0.417C43.445,366.805,43.284,366.669,43.124,366.532
		 M44.047,377.27c-0.091-0.003-0.293-0.495-0.214-0.625c0.108-0.184,0.445-0.34,0.663-0.318c0.179,0.02,0.328,0.318,0.673,0.689
		C44.654,377.148,44.348,377.283,44.047,377.27 M46.672,424.375c-0.123,0.007-0.38-0.232-0.364-0.272
		c0.086-0.203,0.239-0.376,0.369-0.561c0.129,0.102,0.26,0.2,0.771,0.601C47.146,424.243,46.913,424.362,46.672,424.375
		 M52.211,427.483c-0.135-0.051-0.221-0.232-0.329-0.364c0.153-0.123,0.308-0.245,0.462-0.369c0.073,0.156,0.146,0.309,0.219,0.464
		C52.443,427.313,52.286,427.511,52.211,427.483 M52.405,407.486c-0.055-0.132-0.123-0.261-0.156-0.396
		c-0.006-0.024,0.161-0.135,0.196-0.116c0.123,0.072,0.226,0.183,0.336,0.278C52.657,407.329,52.532,407.41,52.405,407.486
		 M57.203,452.416c0.183-0.13,0.405-0.204,0.616-0.294c0.062,0.154,0.125,0.308,0.23,0.563c-0.236,0.058-0.455,0.154-0.672,0.147
		C57.308,452.831,57.171,452.436,57.203,452.416 M58.053,461.862c-0.093-0.214-0.203-0.417-0.254-0.635
		c-0.007-0.032,0.351-0.217,0.381-0.185c0.151,0.166,0.25,0.381,0.368,0.58C58.411,461.689,58.271,461.753,58.053,461.862
		 M65.856,461.144c-0.1-0.108-0.213-0.208-0.29-0.33c-0.02-0.033,0.089-0.2,0.115-0.193c0.135,0.027,0.265,0.09,0.396,0.143
		C66.004,460.89,65.93,461.015,65.856,461.144 M72.348,465.953c-0.13-0.182-0.281-0.36-0.369-0.561
		c-0.016-0.034,0.242-0.189,0.459-0.352c0.107,0.221,0.248,0.414,0.282,0.624C72.732,465.739,72.479,465.858,72.348,465.953
		 M76.715,480.069c-0.073,0.004-0.16-0.259-0.24-0.399c0.197-0.109,0.388-0.238,0.597-0.308c0.03-0.009,0.154,0.261,0.287,0.499
		C77.133,479.941,76.927,480.059,76.715,480.069 M93.379,507.177c-0.039,0.042-0.276-0.093-0.421-0.147
		c0.082-0.213,0.163-0.421,0.245-0.635c0.227,0.085,0.371,0.14,0.516,0.195C93.61,506.792,93.526,507.011,93.379,507.177
		 M103.433,522.555c-0.164-0.073-0.254-0.399-0.287-0.628c-0.011-0.074,0.318-0.298,0.405-0.259c0.21,0.093,0.369,0.3,0.664,0.565
		C103.853,522.396,103.579,522.62,103.433,522.555 M105.945,523.178c-0.209-0.127-0.433-0.235-0.612-0.396
		c-0.029-0.025,0.174-0.415,0.231-0.406c0.234,0.036,0.45,0.166,0.685,0.266C106.114,522.88,106.029,523.029,105.945,523.178
		 M110.253,530.484c-1.124-0.8-1.397-1.741-0.829-3.009C111.349,528.558,111.364,528.609,110.253,530.484 M115.566,521.583
		c-0.208-0.194-0.333-0.31-0.459-0.427c0.167-0.176,0.333-0.355,0.5-0.534c0.125,0.118,0.374,0.275,0.351,0.343
		C115.884,521.184,115.71,521.371,115.566,521.583 M137.042,537.884c-0.11-0.124-0.219-0.251-0.33-0.378
		c0.194-0.102,0.387-0.203,0.579-0.305c0.057,0.157,0.186,0.333,0.149,0.462C137.412,537.767,137.182,537.814,137.042,537.884
		 M138.25,547.575c-0.219-0.108-0.411-0.272-0.61-0.418c0.104-0.139,0.207-0.277,0.609-0.82c0.118,0.333,0.256,0.583,0.28,0.846
		C138.543,547.309,138.279,547.588,138.25,547.575 M163.257,561.096c-0.215-0.138-0.432-0.276-0.646-0.417
		c-0.162-0.279-0.526-0.688-0.445-0.815c0.193-0.302,0.594-0.473,0.911-0.697c0.167,0.286,0.448,0.565,0.468,0.861
		C163.567,560.378,163.363,560.741,163.257,561.096 M165.849,561.991c-0.465,0.764-1.11,0.779-1.82,0.196
		c0.17-0.881,0.681-1.282,1.52-1.063C165.725,561.17,165.958,561.815,165.849,561.991 M166.519,558.64
		c-0.106-0.303-0.233-0.531-0.25-0.77c-0.008-0.124,0.238-0.385,0.273-0.369c0.2,0.09,0.372,0.243,0.553,0.376
		C166.997,558.01,166.897,558.139,166.519,558.64 M177.855,561.833c-0.084-0.122-0.175-0.243-0.243-0.374
		c-0.007-0.014,0.14-0.155,0.184-0.14c0.137,0.047,0.258,0.137,0.385,0.211C178.073,561.632,177.964,561.732,177.855,561.833
		 M234.686,579.396c-0.026,0.031-0.41-0.118-0.409-0.181c0.004-0.212,0.104-0.425,0.171-0.653c0.247,0.108,0.396,0.176,0.545,0.242
		C234.896,579.005,234.819,579.222,234.686,579.396 M240.549,571.281c-0.067,0.007-0.248-0.362-0.222-0.387
		c0.165-0.145,0.371-0.241,0.565-0.354c0.08,0.141,0.16,0.284,0.294,0.517C240.964,571.144,240.76,571.264,240.549,571.281
		 M254.168,570.027h2.685C255.787,571.241,255.168,571.29,254.168,570.027 M291.417,568.067c-0.356-0.529-0.722-0.836-0.68-1.064
		c0.063-0.337,0.421-0.616,0.652-0.921c0.199,0.274,0.525,0.539,0.56,0.836C291.98,567.19,291.696,567.499,291.417,568.067
		 M303.087,569.585c-0.032,0.007-0.215-0.348-0.182-0.376c0.165-0.149,0.375-0.249,0.569-0.367c0.067,0.139,0.132,0.274,0.235,0.492
		C303.503,569.424,303.302,569.535,303.087,569.585 M317.284,568.3c-0.07,0.005-0.157-0.261-0.235-0.402
		c0.194-0.108,0.391-0.217,0.587-0.325c0.077,0.141,0.155,0.281,0.287,0.515C317.698,568.17,317.494,568.286,317.284,568.3
		 M330.781,562.546c-1.3-1.149-0.878-1.887,0-3.264V562.546z M331.842,553.979c-0.107-0.116-0.316-0.249-0.298-0.342
		c0.041-0.212,0.191-0.401,0.316-0.63c0.178,0.188,0.398,0.351,0.373,0.413C332.149,553.624,331.979,553.794,331.842,553.979
		 M337.847,562.205c-0.102-0.272-0.288-0.556-0.266-0.817c0.014-0.141,0.396-0.244,0.614-0.364c0.105,0.217,0.209,0.434,0.336,0.699
		C338.259,561.915,338.053,562.059,337.847,562.205 M366.29,534.637c-0.3-0.358-0.619-0.604-0.577-0.716
		c0.11-0.298,0.375-0.538,0.577-0.807c0.183,0.164,0.53,0.354,0.51,0.487C366.753,533.908,366.527,534.189,366.29,534.637
		 M411.769,487.814c-0.13-0.166-0.262-0.327-0.393-0.494c0.14-0.08,0.281-0.164,0.423-0.247c0.103,0.122,0.293,0.257,0.282,0.369
		C412.069,487.575,411.882,487.69,411.769,487.814 M429.842,457.158c-0.139-0.086-0.403-0.183-0.397-0.255
		c0.019-0.212,0.143-0.418,0.232-0.64c0.236,0.141,0.376,0.224,0.518,0.31C430.078,456.766,429.96,456.96,429.842,457.158
		 M430.921,465.355c-0.188-0.125-0.338-0.308-0.501-0.466c0.116-0.106,0.277-0.321,0.341-0.294c0.205,0.081,0.373,0.252,0.575,0.402
		C431.145,465.167,430.954,465.378,430.921,465.355 M446.992,422.632c-0.173,0.047-0.523-0.552-0.795-0.854
		c0.503-0.423,0.964-0.915,1.528-1.217c0.142-0.074,0.614,0.469,1.315,1.038C448.151,422.076,447.602,422.464,446.992,422.632
		 M452.145,427.666c-0.059-0.139-0.114-0.277-0.172-0.415c0.138-0.032,0.273-0.081,0.412-0.086c0.033,0,0.119,0.181,0.096,0.205
		C452.387,427.485,452.261,427.571,452.145,427.666 M457.698,396.265c0.921-0.992,1.757-0.781,3.103-0.135
		C459.466,397.081,458.651,397.228,457.698,396.265 M460.629,390.291c-0.222-0.226-0.445-0.45-0.665-0.676
		c0.182-0.164,0.368-0.465,0.542-0.458c0.197,0.01,0.382,0.296,0.64,0.521C460.938,389.921,460.785,390.106,460.629,390.291"/>
	<path fill="#FFFFFF" d="M94.572,475.532c3.706-2.043,6.64-12.827,6.64-12.827s-10.333-2.634-14.038-0.589
		c-3.705,2.041-5.053,6.702-3.01,10.408C86.206,476.229,90.866,477.575,94.572,475.532 M99.02,465.491
		c0.134,0.196,0.289,0.372,0.37,0.577c0.019,0.049-0.291,0.297-0.31,0.282c-0.175-0.143-0.32-0.325-0.473-0.496
		C98.721,465.754,98.835,465.653,99.02,465.491 M88.294,468.163c-0.126,0.014-0.406-0.257-0.393-0.281
		c0.112-0.218,0.274-0.409,0.422-0.608c0.138,0.104,0.276,0.209,0.791,0.599C88.796,467.992,88.55,468.135,88.294,468.163
		 M87.822,462.698c0.316,0.245,0.724,0.438,0.909,0.762c0.091,0.157-0.228,0.552-0.479,1.095c-0.46-0.487-0.841-0.736-0.961-1.079
		C87.229,463.303,87.629,462.963,87.822,462.698"/>
	<path fill="#FFFFFF" d="M415.193,472.524c2.043-3.706,0.694-8.367-3.011-10.408c-3.706-2.045-14.038,0.589-14.038,0.589
		s2.934,10.784,6.641,12.827C408.491,477.575,413.15,476.227,415.193,472.524"/>
	<path fill="#FFFFFF" d="M426.306,452.693c1.656-3.896-0.157-8.396-4.049-10.051c-0.571-0.242-1.279-0.342-2.055-0.353
		c0.642,1.253,1.183,2.56,1.764,3.844c-0.281,0.187-0.565,0.374-0.848,0.561c-1.009-1.05-2.154-2.002-2.964-3.186
		c-0.159-0.233-0.238-0.631-0.249-1.029c-4.287,0.694-9.33,3.003-9.33,3.003s3.787,9.604,7.681,11.26
		C420.149,458.397,424.648,456.584,426.306,452.693"/>
	<path fill="#FFFFFF" d="M434.209,431.339c1.265-4.039-0.982-8.338-5.021-9.603c-1.665-0.521-4.206,0.042-6.618,0.873
		c-0.279,0.369-0.475,0.683-0.62,0.662c-0.188-0.025-0.366-0.122-0.542-0.235c-2.955,1.139-5.45,2.513-5.45,2.513
		s4.612,9.543,8.649,10.811C428.646,437.623,432.943,435.376,434.209,431.339"/>
	<path fill="#FFFFFF" d="M63.023,393.569c4.21-0.417,10.499-8.38,10.499-8.38s-7.797-7.286-12.007-6.869
		c-4.211,0.417-7.287,4.169-6.87,8.379C55.063,390.909,58.813,393.984,63.023,393.569"/>
	<path fill="#FFFFFF" d="M68.352,414.928c4.147-0.841,9.615-9.031,9.615-9.031s-8.516-6.825-12.662-5.984
		c-4.147,0.842-6.827,4.886-5.984,9.031C60.163,413.091,64.206,415.772,68.352,414.928"/>
	<path fill="#FFFFFF" d="M90.778,445.482c0,0-9.784-4.495-13.677-2.84c-3.894,1.657-5.708,6.157-4.051,10.051
		c1.657,3.892,6.156,5.706,10.05,4.049C86.993,455.085,90.778,445.482,90.778,445.482 M78.113,455.718
		c-0.129-0.074-0.257-0.15-0.384-0.224c0.109-0.102,0.209-0.22,0.334-0.296c0.03-0.021,0.201,0.088,0.196,0.116
		C78.229,455.453,78.166,455.585,78.113,455.718"/>
	<path fill="#FFFFFF" d="M74.748,436.358c4.039-1.263,8.649-10.812,8.649-10.812s-9.193-5.074-13.23-3.81
		c-4.038,1.263-6.285,5.563-5.021,9.6C66.414,435.376,70.711,437.623,74.748,436.358"/>
	<path fill="#FFFFFF" d="M113.833,480.084c0,0-10.775-1.982-14.273,0.396c-3.498,2.384-4.403,7.148-2.022,10.646
		c1.181,1.733,2.948,2.83,4.858,3.204c-0.081-0.039-0.163-0.083-0.244-0.134c-0.035-0.243-0.069-0.484-0.103-0.728
		c0.648-0.051,1.297-0.102,2.359-0.187c-0.421,0.714-0.799,1.057-1.167,1.165c1.539,0.128,3.121-0.212,4.533-1.05
		c-0.062-0.019-0.124-0.032-0.186-0.046c0.136-0.355,0.273-0.714,0.409-1.067c0.142,0.033,0.283,0.062,0.423,0.095
		c-0.032,0.22-0.067,0.437-0.102,0.653C111.733,490.469,113.833,480.084,113.833,480.084 M102.793,482.125
		c-0.128-0.076-0.245-0.173-0.364-0.266c0.108-0.104,0.215-0.205,0.323-0.307c0.068,0.131,0.151,0.259,0.191,0.399
		C102.955,481.995,102.807,482.134,102.793,482.125"/>
	<path fill="#FFFFFF" d="M123.082,509.357c3.238-2.726,4.562-13.215,4.562-13.215s-11.186-1.236-14.425,1.486
		c-3.237,2.725-3.655,7.559-0.932,10.796C115.011,511.664,119.844,512.079,123.082,509.357 M124.424,505.138
		c0.141,0.062,0.28,0.125,0.42,0.187c-0.101,0.116-0.189,0.245-0.306,0.338c-0.027,0.022-0.21-0.072-0.207-0.104
		C124.338,505.417,124.389,505.28,124.424,505.138"/>
	<path fill="#FFFFFF" d="M30.815,422.3c4.146-0.84,6.824-4.886,5.983-9.031c-0.842-4.146-4.885-6.825-9.032-5.983
		c-4.146,0.841-9.614,10.24-9.614,10.24S26.67,423.143,30.815,422.3 M25.734,412.495c-0.113,0.007-0.241-0.189-0.361-0.295
		c0.087-0.141,0.174-0.277,0.263-0.418c0.159,0.135,0.32,0.273,0.481,0.409C25.989,412.298,25.867,412.486,25.734,412.495"/>
	<path fill="#FFFFFF" d="M53.49,363.958c0,4.231,3.43,7.662,7.661,7.662c4.232,0,11.291-7.662,11.291-7.662
		s-7.059-7.661-11.291-7.661S53.49,359.728,53.49,363.958"/>
	<path fill="#FFFFFF" d="M51.833,461.204c-1.658-3.893-6.157-5.706-10.051-4.05c-3.892,1.656-7.678,11.259-7.678,11.259
		s9.786,4.499,13.678,2.839C51.675,469.598,53.488,465.099,51.833,461.204 M40.729,459.888c-0.167,0.176-0.488,0.205-1.039-0.016
		c0.354-0.372,0.706-0.746,1.061-1.12c0.134,0.095,0.271,0.189,0.406,0.284C41.019,459.328,40.938,459.666,40.729,459.888
		 M46.828,466.89c-0.077,0.012-0.188-0.239-0.284-0.374c0.187-0.127,0.364-0.274,0.566-0.362c0.032-0.014,0.181,0.245,0.337,0.464
		C47.231,466.721,47.036,466.863,46.828,466.89"/>
	<path fill="#FFFFFF" d="M33.586,432.821c-4.039,1.263-8.65,10.812-8.65,10.812s9.194,5.075,13.232,3.812
		c4.038-1.266,6.285-5.563,5.021-9.602C41.922,433.804,37.624,431.555,33.586,432.821"/>
	<path fill="#FFFFFF" d="M475.939,381.969c-4.211-0.416-7.961,2.66-8.379,6.871c-0.417,4.21,2.658,7.961,6.871,8.378
		c4.21,0.416,12.007-6.87,12.007-6.87S480.15,382.388,475.939,381.969 M473.719,387.289c-0.234-0.298-0.468-0.595-0.705-0.893
		c0.125-0.097,0.249-0.194,0.373-0.289c0.228,0.303,0.457,0.605,0.683,0.909C473.953,387.106,473.836,387.198,473.719,387.289
		 M480.651,393.06c-0.113-0.099-0.239-0.188-0.334-0.303c-0.021-0.026,0.073-0.209,0.104-0.207c0.141,0.008,0.278,0.058,0.419,0.093
		C480.777,392.784,480.714,392.922,480.651,393.06"/>
	<path fill="#FFFFFF" d="M431.626,501.574c-3.497-2.381-8.263-1.473-10.644,2.025c-2.38,3.497-1.475,8.261,2.023,10.643
		c3.497,2.381,14.272,0.397,14.272,0.397S435.124,503.955,431.626,501.574 M423.857,504.347c-0.075,0.011-0.19-0.243-0.289-0.374
		c0.186-0.13,0.359-0.282,0.563-0.37c0.036-0.016,0.188,0.242,0.35,0.46C424.264,504.168,424.068,504.309,423.857,504.347"/>
	<path fill="#FFFFFF" d="M60.902,493.429c3.705-2.043,5.052-6.703,3.01-10.407c-2.043-3.706-6.702-5.053-10.408-3.012
		c-3.705,2.043-6.638,12.827-6.638,12.827S57.196,495.474,60.902,493.429 M58.806,485.286c0.132,0.174,0.204,0.395,0.297,0.598
		c-0.151,0.065-0.304,0.128-0.556,0.231c-0.062-0.229-0.159-0.443-0.158-0.657C58.39,485.392,58.779,485.25,58.806,485.286
		 M54.95,493.041c-0.14-0.083-0.401-0.173-0.397-0.249c0.015-0.21,0.136-0.416,0.223-0.64c0.23,0.137,0.499,0.267,0.487,0.296
		C55.192,492.658,55.06,492.847,54.95,493.041"/>
	<path fill="#FFFFFF" d="M23.418,381.971c-4.21,0.417-10.5,8.378-10.5,8.378s7.797,7.287,12.008,6.869
		c4.211-0.416,7.287-4.167,6.87-8.378C31.379,384.629,27.628,381.554,23.418,381.971"/>
	<path fill="#FFFFFF" d="M465.77,432.821c-4.037-1.266-8.335,0.983-9.602,5.021c-1.263,4.035,0.983,8.334,5.021,9.6
		c4.038,1.266,13.229-3.812,13.229-3.812S469.809,434.083,465.77,432.821"/>
	<path fill="#FFFFFF" d="M69.987,513.905c0.282,0.54,0.364,1.037,0.329,1.508c2.401-0.003,4.729-0.282,6.036-1.174
		c3.498-2.379,4.404-7.146,2.023-10.643c-2.38-3.498-7.147-4.405-10.645-2.022c-3.498,2.381-5.651,13.063-5.651,13.063
		s3.292,0.604,6.827,0.743C69.215,514.881,69.599,514.392,69.987,513.905"/>
	<path fill="#FFFFFF" d="M22.873,356.297c-4.231,0-11.292,7.661-11.292,7.661s7.061,7.662,11.292,7.662
		c4.23,0,7.661-3.43,7.661-7.662C30.533,359.728,27.103,356.297,22.873,356.297"/>
	<path fill="#FFFFFF" d="M83.663,521.722c-3.237,2.724-4.561,14.425-4.561,14.425s11.185,0.022,14.423-2.696
		c3.239-2.725,3.656-7.559,0.933-10.796C91.736,519.416,86.904,518.998,83.663,521.722 M84.759,524.222
		c-0.797-1.2-0.271-1.902,0.754-2.948C86.246,522.811,85.807,523.516,84.759,524.222"/>
	<path fill="#FFFFFF" d="M445.853,480.013c-3.705-2.044-8.364-0.695-10.407,3.009c-2.043,3.707-0.694,8.366,3.01,10.409
		c3.706,2.043,14.038-0.591,14.038-0.591S449.559,482.053,445.853,480.013 M440.738,486.284h-1.714
		c0.021-0.247,0.043-0.495,0.067-0.739c0.558,0.081,1.116,0.167,1.675,0.249C440.754,485.958,440.746,486.122,440.738,486.284"/>
	<path fill="#FFFFFF" d="M457.574,457.158c-3.894-1.658-8.392,0.153-10.05,4.049c-1.655,3.893,0.157,8.394,4.051,10.047
		c3.894,1.658,13.678-2.839,13.678-2.839S461.467,458.812,457.574,457.158 M459.002,469.077c-0.023,0.017-0.197-0.083-0.194-0.116
		c0.021-0.151,0.076-0.3,0.122-0.446c0.122,0.077,0.244,0.16,0.367,0.237C459.2,468.864,459.112,468.985,459.002,469.077"/>
	<path fill="#FFFFFF" d="M415.692,521.722c-3.238-2.725-8.071-2.307-10.794,0.933c-2.725,3.237-2.306,8.071,0.933,10.793
		c3.236,2.725,14.422,2.699,14.422,2.699S418.932,524.444,415.692,521.722 M405.833,530.329c-0.254,0.083-0.51,0.171-0.763,0.256
		c-0.176-0.676-0.354-1.353-0.668-2.553C405.888,528.77,406.198,529.398,405.833,530.329 M410.57,521.498
		c-0.126,0.016-0.404-0.253-0.391-0.281c0.108-0.22,0.272-0.411,0.42-0.609c0.138,0.106,0.275,0.21,0.797,0.604
		C411.074,521.333,410.829,521.475,410.57,521.498"/>
	<path fill="#FFFFFF" d="M476.485,371.62c4.229,0,11.291-7.662,11.291-7.662s-7.062-7.661-11.291-7.661
		c-4.231,0-7.661,3.43-7.661,7.661C468.823,368.189,472.254,371.62,476.485,371.62"/>
	<path fill="#FFFFFF" d="M177.683,251.689c0.049,0.565,0.517,2.229,4.692,5.639c6.66,5.442,10.857,14.294,7.968,32.792
		c-0.409,2.61-0.983,4.997-1.686,7.226c-0.454,1.439,0.526,3.825,4.491,3.381c9.161-1.023,42.529-1.558,57.079-1.558
		c14.549,0,46.753,0.436,56.235,1.465c4.519,0.491,5.656-2.208,5.159-3.854c-0.624-2.067-1.137-4.27-1.511-6.661
		c-2.887-18.497,1.309-27.35,7.968-32.792c4.176-3.411,4.642-5.074,4.691-5.639c0-0.389-0.169-0.411-0.67-0.545
		c-5.107-1.353-35.32-3.575-71.872-3.581c-18.85,0.003-36.003,0.585-48.906,1.338c-0.149,0.166-0.282,0.314-0.408,0.454
		c-0.124-0.136-0.248-0.272-0.371-0.407c-12.128,0.724-20.355,1.597-22.432,2.267C177.771,251.326,177.683,251.491,177.683,251.689
		 M303.297,263.565c0.089-0.192,0.369-0.3,0.568-0.443c0.097,0.201,0.307,0.435,0.26,0.595c-0.057,0.197-0.327,0.331-0.622,0.598
		C303.399,263.975,303.228,263.715,303.297,263.565 M300.408,296.831c0.199-0.087,0.559,0.196,1.052,0.399
		c-0.398,0.464-0.583,0.869-0.854,0.937c-0.2,0.051-0.706-0.324-0.721-0.536C299.863,297.364,300.149,296.946,300.408,296.831
		 M298.337,292.042c0.146,0.248,0.03,0.652,0.03,0.988c-0.192,0.06-0.385,0.12-0.578,0.181c-0.215-0.492-0.43-0.983-0.647-1.477
		c0.108-0.101,0.22-0.202,0.328-0.302C297.77,291.629,298.173,291.765,298.337,292.042 M296.983,266.383
		c0.024-0.013,0.305,0.33,0.269,0.387c-0.122,0.2-0.331,0.348-0.519,0.527c-0.164-0.227-0.266-0.368-0.366-0.507
		C296.569,266.645,296.763,266.486,296.983,266.383 M293.961,263.392c0.023-0.016,0.214,0.232,0.398,0.44
		c-0.215,0.14-0.403,0.307-0.621,0.377c-0.066,0.021-0.222-0.229-0.332-0.355C293.587,263.696,293.76,263.52,293.961,263.392
		 M288.667,295.791c0.13,0.1,0.259,0.199,0.764,0.591c-0.3,0.1-0.53,0.223-0.77,0.238c-0.123,0.007-0.38-0.235-0.364-0.273
		C288.383,296.146,288.536,295.973,288.667,295.791 M280.773,281.083c0.253,0.042,0.445,0.439,0.813,0.846
		c-0.486,0.253-0.918,0.603-1.036,0.518c-0.293-0.213-0.442-0.623-0.65-0.953C280.195,281.341,280.513,281.038,280.773,281.083
		 M273.455,266.366c0.201,0.019,0.376,0.312,0.626,0.545c-0.213,0.24-0.378,0.423-0.54,0.606l-0.649-0.712
		C273.084,266.646,273.282,266.351,273.455,266.366 M270.44,272.756c0.216-0.002,0.431,0.096,0.66,0.16
		c-0.105,0.248-0.171,0.397-0.233,0.547c-0.208-0.093-0.426-0.169-0.606-0.298C270.231,273.144,270.376,272.756,270.44,272.756
		 M269.691,296.148c-0.207-0.071-0.395-0.204-0.588-0.314c0.08-0.139,0.172-0.4,0.246-0.395c0.211,0.013,0.412,0.134,0.638,0.221
		C269.852,295.891,269.725,296.158,269.691,296.148 M268.036,276.63c0.697-0.705,1.305-0.365,1.823,0.214l-0.051,0.785h-1.876
		C267.961,277.288,267.852,276.813,268.036,276.63 M254.995,295.32c0.026-0.013,0.306,0.329,0.27,0.387
		c-0.122,0.2-0.331,0.348-0.519,0.527c-0.161-0.228-0.262-0.368-0.361-0.508C254.584,295.583,254.777,295.424,254.995,295.32
		 M224.847,296.978c-0.066-0.245-0.17-0.487-0.175-0.732c-0.003-0.069,0.278-0.145,0.515-0.261c0.041,0.277,0.121,0.532,0.09,0.772
		C225.265,296.848,224.998,296.904,224.847,296.978 M226.333,272.062c-0.205-0.218-0.47-0.412-0.579-0.669
		c-0.039-0.088,0.3-0.458,0.494-0.483c0.16-0.021,0.362,0.278,0.596,0.479C226.639,271.661,226.485,271.861,226.333,272.062
		 M248.709,261.324c0.124,0.08,0.246,0.161,0.37,0.241c-0.096,0.11-0.185,0.231-0.296,0.323c-0.022,0.018-0.199-0.083-0.194-0.114
		C248.608,261.621,248.665,261.474,248.709,261.324 M248.142,271.537c0.124,0.08,0.246,0.16,0.369,0.24
		c-0.096,0.11-0.185,0.232-0.295,0.324c-0.023,0.018-0.201-0.082-0.196-0.116C248.04,271.833,248.098,271.686,248.142,271.537
		 M243.749,291.79c0.354,0.161,0.597,0.568,1.091,1.09c-0.585,0.212-1.017,0.506-1.174,0.399c-0.328-0.225-0.511-0.662-0.755-1.013
		C243.197,292.095,243.578,291.711,243.749,291.79 M239.447,284.909c0.345,0.398,0.69,0.797,1.035,1.197
		c-0.149,0.127-0.298,0.256-0.447,0.384c-0.35-0.395-0.699-0.79-1.049-1.185C239.14,285.174,239.293,285.042,239.447,284.909
		 M237.382,257.541c0.289,0.315,0.559,0.518,0.677,0.784c0.04,0.092-0.355,0.53-0.46,0.5c-0.286-0.083-0.522-0.333-0.78-0.516
		C236.966,258.108,237.112,257.906,237.382,257.541 M228.901,298.056c-0.026,0.137-0.092,0.265-0.144,0.397
		c-0.127-0.074-0.253-0.149-0.38-0.223c0.107-0.1,0.207-0.212,0.331-0.292C228.738,297.92,228.906,298.029,228.901,298.056
		 M221.745,259.293c1.809,1.362,3.556,2.679,5.601,4.219c0.399-0.178,0.76-0.335,1.11-0.491c0.074,0.12,0.149,0.239,0.222,0.358
		c-0.218,0.175-0.417,0.453-0.656,0.494c-0.156,0.026-0.33-0.049-0.525-0.136C221.74,262.836,220.788,262.081,221.745,259.293
		 M221.967,287.878c0.06,0.155,0.121,0.31,0.181,0.465c-0.139,0.076-0.3,0.234-0.411,0.204c-0.134-0.033-0.226-0.229-0.337-0.354
		C221.589,288.086,221.778,287.982,221.967,287.878 M220.43,256.78c0.092,0.113,0.183,0.224,0.273,0.337
		c-0.125,0.075-0.247,0.156-0.379,0.21c-0.02,0.008-0.148-0.145-0.132-0.184C220.249,257.011,220.348,256.899,220.43,256.78
		 M218.653,284.069c0.298,0.1,0.58,0.242,0.995,0.43c-0.261,0.35-0.398,0.534-0.539,0.721c-0.226-0.236-0.48-0.453-0.659-0.722
		C218.402,284.43,218.63,284.063,218.653,284.069 M213.895,278.625c0.105,0.108,0.208,0.217,0.31,0.326
		c-0.133,0.069-0.262,0.156-0.403,0.196c-0.044,0.012-0.186-0.137-0.176-0.153C213.702,278.865,213.802,278.747,213.895,278.625"/>
	<path fill="#FFFFFF" d="M428.255,304.61l-9.142-27.312c-0.033,0.977-0.351,1.354-1.634,1.051c0.511-0.534,0.875-0.919,1.468-1.541
		l-4.148-12.393c-1.82-6.384-4.65-9.154-9.435-9.435c-4.788-0.281-28.97-2.479-45.449-2.479c-10.829,0-20.06,4.704-25.117,12.655
		c1.458,0.316,1.785,1.355,2.208,2.717c-1.253-0.397-1.94-1.027-2.606-2.056c-2.389,4.021-3.745,8.825-3.745,14.242
		c-0.006,0.39,0.026,0.789,0.045,1.183c0.064-0.028,0.122-0.048,0.127-0.041c0.142,0.17,0.236,0.378,0.345,0.574
		c-0.123,0.066-0.259,0.138-0.443,0.237c0.87,10.921,9.966,23.635,13.153,30.593c2.765,5.503,5.382,11.373,7.458,18.36
		c0.055,0.017,0.11,0.027,0.165,0.044c-0.034,0.053-0.068,0.105-0.102,0.157c1.345,4.562,2.447,9.627,3.225,15.354
		c0.007,0.003,0.015,0.005,0.022,0.008c-0.007,0.014-0.01,0.021-0.017,0.035c0.766,5.659,1.213,11.961,1.213,19.161
		c0,18.413-4.633,36.1-13.304,51.765c0.128,0.099,0.271,0.212,0.453,0.337c-0.474,0.33-0.731,0.508-0.986,0.686
		c-0.009-0.012-0.017-0.025-0.026-0.034c-4.718,8.312-10.563,16.054-17.507,22.994c-9.812,9.812-21.376,17.087-33.591,22.775
		c-12.306,5.731-20.182,23.899-9.869,39.859c6.026,9.323,21.434,17.643,42.588,8.332c14.993-7.642,28.642-17.514,40.726-29.422
		c0.106-0.333,0.295-0.653,0.425-0.983l0.365,0.224c0.021-0.021,0.041-0.039,0.062-0.06c14.257-14.249,25.624-30.734,33.834-49.04
		c-0.081,0.074-0.164,0.15-0.244,0.225c-0.401-0.482-0.803-0.962-1.479-1.775c1.374-0.108,1.802,0.32,1.978,0.97
		c0.4-0.902,0.801-1.803,1.186-2.713c8.604-20.351,12.968-41.929,12.968-64.139c0-18.122-3.391-34.44-7.64-49.55
		c-0.6-2.492,0.473-3.4,3.444-3.34c2.972,0.059,4.211,0.676,9.593,1.21C424.203,314.579,429.879,309.692,428.255,304.61
		 M426.856,308.868c0.138,0.17,0.233,0.377,0.344,0.573c-0.143,0.079-0.282,0.157-0.519,0.288c-0.082-0.223-0.201-0.427-0.212-0.64
		C426.467,309.019,426.838,308.845,426.856,308.868 M338.386,283.458c-0.058-0.139-0.116-0.279-0.172-0.418
		c0.138-0.032,0.274-0.078,0.414-0.084c0.031-0.001,0.119,0.18,0.096,0.206C338.628,283.274,338.501,283.362,338.386,283.458
		 M342.124,290.84c-0.196-0.506-0.393-1.014-0.59-1.521c0.177-0.067,0.353-0.135,0.528-0.203c0.192,0.508,0.384,1.016,0.576,1.524
		C342.468,290.708,342.296,290.772,342.124,290.84 M346.596,317.174c-0.056-0.129-0.121-0.258-0.155-0.392
		c-0.006-0.023,0.161-0.135,0.193-0.114c0.125,0.071,0.225,0.181,0.336,0.276C346.847,317.021,346.721,317.097,346.596,317.174
		 M348.056,274.377c-0.069-0.132-0.153-0.26-0.193-0.401c-0.015-0.043,0.136-0.184,0.15-0.174c0.13,0.075,0.247,0.174,0.368,0.268
		C348.272,274.172,348.163,274.275,348.056,274.377 M348.849,259.104c0.277-0.276,1.096-0.31,1.496-0.104
		c1.053,0.545,2.004,1.279,3.324,2.155c-3.053,1.404-4.272,1.218-4.963-0.546C348.532,260.17,348.565,259.385,348.849,259.104
		 M350.426,305.069c0.245,0.175,0.488,0.351,0.735,0.527c-0.167,0.739-0.33,1.479-0.495,2.218c-0.191,0.059-0.385,0.116-0.576,0.175
		c-0.361-0.533-1.052-1.104-0.994-1.587C349.155,305.912,349.952,305.509,350.426,305.069 M349.679,315.642
		c-0.01-0.121,0.24-0.38,0.277-0.364c0.2,0.09,0.371,0.247,0.555,0.381c-0.103,0.127-0.204,0.257-0.583,0.734
		C349.827,316.107,349.695,315.879,349.679,315.642 M350.899,322.764c-0.077,0.038-0.52-0.473-0.502-0.497
		c0.265-0.333,0.562-0.651,0.904-0.9c0.051-0.038,0.37,0.295,0.744,0.602C351.587,322.305,351.27,322.589,350.899,322.764
		 M353.044,307.349c0.14,0.007,0.275,0.057,0.413,0.092c-0.062,0.139-0.123,0.275-0.184,0.412c-0.113-0.097-0.238-0.186-0.33-0.3
		C352.922,307.527,353.013,307.348,353.044,307.349 M353.34,320.647c-0.08-0.223-0.198-0.431-0.206-0.641
		c-0.004-0.072,0.369-0.245,0.391-0.219c0.141,0.17,0.233,0.38,0.345,0.577C353.725,320.441,353.58,320.519,353.34,320.647
		 M354.121,316.772c-0.312,0.01-0.632-0.22-1.089-0.399c0.643-1.122,1.241-1.198,2.434-0.17
		C354.757,316.519,354.442,316.762,354.121,316.772 M355.081,274.608c-0.043,0.011-0.181-0.136-0.173-0.15
		c0.075-0.128,0.174-0.244,0.268-0.362c0.102,0.107,0.202,0.213,0.304,0.32C355.347,274.483,355.221,274.567,355.081,274.608
		 M288.983,483.386c-0.211-0.071-0.397-0.204-0.592-0.316c0.081-0.141,0.174-0.404,0.248-0.397c0.212,0.014,0.416,0.134,0.642,0.222
		C289.14,483.127,289.014,483.398,288.983,483.386 M310.816,472.585c0.158,0.321,0.399,0.594,0.342,0.756
		c-0.07,0.184-0.429,0.399-0.619,0.364c-0.17-0.032-0.42-0.408-0.386-0.582C310.191,472.934,310.521,472.81,310.816,472.585
		 M296.242,472.5c-0.089-0.003-0.291-0.499-0.213-0.632c0.109-0.186,0.447-0.345,0.666-0.319c0.179,0.018,0.329,0.321,0.673,0.695
		C296.854,472.378,296.545,472.515,296.242,472.5 M303.347,499.148c-0.204-0.098-0.424-0.174-0.599-0.31
		c-0.032-0.026,0.117-0.411,0.183-0.411c0.213-0.003,0.426,0.099,0.655,0.166C303.477,498.845,303.413,498.997,303.347,499.148
		 M303.512,469.818c-0.074-0.125-0.157-0.247-0.212-0.381c-0.009-0.019,0.146-0.147,0.185-0.132
		c0.131,0.056,0.245,0.155,0.367,0.238C303.737,469.635,303.625,469.726,303.512,469.818 M305.255,506.611
		c-0.175-0.173-0.501-0.345-0.497-0.514c0.005-0.296,0.213-0.587,0.386-1.005c0.34,0.266,0.707,0.484,0.682,0.545
		C305.688,505.983,305.455,506.291,305.255,506.611 M306.633,495.09c-0.068-0.133-0.154-0.26-0.196-0.401
		c-0.012-0.043,0.139-0.185,0.155-0.175c0.131,0.073,0.248,0.175,0.369,0.27C306.853,494.888,306.743,494.989,306.633,495.09
		 M306.91,488.883c-0.072,0.039-0.52-0.376-0.487-0.448c0.126-0.295,0.352-0.567,0.601-0.773c0.048-0.042,0.372,0.249,0.727,0.499
		C307.409,488.472,307.189,488.738,306.91,488.883 M310.289,488.95c-0.022,0.03-0.408-0.122-0.405-0.188
		c0.002-0.216,0.104-0.429,0.172-0.66c0.248,0.113,0.396,0.181,0.546,0.25C310.505,488.555,310.424,488.774,310.289,488.95
		 M310.832,515.931c0.384-0.976,0.594-1.505,0.799-2.021c0.354,0.11,0.608,0.11,0.671,0.221
		C312.888,515.137,312.52,515.645,310.832,515.931 M321.012,447.926c-0.079,0.012-0.191-0.239-0.29-0.371
		c0.188-0.127,0.367-0.277,0.571-0.36c0.039-0.017,0.188,0.242,0.348,0.462C321.419,447.76,321.223,447.899,321.012,447.926
		 M323.625,500.094c-0.145,0.021-0.306,0.039-0.465,0.062c-0.005-0.223-0.01-0.446-0.014-0.667c0.16,0.038,0.376,0.031,0.461,0.136
		C323.688,499.717,323.625,499.93,323.625,500.094 M323.412,485.437c-0.129,0.014-0.276-0.153-0.418-0.241
		c0.14-0.159,0.277-0.318,0.416-0.478c0.112,0.127,0.222,0.254,0.33,0.381C323.632,485.219,323.531,485.424,323.412,485.437
		 M396.898,277.096c0.079-0.049,0.701,0.435,0.669,0.596c-0.068,0.365-0.391,0.682-0.743,1.221
		c-0.359-0.452-0.771-0.782-0.715-0.933C396.245,277.626,396.569,277.305,396.898,277.096 M389.376,272.152
		c0.136,0.027,0.266,0.092,0.396,0.144c-0.074,0.127-0.147,0.253-0.222,0.38c-0.1-0.108-0.214-0.207-0.292-0.33
		C389.241,272.315,389.35,272.147,389.376,272.152 M388.106,332.225c0.138,0.086,0.273,0.174,0.412,0.26
		c-0.135,0.159-0.27,0.317-0.405,0.476c-0.107-0.125-0.291-0.247-0.3-0.376C387.808,332.471,388.002,332.346,388.106,332.225
		 M386.254,265.78c0.391,1.302,0.606,2.02,0.864,2.884C384.887,268.243,384.855,268.172,386.254,265.78 M383.864,301.078
		c-1.456,1.046-1.971,0.674-2.548-0.902C382.33,300.536,382.905,300.738,383.864,301.078 M379.299,265.852
		c0.092,0.115,0.186,0.229,0.277,0.343c-0.127,0.076-0.25,0.159-0.385,0.213c-0.021,0.008-0.15-0.148-0.134-0.186
		C379.116,266.088,379.215,265.973,379.299,265.852 M376.979,287.057c0.253,0.78-0.036,1.801-0.298,2.661
		c-0.154,0.509-0.688,0.904-1.192,1.525c-0.548-1.314-0.983-2.294-1.365-3.294c-0.323-0.853,0.061-1.652,0.842-1.718
		C375.644,286.172,376.826,286.587,376.979,287.057 M374.618,280.666c0.138,0.026,0.269,0.092,0.403,0.144
		c-0.075,0.129-0.15,0.256-0.226,0.384c-0.101-0.109-0.216-0.209-0.294-0.333C374.482,280.83,374.591,280.66,374.618,280.666
		 M373.383,268.524c0.25,0.031,0.482,0.177,1.082,0.421c-0.828,0.315-1.112,0.524-1.256,0.452c-0.162-0.081-0.231-0.413-0.259-0.645
		C372.942,268.687,373.244,268.505,373.383,268.524 M373.366,277.103c0.11-0.014,0.247,0.164,0.371,0.256
		c-0.139,0.184-0.267,0.38-0.43,0.54c-0.02,0.018-0.234-0.167-0.713-0.511C372.899,277.267,373.126,277.136,373.366,277.103
		 M367.979,356.638c0.076,0.124,0.155,0.25,0.23,0.375c-0.129,0.056-0.257,0.123-0.395,0.157c-0.023,0.006-0.133-0.161-0.114-0.195
		C367.772,356.85,367.884,356.748,367.979,356.638 M364.833,308.233c0.21,0.093,0.369,0.302,0.666,0.569
		c-0.365,0.161-0.639,0.384-0.783,0.319c-0.166-0.071-0.257-0.399-0.29-0.629C364.415,308.421,364.745,308.194,364.833,308.233
		 M361.847,302.745c0.237,0.225,0.474,0.449,0.851,0.806c-0.401,0.184-0.665,0.402-0.794,0.338
		c-0.207-0.098-0.419-0.371-0.446-0.592C361.438,303.131,361.705,302.931,361.847,302.745 M361.441,396.906
		c0.139,0.088,0.275,0.175,0.413,0.263c-0.135,0.158-0.271,0.318-0.404,0.478c-0.109-0.125-0.295-0.247-0.302-0.379
		C361.14,397.153,361.336,397.027,361.441,396.906 M361.322,437.175c0.245,0.044,0.489,0.088,0.733,0.129
		c-0.123,0.563-0.244,1.127-0.434,1.998C360.445,438.299,360.743,437.73,361.322,437.175 M361.814,467.259
		c-0.368,0.13-0.602,0.255-0.845,0.279c-0.125,0.017-0.271-0.145-0.407-0.226c0.136-0.185,0.255-0.39,0.423-0.538
		C361.023,466.741,361.243,466.917,361.814,467.259 M360.372,284.667c0.061,0.319,0.121,0.639,0.181,0.958
		c-0.517,0.024-1.031,0.062-1.549,0.051c-0.049-0.002-0.148-0.444-0.13-0.452C359.367,285.02,359.872,284.846,360.372,284.667
		 M357.547,291.742c1.068,0.44,1.853,0.763,2.635,1.086c0.073,0.282,0.144,0.565,0.215,0.847c-0.594,0.404-1.345,1.263-1.754,1.124
		C357.507,294.414,357.507,293.273,357.547,291.742 M348.251,419.386c0.01-0.029,0.212-0.041,0.229-0.009
		c0.069,0.123,0.097,0.27,0.14,0.406c-0.152,0.012-0.302,0.021-0.453,0.03C348.191,419.67,348.202,419.523,348.251,419.386
		 M338.345,453.743c0.184,0.141,0.368,0.281,0.547,0.417c-0.147,0.245-0.239,0.394-0.331,0.543
		c-0.162-0.171-0.373-0.318-0.466-0.521C338.056,454.091,338.254,453.892,338.345,453.743 M337.359,451.074
		c0.12-0.007,0.249,0.166,0.374,0.259c-0.173,0.154-0.349,0.309-0.538,0.478c-0.125-0.222-0.296-0.413-0.26-0.474
		C337.021,451.206,337.208,451.081,337.359,451.074 M333.136,455.975c0.129,0.176,0.2,0.399,0.293,0.604
		c-0.153,0.061-0.306,0.123-0.562,0.222c-0.058-0.227-0.152-0.443-0.146-0.655C332.724,456.079,333.112,455.94,333.136,455.975
		 M330.845,445.33c1.236,1.147,1.284,1.817,0,2.814V445.33z M329.461,438.478c0.267,0.173,0.751,0.343,0.756,0.521
		c0.004,0.384-0.238,0.772-0.52,1.541c-0.385-0.617-0.69-0.888-0.685-1.15C329.02,439.082,329.298,438.782,329.461,438.478
		 M327.035,463.857c0.12,0.316,0.263,0.562,0.287,0.814c0.013,0.128-0.253,0.404-0.28,0.391c-0.218-0.109-0.407-0.272-0.605-0.418
		C326.542,464.506,326.646,464.367,327.035,463.857 M327.701,488.377c-0.192-0.118-0.386-0.23-0.579-0.349
		c0.083-0.141,0.178-0.401,0.252-0.397c0.21,0.017,0.41,0.14,0.635,0.229C327.869,488.095,327.785,488.237,327.701,488.377
		 M330.196,506.921c-0.459-0.583-0.795-0.866-0.914-1.227c-0.048-0.143,0.42-0.656,0.591-0.625c0.289,0.05,0.661,0.35,0.751,0.625
		C330.7,505.937,330.434,506.289,330.196,506.921 M330.824,478.905c0.307,1.154,0.479,1.806,0.677,2.545
		C329.468,481.159,329.468,481.159,330.824,478.905 M340.435,486c-0.129-0.187-0.275-0.364-0.364-0.57
		c-0.014-0.03,0.247-0.18,0.466-0.337c0.106,0.217,0.245,0.413,0.273,0.621C340.82,485.789,340.567,485.903,340.435,486
		 M354.483,459.386c-0.034,0.05-3.471,4.835-8.154,9.108c-4.058,3.701-9.426,7.661-9.461,7.688c-1.918,1.371-3.681,2.065-5.24,2.065
		h-0.001c-1.51,0-2.881-0.648-4.191-1.98c-1.221-1.244-1.887-2.891-1.872-4.634c0.016-1.71,0.683-3.316,1.883-4.529
		c0.847-0.644,6.871-5.241,9.657-7.856c2.92-2.742,8.476-8.879,8.644-9.071c1.308-1.285,2.864-1.994,4.382-1.994
		c1.452,0,2.844,0.635,4.02,1.836C356.888,452.805,356.28,456.749,354.483,459.386 M356.206,415.642
		c-0.134-0.037-0.225-0.23-0.335-0.358c0.188-0.104,0.376-0.21,0.566-0.313c0.061,0.155,0.121,0.309,0.182,0.464
		C356.478,415.51,356.317,415.669,356.206,415.642 M357.691,301.914c1.124,1.042,1.398,1.96,0.715,3.105
		C356.465,303.978,356.441,303.888,357.691,301.914 M358.12,399.417c0.105,0.219,0.245,0.412,0.274,0.62
		c0.01,0.077-0.242,0.188-0.376,0.286c-0.126-0.188-0.274-0.363-0.363-0.567C357.642,399.726,357.901,399.576,358.12,399.417
		 M357.554,355.24c-0.207-0.192-0.33-0.307-0.455-0.422c0.167-0.176,0.331-0.353,0.495-0.531c0.124,0.115,0.369,0.273,0.348,0.339
		C357.868,354.844,357.698,355.028,357.554,355.24 M357.385,486.094l-0.425-0.229c0.193-0.358,0.387-0.717,0.58-1.071
		c0.141,0.073,0.28,0.149,0.42,0.226C357.769,485.378,357.576,485.737,357.385,486.094 M357.991,479.724
		c0.187,0.736,0.372,1.474,0.603,2.383C356.647,481.417,356.647,481.417,357.991,479.724 M359.247,477.683
		c-0.216-0.105-0.405-0.268-0.603-0.41c0.102-0.14,0.203-0.277,0.601-0.815c0.118,0.331,0.255,0.579,0.279,0.838
		C359.535,477.42,359.275,477.697,359.247,477.683 M359.171,327.293c-0.109-0.127-0.221-0.255-0.327-0.383
		c0.193-0.102,0.388-0.205,0.581-0.307c0.059,0.157,0.186,0.334,0.15,0.465C359.544,327.173,359.314,327.22,359.171,327.293
		 M359.316,321.605c0.087-0.287,0.344-0.523,0.532-0.78c0.197,0.149,0.395,0.299,0.759,0.575c-0.319,0.291-0.521,0.562-0.788,0.675
		C359.723,322.115,359.282,321.71,359.316,321.605 M362.801,471.725c-0.816,0.772-1.594,0.709-2.476-0.397
		c0.981-0.802,1.725-1.357,2.563-0.354C363.005,471.114,362.948,471.586,362.801,471.725 M363.888,417.399
		c-0.289,0.007-0.576,0.016-0.862,0.022c-0.435-1.278-0.868-2.555-1.315-3.875c0.443-1.041,1.344-1.518,2.224-0.889
		c0.519,0.368,0.759,1.44,0.729,2.178C364.628,415.698,364.163,416.544,363.888,417.399 M364.391,407.718l-0.394-0.493
		c0.142-0.081,0.28-0.166,0.422-0.248c0.103,0.124,0.293,0.257,0.282,0.369C364.689,407.478,364.502,407.595,364.391,407.718
		 M364.236,339.123c-0.176-0.166-0.518-0.357-0.497-0.494c0.046-0.304,0.271-0.58,0.51-1.028c0.294,0.363,0.607,0.609,0.565,0.726
		C364.706,338.623,364.439,338.861,364.236,339.123 M365.288,315.552c-0.224-0.047-0.426-0.198-0.636-0.309
		c0.105-0.126,0.213-0.36,0.313-0.358c0.225,0.008,0.446,0.134,0.707,0.225C365.494,315.323,365.364,315.569,365.288,315.552
		 M365.564,403.871c-0.008-0.122,0.234-0.379,0.272-0.363c0.201,0.086,0.374,0.239,0.557,0.37c-0.101,0.129-0.199,0.258-0.592,0.764
		C365.702,404.341,365.578,404.11,365.564,403.871 M367.094,466.902c-0.107,0.042-0.553-0.362-0.52-0.462
		c0.092-0.295,0.345-0.537,0.535-0.801c0.203,0.149,0.406,0.3,0.785,0.577C367.571,466.511,367.366,466.792,367.094,466.902
		 M370.117,452.47c-0.155-0.286-0.392-0.524-0.35-0.694c0.052-0.196,0.348-0.331,0.536-0.492c0.178,0.242,0.356,0.485,0.534,0.727
		C370.627,452.145,370.418,452.279,370.117,452.47 M371.532,472.951c-0.025,0.002-0.07-0.457-0.104-0.704
		c0.516-0.054,1.027-0.108,1.543-0.164c0.025,0.24,0.053,0.478,0.079,0.719C372.544,472.863,372.04,472.934,371.532,472.951
		 M378.499,431.105l-0.479-0.405c0.125-0.111,0.247-0.296,0.378-0.305c0.113-0.007,0.241,0.189,0.36,0.295
		C378.674,430.829,378.586,430.967,378.499,431.105 M380.45,419.863c-0.15-0.13-0.301-0.264-0.453-0.394
		c0.129-0.115,0.258-0.226,0.386-0.339c0.117,0.104,0.326,0.21,0.325,0.314C380.708,419.585,380.544,419.724,380.45,419.863
		 M382.067,449.61c-0.101-0.139-0.315-0.323-0.279-0.406c0.085-0.208,0.282-0.367,0.435-0.548c0.101,0.14,0.202,0.28,0.365,0.504
		C382.418,449.305,382.242,449.458,382.067,449.61 M383.617,453.108c-0.116,0.007-0.242-0.189-0.364-0.296
		c0.088-0.142,0.174-0.277,0.263-0.418c0.161,0.137,0.321,0.272,0.481,0.409C383.872,452.914,383.751,453.101,383.617,453.108
		 M386.665,395.439c-0.075-0.047-0.149-0.093-0.225-0.14c0.062,0.631,0.075,1.26,0.01,1.869c-0.011,0.06-0.795,5.881-2.938,11.868
		c-1.851,5.17-4.736,11.181-4.756,11.221c-1.634,3.278-3.618,4.871-6.064,4.871c-0.693,0-1.442-0.124-2.227-0.374
		c-1.664-0.526-3.023-1.667-3.826-3.216c-0.787-1.52-0.95-3.248-0.459-4.883c0.447-0.967,3.614-7.85,4.852-11.465
		c1.289-3.784,3.377-11.692,3.442-11.948c0.894-2.821,2.9-4.507,5.371-4.507c0.618,0,1.264,0.104,1.919,0.312
		c2.165,0.686,3.493,2.253,4.176,4.063c0.111-0.064,0.219-0.129,0.308-0.193c0.233,0.468,0.562,0.916,0.67,1.411
		C386.992,394.664,386.76,395.065,386.665,395.439 M373.134,395.42c0.024-0.147,0.035-0.298,0.083-0.436
		c0.012-0.031,0.218-0.042,0.234-0.009c0.071,0.125,0.1,0.273,0.142,0.414C373.44,395.4,373.286,395.409,373.134,395.42
		 M388.654,433.34c-0.111,0.017-0.247-0.161-0.37-0.254c0.137-0.185,0.264-0.381,0.427-0.538c0.02-0.021,0.234,0.167,0.714,0.51
		C389.12,433.177,388.894,433.308,388.654,433.34 M384.743,357.385c-0.43,0.084-0.868,0.13-1.303,0.13
		c-3.058,0-5.72-2.155-6.37-5.139c-0.077-1.061-0.641-8.619-1.312-12.381c-0.703-3.927-2.808-12.662-2.883-12.97
		c-0.349-1.722-0.144-3.134,0.605-4.196c0.742-1.052,2.07-1.797,3.842-2.155c0.445-0.09,0.89-0.135,1.326-0.135
		c2.815,0,5.454,1.964,6.708,4.97c0.021,0.053,2.158,5.543,3.183,11.802c0.888,5.42,1.275,12.076,1.279,12.122
		C390.086,355.585,387.05,356.917,384.743,357.385 M390.465,293.284c-0.018-0.055,0.268-0.292,0.347-0.263
		c0.206,0.074,0.372,0.251,0.689,0.483c-0.327,0.172-0.572,0.398-0.699,0.344C390.634,293.774,390.526,293.497,390.465,293.284
		 M391.257,405.188c0.021-0.195,0.314-0.5,0.498-0.509c0.19-0.009,0.521,0.258,0.557,0.446c0.029,0.167-0.263,0.394-0.659,0.924
		C391.461,405.663,391.235,405.414,391.257,405.188 M392.33,441.183c-0.023,0.017-0.202-0.085-0.197-0.117
		c0.02-0.152,0.076-0.304,0.122-0.453c0.123,0.08,0.248,0.161,0.371,0.242C392.53,440.965,392.441,441.088,392.33,441.183
		 M392.853,314.315c-0.207-0.094-0.425-0.169-0.606-0.299c-0.027-0.021,0.115-0.409,0.182-0.41c0.213-0.003,0.429,0.097,0.659,0.161
		C392.98,314.016,392.916,314.166,392.853,314.315 M397.032,291.82c-0.142-0.088-0.415-0.198-0.405-0.259
		c0.035-0.202,0.173-0.385,0.271-0.576c0.111,0.127,0.223,0.253,0.333,0.38C397.165,291.517,397.1,291.667,397.032,291.82
		 M396.402,289.035c-0.156-0.236-0.313-0.47-0.469-0.704c0.621-0.514,1.244-1.029,1.867-1.543
		C397.938,288.189,397.598,289.05,396.402,289.035 M397.488,353.206c-0.005-0.222-0.01-0.446-0.013-0.668
		c0.158,0.041,0.374,0.034,0.462,0.136c0.076,0.094,0.016,0.305,0.016,0.468C397.808,353.162,397.647,353.183,397.488,353.206
		 M398.143,404.65c-0.101-0.303-0.224-0.538-0.238-0.777c-0.007-0.125,0.234-0.384,0.274-0.367c0.204,0.086,0.377,0.239,0.562,0.372
		C398.64,404.006,398.539,404.137,398.143,404.65 M399.088,303.162c-0.211-0.121-0.527-0.199-0.605-0.378
		c-0.069-0.158,0.127-0.432,0.206-0.656c0.202,0.157,0.405,0.312,0.582,0.45C399.192,302.828,399.141,302.996,399.088,303.162
		 M399.008,299.776c0.297-0.38,0.592-0.761,0.887-1.141c0.277,0.277,0.555,0.555,0.832,0.831c-0.337,0.319-0.67,0.636-1.007,0.954
		C399.482,300.206,399.244,299.99,399.008,299.776 M400.983,312.228c-1.552-2.057-1.552-2.057,0-3.485V312.228z M401.414,300.181
		c0.086-0.137,0.174-0.274,0.261-0.409c0.161,0.133,0.319,0.268,0.476,0.402c-0.123,0.108-0.245,0.293-0.376,0.3
		C401.66,300.482,401.536,300.288,401.414,300.181 M402.226,334.521c-0.133-0.011-0.252-0.197-0.375-0.309
		c0.162-0.132,0.321-0.266,0.482-0.399c0.083,0.14,0.17,0.279,0.253,0.418C402.466,334.336,402.336,334.531,402.226,334.521
		 M403.657,312.961c-0.069-0.134-0.154-0.261-0.194-0.403c-0.014-0.042,0.137-0.183,0.152-0.174
		c0.129,0.076,0.248,0.175,0.368,0.269C403.874,312.755,403.766,312.858,403.657,312.961 M402.285,277.327
		c1.055-0.831,1.736-1.372,2.42-1.912C404.869,277.075,404.079,277.508,402.285,277.327 M408.895,335.921
		c0.073-0.047,0.28,0.12,0.427,0.188c-0.109,0.188-0.218,0.376-0.323,0.557c-0.241-0.115-0.389-0.184-0.535-0.252
		C408.602,336.243,408.718,336.033,408.895,335.921 M406.773,388.722c0.125,0.071,0.229,0.184,0.34,0.28
		c-0.126,0.077-0.252,0.154-0.377,0.232c-0.059-0.131-0.124-0.26-0.16-0.397C406.571,388.813,406.74,388.702,406.773,388.722
		 M405.935,323.114c-0.106,0.1-0.212,0.198-0.32,0.298c-0.345-0.329-0.688-0.657-1.034-0.985c0.154-0.126,0.309-0.255,0.462-0.381
		C405.341,322.402,405.638,322.758,405.935,323.114 M407.696,274.363c0.077,0.126,0.156,0.253,0.233,0.379
		c-0.132,0.058-0.262,0.125-0.4,0.159c-0.023,0.006-0.136-0.164-0.116-0.197C407.487,274.577,407.6,274.476,407.696,274.363
		 M405.945,262.826c-0.039-0.091,0.361-0.53,0.467-0.497c0.285,0.084,0.521,0.337,0.776,0.525c-0.147,0.196-0.296,0.392-0.566,0.752
		C406.331,263.292,406.062,263.092,405.945,262.826 M407.368,286.454c-0.158-0.184-0.454-0.378-0.44-0.547
		c0.017-0.194,0.309-0.364,0.535-0.604c0.246,0.21,0.434,0.368,0.621,0.527C407.847,286.037,407.607,286.247,407.368,286.454
		 M409.676,277.979c-0.711,0.569-1.448,1.104-2.522,1.913c0.003-1.637,1.182-3.696,2.036-3.972c0.229-0.072,0.701-0.006,0.754,0.122
		c0.163,0.394,0.245,0.854,0.219,1.279C410.148,277.552,409.888,277.809,409.676,277.979 M410.668,310.929
		c-0.031-0.139-0.078-0.276-0.084-0.417c-0.001-0.032,0.181-0.12,0.207-0.097c0.115,0.096,0.199,0.223,0.296,0.34
		C410.947,310.813,410.807,310.87,410.668,310.929 M423.175,299.496c-0.292-0.401-0.584-0.799-0.876-1.2
		c0.007-0.005,0.012-0.01,0.019-0.015c-0.304-0.256-0.607-0.512-0.911-0.767c0.151-0.131,0.302-0.263,0.453-0.393
		c0.221,0.331,0.438,0.661,0.657,0.992c0.01-0.009,0.021-0.019,0.031-0.029c0.344,0.355,0.688,0.71,1.03,1.063
		C423.444,299.264,423.31,299.379,423.175,299.496"/>
	<path fill="#FFFFFF" d="M308.581,534.442c-12.291-4.046-39.366-3.446-47.171-22.853c-1.367-3.913-1.918-8.406-2.148-13.566
		c-0.131-2.955-0.131-5.91-0.042-9.062c0.92-32.631,16.187-41.607,19.112-42.64c32.788-11.563,56.282-42.803,56.282-79.599
		c0-15.456-2.244-26.223-5.394-34.659c-0.105-0.052-0.207-0.109-0.286-0.189c-0.181-0.184-0.13-0.6-0.182-0.913
		c0.012-0.007,0.024-0.014,0.041-0.021c-1.463-3.731-3.097-7.009-4.783-10.045c-0.159,0.065-0.311,0.123-0.46,0.132
		c-0.121,0.008-0.383-0.244-0.364-0.282c0.09-0.204,0.248-0.377,0.383-0.561c0.024,0.019,0.051,0.04,0.076,0.061
		c-0.646-1.147-1.299-2.265-1.948-3.358c-0.333-0.562-1.059-1.288-1.98-1.924c-0.024,0.273-0.054,0.546-0.079,0.82
		c-0.275-0.042-0.551-0.083-0.828-0.125c0.081-0.375,0.161-0.751,0.241-1.125c-1.207-0.688-2.651-1.154-4.061-0.939
		c-1.96,0.296-5.266,0.601-9.446,0.895c0.326,1.024,0.64,1.987,0.972,3.027c-1.513-0.692-2.354-1.77-2.372-2.93
		c-14.309,0.953-37.568,1.76-53.918,1.76c-21.888,0-55.491-1.368-64.351-2.69c-3.142-0.468-6.249,1.769-7.028,3.077
		c-6.433,10.8-13.008,23.524-13.008,49.989c0,13.457,3.156,26.165,8.747,37.445c-0.596-2.782,2.031-3.344,3.075-4.991
		c1.328,2.576,0.838,3.482-2.914,5.312c10.041,20.043,27.813,35.525,49.419,42.524c2.273,0.736,16.931,12.827,17.068,41.947
		c0.015,3.04,0.089,6.144-0.042,9.064c-0.233,5.157-0.782,9.65-2.149,13.563c-7.806,19.408-34.881,18.809-47.173,22.856
		c-4.163,1.368-2.592,3.896,0.055,4.524c0.964,0.229,4.088,0.983,9.45,1.847c-0.083-0.455-0.008-0.953,0.247-1.521
		c1.376,0.772,1.762,1.029,1.474,1.791c5.536,0.84,13.107,1.741,22.81,2.348c0.037-0.058,0.106-0.127,0.117-0.122
		c0.067,0.039,0.126,0.093,0.189,0.138c6.921,0.428,14.914,0.707,24.012,0.707c36.132,0,55.278-4.649,57.915-5.275
		C310.791,538.254,312.746,535.814,308.581,534.442 M330.068,351.888c0.211,0.014,0.413,0.138,0.639,0.226
		c-0.14,0.232-0.272,0.502-0.304,0.491c-0.207-0.075-0.395-0.208-0.587-0.325C329.9,352.142,329.994,351.883,330.068,351.888
		 M329.211,364.658c0.14,0.007,0.277,0.057,0.417,0.093c-0.063,0.139-0.125,0.278-0.186,0.416c-0.115-0.099-0.24-0.188-0.334-0.303
		C329.087,364.837,329.179,364.655,329.211,364.658 M329.193,384.814c0.184,0.27,0.439,0.52,0.521,0.816
		c0.037,0.134-0.27,0.36-0.564,0.724c-0.22-0.469-0.431-0.758-0.465-1.065C328.672,385.151,329.014,384.973,329.193,384.814
		 M328.64,358.399c-0.747-1.21-1.225-1.989-1.831-2.969C328.763,355.789,328.763,355.789,328.64,358.399 M326.579,341.637
		c0.219,0.042,0.476,0.272,0.563,0.484c0.05,0.125-0.202,0.371-0.431,0.747c-0.319-0.396-0.523-0.646-0.73-0.897
		C326.184,341.849,326.406,341.605,326.579,341.637 M325.335,356.764c0.19,0.104,0.35,0.423,0.358,0.655
		c0.008,0.236-0.184,0.479-0.518,1.25c-0.312-1.051-0.46-1.356-0.455-1.657C324.721,356.915,325.203,356.692,325.335,356.764
		 M325.175,371.254c0.084,0.143,0.17,0.284,0.251,0.428c-0.122,0.104-0.257,0.297-0.37,0.287c-0.134-0.014-0.251-0.205-0.376-0.318
		C324.845,371.519,325.011,371.387,325.175,371.254 M320.684,404.348c-0.139-0.042-0.291-0.204-0.327-0.345
		c-0.025-0.105,0.119-0.257,0.186-0.388c0.18,0.133,0.359,0.266,0.561,0.413C320.908,404.185,320.762,404.374,320.684,404.348
		 M321.008,363.514c-0.065,0.028-0.24-0.211-0.366-0.327c0.167-0.178,0.321-0.37,0.513-0.516c0.025-0.018,0.236,0.214,0.445,0.406
		C321.395,363.238,321.222,363.423,321.008,363.514 M322.937,339.366c-2.272-0.743-3.571-1.842-4.306-3.589
		C320.629,336.098,321.86,337.255,322.937,339.366 M318.322,350.97c0.129,0.102,0.261,0.203,0.721,0.564
		c-0.281,0.106-0.504,0.242-0.737,0.262c-0.122,0.011-0.383-0.239-0.369-0.271C318.032,351.324,318.188,351.152,318.322,350.97
		 M318.172,362.178c0.281,0.253,0.597,0.407,0.615,0.592c0.021,0.204-0.229,0.436-0.362,0.654c-0.208-0.141-0.541-0.251-0.589-0.434
		C317.787,362.797,318.011,362.534,318.172,362.178 M314.784,403.724c0.132,0.164,0.267,0.327,0.397,0.492
		c-0.143,0.084-0.283,0.168-0.426,0.252c-0.104-0.124-0.299-0.257-0.284-0.368C314.484,403.967,314.672,403.848,314.784,403.724
		 M310.585,325.878c0.104,0.03,0.151,0.259,0.225,0.401c-0.128,0.11-0.256,0.22-0.384,0.329c-0.102-0.192-0.202-0.386-0.304-0.581
		C310.279,325.97,310.453,325.842,310.585,325.878 M307.03,323.786c0.118,0.535,0.235,1.069,0.354,1.605
		c-0.187,0.055-0.375,0.11-0.562,0.167c-0.188-0.533-0.375-1.064-0.565-1.595C306.516,323.903,306.774,323.843,307.03,323.786
		 M273.812,440.064c1.06-1.393,1.835-1.01,2.565,0H273.812z M280.079,425.872c-0.115-0.099-0.241-0.187-0.333-0.302
		c-0.023-0.025,0.069-0.208,0.104-0.206c0.139,0.007,0.274,0.056,0.414,0.093C280.202,425.594,280.141,425.734,280.079,425.872
		 M284.238,371.661c-0.082-0.121-0.173-0.239-0.239-0.368c-0.007-0.014,0.138-0.151,0.181-0.136c0.135,0.044,0.255,0.134,0.38,0.207
		C284.453,371.464,284.346,371.562,284.238,371.661 M285.936,403.24c-0.178-0.164-0.523-0.357-0.504-0.491
		c0.049-0.308,0.277-0.584,0.518-1.03c0.298,0.362,0.615,0.61,0.57,0.727C286.41,402.741,286.141,402.979,285.936,403.24
		 M293.92,390.306c-0.182-0.164-0.295-0.266-0.405-0.364c0.153-0.167,0.296-0.345,0.471-0.484c0.019-0.018,0.324,0.23,0.305,0.279
		C294.21,389.937,294.056,390.111,293.92,390.306 M296.616,393.584c-0.064,0.027-0.238-0.207-0.362-0.323
		c0.166-0.177,0.317-0.369,0.508-0.513c0.025-0.018,0.236,0.211,0.442,0.4C297.001,393.31,296.828,393.495,296.616,393.584
		 M300.513,417.323c-0.315-0.271-0.555-0.478-0.797-0.686c0.201-0.227,0.436-0.662,0.596-0.638c0.271,0.044,0.543,0.35,0.711,0.612
		C301.069,416.683,300.76,416.989,300.513,417.323 M304.314,409.964c-0.158-0.131-0.319-0.268-0.478-0.402
		c0.125-0.108,0.249-0.219,0.374-0.327c0.119,0.106,0.321,0.201,0.335,0.318C304.562,409.681,304.4,409.829,304.314,409.964
		 M304.035,320.828c0.204-0.002,0.409,0.271,0.685,0.476c-0.192,0.265-0.338,0.466-0.482,0.667
		c-0.236-0.213-0.471-0.425-0.707-0.639C303.699,321.153,303.867,320.832,304.035,320.828 M302.043,352.668
		c0.124,0.079,0.248,0.16,0.369,0.24c-0.097,0.111-0.184,0.231-0.295,0.324c-0.021,0.017-0.198-0.084-0.193-0.115
		C301.944,352.964,302,352.817,302.043,352.668 M301.428,318.11c0.138,0.029,0.267,0.092,0.4,0.144
		c-0.073,0.127-0.149,0.255-0.224,0.382c-0.1-0.108-0.215-0.208-0.291-0.332C301.293,318.274,301.401,318.105,301.428,318.11
		 M300.219,338.347c0.327,0.256,0.643,0.542,0.881,0.877c0.038,0.052-0.296,0.375-0.61,0.757c-0.315-0.461-0.588-0.784-0.753-1.155
		C299.702,338.746,300.192,338.326,300.219,338.347 M299.488,365.072c0.2,0.148,0.402,0.298,0.769,0.568
		c-0.314,0.289-0.518,0.56-0.789,0.68c-0.091,0.038-0.529-0.357-0.499-0.466C299.052,365.569,299.304,365.33,299.488,365.072
		 M298.084,371.96c0.13,0.075,0.243,0.174,0.364,0.266c-0.108,0.102-0.216,0.203-0.32,0.305c-0.067-0.132-0.152-0.258-0.191-0.397
		C297.923,372.089,298.07,371.952,298.084,371.96 M297.807,331.9c-0.364,0.38-0.727,0.759-1.092,1.139
		c-0.159-0.188-0.317-0.376-0.476-0.563c0.41-0.319,0.817-0.637,1.229-0.955C297.579,331.647,297.692,331.773,297.807,331.9
		 M294.263,315.77c0.592,0.245,1.079,0.739,1.993,1.44c-0.938,0.557-1.522,1.166-1.896,1.057c-0.442-0.13-0.915-0.85-0.979-1.363
		C293.338,316.544,294.125,315.713,294.263,315.77 M292.785,329.797c0.132,0.197,0.285,0.37,0.366,0.573
		c0.021,0.049-0.289,0.292-0.306,0.278c-0.174-0.143-0.318-0.323-0.469-0.492C292.489,330.057,292.604,329.958,292.785,329.797
		 M286.977,322.367c0.011-0.029,0.209-0.04,0.225-0.008c0.068,0.121,0.095,0.264,0.139,0.398c-0.149,0.01-0.298,0.019-0.446,0.028
		C286.919,322.643,286.928,322.498,286.977,322.367 M287.211,357.4c-3.806-1.379-5.134-2.594-4.49-5.165
		C286.028,351.932,288.072,354.172,287.211,357.4 M282.777,322.368c0.162,0.317,0.418,0.646,0.354,0.733
		c-0.18,0.239-0.497,0.375-0.756,0.553c-0.087-0.24-0.28-0.505-0.23-0.711C282.196,322.744,282.496,322.608,282.777,322.368
		 M279.741,360.105c0.253,0.225,0.505,0.449,0.904,0.807c-0.406,0.348-0.664,0.567-0.918,0.785
		c-0.213-0.268-0.593-0.537-0.591-0.803C279.139,360.629,279.524,360.368,279.741,360.105 M277.804,342.083
		c0.536,0.982,0.919,1.687,1.505,2.763C277.055,344.09,277.055,344.09,277.804,342.083 M276.795,325.836
		c-0.454,0.201-0.741,0.418-1.034,0.423c-0.163,0.002-0.334-0.346-0.501-0.537c0.262-0.188,0.502-0.453,0.794-0.528
		C276.188,325.16,276.416,325.496,276.795,325.836 M275.827,322.319c0.107,0.167,0.215,0.333,0.32,0.498
		c-0.518,0.389-1.032,0.777-1.551,1.166c-0.161-0.22-0.322-0.441-0.481-0.662C274.686,322.988,275.256,322.654,275.827,322.319
		 M273.49,392.435c0.214,0.269,0.569,0.52,0.602,0.806c0.028,0.274-0.279,0.585-0.606,1.191c-0.325-0.606-0.63-0.922-0.598-1.196
		C272.919,392.95,273.277,392.7,273.49,392.435 M271.927,336.275c0.035-0.014,0.187,0.242,0.349,0.458
		c-0.219,0.107-0.414,0.246-0.622,0.276c-0.076,0.012-0.191-0.237-0.288-0.366C271.548,336.514,271.725,336.363,271.927,336.275
		 M270.557,398.04c0.197,0.299,0.394,0.598,0.589,0.897l-0.358,0.232c-0.189-0.268-0.394-0.526-0.551-0.812
		C270.216,398.321,270.444,398.149,270.557,398.04 M267.858,366.683c0.197,0.106,0.333,0.328,0.603,0.619
		c-0.374,0.127-0.674,0.328-0.806,0.249c-0.16-0.097-0.217-0.425-0.232-0.659C267.42,366.825,267.768,366.635,267.858,366.683
		 M264.422,324.31c0.129,0.101,0.259,0.203,0.721,0.563c-0.281,0.108-0.505,0.242-0.739,0.263c-0.118,0.01-0.38-0.24-0.365-0.272
		C264.133,324.663,264.287,324.491,264.422,324.31 M261.718,329.082c0.284,0.08,0.52,0.33,0.775,0.512
		c-0.146,0.198-0.293,0.396-0.564,0.76c-0.287-0.312-0.554-0.513-0.674-0.778C261.217,329.486,261.608,329.051,261.718,329.082
		 M166.651,366.64c-0.101-0.305-0.225-0.542-0.239-0.784c-0.007-0.124,0.237-0.384,0.275-0.368c0.205,0.087,0.38,0.242,0.565,0.374
		C167.15,365.993,167.048,366.125,166.651,366.64 M170.181,359.639c-0.204-0.341-0.455-0.572-0.427-0.766
		c0.026-0.194,0.33-0.35,0.512-0.521c0.156,0.2,0.429,0.396,0.434,0.599C170.704,359.141,170.424,359.337,170.181,359.639
		 M173.763,348.8c-0.184-0.137-0.379-0.264-0.536-0.425c-0.02-0.019,0.166-0.235,0.505-0.705c0.117,0.299,0.249,0.524,0.28,0.762
		C174.028,348.54,173.851,348.676,173.763,348.8 M178.262,351.579c0.245-0.17,0.49-0.342,0.734-0.511
		c0.132,0.22,0.265,0.441,0.452,0.754c-0.289,0.147-0.546,0.385-0.708,0.332C178.54,352.087,178.418,351.782,178.262,351.579
		 M179.125,386.419c-0.249-0.163-0.405-0.465-0.598-0.712c0.229-0.104,0.459-0.296,0.684-0.286c0.249,0.008,0.492,0.198,0.951,0.406
		C179.522,386.205,179.213,386.479,179.125,386.419 M181.252,390.086c-0.186-0.108-0.37-0.218-0.556-0.327
		c0.112-0.122,0.209-0.312,0.344-0.346c0.108-0.026,0.264,0.136,0.4,0.216C181.377,389.785,181.314,389.935,181.252,390.086
		 M181.718,344.939c-0.479-1.434,0.256-1.804,1.272-1.916c0.125-0.386,0.25-0.771,0.376-1.157c0.142,0.082,0.283,0.164,0.425,0.247
		c-0.267,0.303-0.533,0.609-0.798,0.912C182.568,343.664,182.143,344.302,181.718,344.939 M184.1,353.3
		c-0.21-0.129-0.434-0.244-0.613-0.406c-0.026-0.024,0.179-0.414,0.241-0.403c0.232,0.037,0.448,0.169,0.682,0.271
		C184.27,353.003,184.186,353.152,184.1,353.3 M186.214,323.241c-0.163-0.14-0.325-0.28-0.487-0.419
		c0.134-0.118,0.27-0.237,0.404-0.355c0.124,0.111,0.344,0.219,0.347,0.334C186.483,322.945,186.31,323.094,186.214,323.241
		 M189.037,406.258c-0.127-0.073-0.254-0.147-0.38-0.223c0.107-0.1,0.207-0.215,0.33-0.291c0.032-0.021,0.2,0.088,0.195,0.115
		C189.154,405.996,189.089,406.128,189.037,406.258 M223.758,319.196c0.128,0.074,0.244,0.172,0.363,0.265
		c-0.108,0.102-0.214,0.202-0.32,0.304c-0.067-0.132-0.152-0.259-0.192-0.398C223.595,319.324,223.743,319.187,223.758,319.196
		 M207.251,331.25c0.047,0.201,0.095,0.403,0.141,0.606c-0.417,0.133-0.834,0.268-1.25,0.401c-0.06-0.15-0.118-0.3-0.179-0.451
		C206.392,331.622,206.821,331.436,207.251,331.25 M200.788,345.118c0.124,0.112,0.25,0.225,0.375,0.337
		c-0.078,0.137-0.133,0.364-0.239,0.391c-0.131,0.034-0.302-0.101-0.457-0.162L200.788,345.118z M192.007,399.306
		c-0.554-1.132-0.367-1.826,0.695-2.492C193.267,397.939,193.06,398.626,192.007,399.306 M195.6,412.895
		c-0.043,0.014-0.256-0.323-0.238-0.345c0.16-0.157,0.357-0.28,0.543-0.413c0.086,0.125,0.172,0.252,0.306,0.448
		C196.005,412.699,195.813,412.833,195.6,412.895 M200.924,375.355c-0.132,0.033-0.306-0.102-0.461-0.164
		c0.107-0.19,0.216-0.381,0.323-0.573c0.126,0.115,0.251,0.227,0.379,0.343C201.085,375.098,201.03,375.326,200.924,375.355
		 M204.581,367.999c-0.101-0.109-0.213-0.208-0.292-0.331c-0.02-0.033,0.089-0.201,0.116-0.196c0.137,0.028,0.268,0.093,0.399,0.146
		C204.73,367.746,204.656,367.872,204.581,367.999 M206.613,355.24c-0.25,0.084-0.678-0.374-1.026-0.588
		c0.328-0.394,0.59-0.913,1.01-1.13c0.234-0.12,0.727,0.262,1.402,0.541C207.378,354.622,207.051,355.097,206.613,355.24
		 M212.968,416.243c1.227-1.069,1.763-0.75,2.778,0.438C214.575,416.496,214.002,416.406,212.968,416.243 M216.143,365.042
		c-0.175-0.159-0.35-0.317-0.588-0.534c0.269-0.253,0.453-0.426,0.641-0.601c0.15,0.181,0.441,0.384,0.417,0.538
		C216.575,364.662,216.311,364.844,216.143,365.042 M220.566,426.465c-0.103-0.287-0.233-0.515-0.25-0.753
		c-0.008-0.12,0.24-0.379,0.278-0.362c0.2,0.091,0.372,0.247,0.553,0.381C221.046,425.858,220.944,425.987,220.566,426.465
		 M223.161,394.067c-0.019,0.007-0.149-0.145-0.132-0.185c0.056-0.131,0.155-0.244,0.238-0.365c0.092,0.113,0.183,0.227,0.273,0.339
		C223.415,393.931,223.293,394.014,223.161,394.067 M221.707,388.074c-0.688-0.431-0.86-1.212-0.008-2.062
		c2.199,1.22,4.44,2.462,6.681,3.705C225.876,390.4,223.737,389.345,221.707,388.074 M226.421,358.248h2.195
		C227.694,359.453,227.694,359.453,226.421,358.248 M226.674,441.848c-0.439-1.176,0.042-1.593,1.058-1.938
		C228.045,441.031,227.705,441.535,226.674,441.848 M228.582,433.322c-0.128,0.012-0.407-0.251-0.393-0.281
		c0.106-0.217,0.27-0.408,0.414-0.609c0.14,0.104,0.28,0.208,0.826,0.611C229.095,433.16,228.843,433.296,228.582,433.322
		 M230.205,398.673c-0.103-0.29-0.233-0.52-0.249-0.757c-0.009-0.123,0.24-0.385,0.278-0.367c0.202,0.091,0.375,0.247,0.559,0.382
		C230.691,398.061,230.587,398.189,230.205,398.673 M230.747,328.065c-0.291,0.958-1.565,1.504-2.569,1.009
		c-1.18-0.581-2.211-1.379-2.324-3.587c1.453,0.104,2.662,0.011,3.759,0.319C230.572,326.079,231.071,326.99,230.747,328.065
		 M232.381,353.91c-0.34-0.159-0.575-0.543-0.853-0.836c0.235-0.221,0.522-0.661,0.694-0.62c0.356,0.086,0.651,0.428,1.173,0.812
		C232.897,353.596,232.535,353.981,232.381,353.91 M231.347,321.983c-0.233-0.166-0.317-0.999-0.122-1.234
		c0.943-1.132,1.737-0.521,2.581,0.321C233.223,322.309,232.446,322.761,231.347,321.983 M234.484,397.11
		c-0.182-0.029-0.319-0.312-0.547-0.56c0.296-0.175,0.602-0.443,0.682-0.388c0.224,0.155,0.354,0.447,0.523,0.685
		C234.92,396.945,234.683,397.143,234.484,397.11 M236.1,459.949l-0.308-0.585c0.157-0.06,0.335-0.187,0.466-0.149
		c0.105,0.027,0.153,0.26,0.225,0.403C236.355,459.726,236.227,459.837,236.1,459.949 M237.737,385.119
		c-0.285-0.048-0.539-0.271-0.806-0.425c0.177-0.185,0.327-0.472,0.537-0.523c0.188-0.049,0.443,0.153,0.772,0.29
		C238.024,384.754,237.847,385.137,237.737,385.119 M239.762,349.843c-0.101-0.108-0.215-0.208-0.293-0.332
		c-0.02-0.031,0.09-0.201,0.117-0.194c0.137,0.027,0.268,0.091,0.4,0.143C239.911,349.587,239.836,349.714,239.762,349.843
		 M195.634,534.376c-0.165-0.074-0.256-0.4-0.288-0.629c-0.01-0.074,0.318-0.297,0.404-0.261c0.209,0.095,0.369,0.302,0.666,0.567
		C196.053,534.216,195.779,534.44,195.634,534.376 M198.146,534.997c-0.209-0.122-0.435-0.232-0.613-0.395
		c-0.028-0.023,0.173-0.415,0.232-0.406c0.233,0.037,0.449,0.167,0.684,0.266C198.313,534.701,198.229,534.849,198.146,534.997
		 M207.766,533.404c-0.208-0.194-0.333-0.312-0.459-0.427c0.167-0.176,0.333-0.355,0.5-0.533c0.125,0.117,0.373,0.274,0.351,0.342
		C208.084,533.004,207.911,533.189,207.766,533.404 M222.832,532.044c-0.046,0.014-0.261-0.324-0.24-0.345
		c0.16-0.159,0.357-0.281,0.544-0.418c0.086,0.125,0.174,0.254,0.308,0.45C223.237,531.846,223.043,531.979,222.832,532.044
		 M228.651,542.846c-0.111,0.014-0.247-0.164-0.371-0.254c0.137-0.183,0.264-0.379,0.427-0.538c0.019-0.021,0.236,0.166,0.711,0.511
		C229.116,542.682,228.89,542.811,228.651,542.846 M243.298,452.384c-0.178-0.344-0.281-0.547-0.386-0.75
		c0.2-0.095,0.393-0.234,0.601-0.264c0.079-0.009,0.298,0.282,0.268,0.372C243.713,451.941,243.528,452.096,243.298,452.384
		 M244.027,426.57c-0.161-0.137-0.319-0.272-0.48-0.409c0.126-0.108,0.248-0.296,0.38-0.303c0.116-0.007,0.242,0.189,0.363,0.295
		C244.202,426.292,244.115,426.43,244.027,426.57 M248.98,387.917c0.033-0.002,0.12,0.182,0.098,0.208
		c-0.096,0.115-0.225,0.202-0.342,0.298c-0.058-0.141-0.116-0.282-0.174-0.42C248.702,387.97,248.84,387.921,248.98,387.917
		 M249.024,453.486c-0.181-0.36-0.418-0.626-0.361-0.777c0.063-0.167,0.391-0.272,0.62-0.317c0.075-0.014,0.315,0.306,0.281,0.394
		C249.48,453,249.279,453.172,249.024,453.486 M256.666,346.429c0.13,0.076,0.245,0.175,0.364,0.267
		c-0.107,0.103-0.214,0.203-0.32,0.305c-0.069-0.131-0.153-0.257-0.192-0.398C256.504,346.561,256.652,346.421,256.666,346.429
		 M256.516,351.18c0.362,0.397,0.722,0.793,1.082,1.191c-0.09,0.13-0.177,0.262-0.27,0.395c-0.35-0.147-0.777-0.218-1.026-0.467
		c-0.182-0.186-0.13-0.602-0.182-0.915L256.516,351.18z M251.006,409.065c0.168-0.143,0.395-0.22,0.598-0.319
		c0.048,0.148,0.097,0.296,0.172,0.528c-0.214,0.072-0.426,0.146-0.64,0.22C251.088,409.346,250.962,409.104,251.006,409.065
		 M250.811,493.775c0.201-0.726,0.399-1.449,0.658-2.391C252.31,492.766,252.31,492.766,250.811,493.775 M251.758,349.042
		c-0.098-0.302-0.221-0.535-0.235-0.773c-0.007-0.122,0.232-0.378,0.274-0.361c0.201,0.084,0.373,0.238,0.557,0.367
		C252.252,348.404,252.153,348.534,251.758,349.042 M253.239,462.391c-0.209-0.069-0.398-0.201-0.593-0.314
		c0.083-0.139,0.174-0.401,0.25-0.397c0.21,0.014,0.413,0.135,0.639,0.223C253.398,462.134,253.271,462.403,253.239,462.391
		 M254.823,382.724c-0.13,0.034-0.302-0.1-0.455-0.16c0.107-0.188,0.214-0.375,0.319-0.564c0.124,0.11,0.25,0.224,0.374,0.336
		C254.985,382.473,254.929,382.7,254.823,382.724 M255.812,501.401c-0.166,0.024-0.381-0.269-0.631-0.467
		c0.226-0.277,0.386-0.476,0.548-0.674c0.215,0.21,0.429,0.422,0.642,0.635C256.188,501.076,256.019,501.369,255.812,501.401
		 M255.699,470.035c-0.174-0.137-0.347-0.272-0.519-0.408c0.28-0.397,0.564-0.792,0.845-1.189c0.126,0.074,0.253,0.152,0.38,0.227
		C256.169,469.123,255.932,469.578,255.699,470.035 M254.943,408.825c0.414-2.009,1.526-1.325,2.383-1.29l0.182,0.671
		C256.755,408.387,256.001,408.569,254.943,408.825 M257.661,401.469c-0.15-0.061-0.304-0.123-0.455-0.183
		c0.108-0.187,0.217-0.374,0.32-0.559c0.125,0.11,0.317,0.205,0.35,0.337C257.9,401.177,257.741,401.333,257.661,401.469
		 M258.336,516.726c-0.323-1.274-0.002-2.062,1.571-2.539C259.646,515.992,259.646,515.992,258.336,516.726 M289.009,531.864
		c-0.858,0.9-1.784,0.699-2.844,0.017c0.669-1.235,1.488-1.676,2.602-1.162C288.992,530.823,289.172,531.693,289.009,531.864"/>
	<path fill="#FFFFFF" d="M219.403,504.106c10.313-15.957,2.437-34.127-9.869-39.856c-3.4-1.584-6.742-3.307-10.019-5.156
		c-0.077,0.271-0.148,0.545-0.228,0.815c-0.214-0.074-0.429-0.145-0.645-0.219c0.126-0.296,0.261-0.587,0.39-0.876
		c-8.309-4.742-16.143-10.397-23.09-17.34c-16.271-16.265-26.647-36.854-30.09-59.186c-0.001,0-0.002,0-0.004-0.002
		c-0.001,0,0.002-0.013,0.002-0.017c-0.836-5.425-1.275-10.949-1.275-16.543c0-25.819,5.59-40.431,11.962-53.12
		c3.38-7.376,13.412-21.224,13.228-32.545c0-16.667-12.778-27.559-29.261-27.559c-16.481,0-40.663,2.198-45.45,2.479
		c-4.787,0.279-7.615,3.05-9.435,9.435l-13.457,40.196c-1.625,5.081,4.052,9.968,9.435,9.435c5.382-0.534,6.62-1.151,9.593-1.21
		c2.971-0.06,4.044,0.849,3.444,3.341c-4.25,15.109-7.64,31.427-7.64,49.549c0,22.21,4.363,43.789,12.968,64.139
		c8.299,19.626,20.166,37.232,35.273,52.332c12.288,12.284,26.235,22.424,41.577,30.241
		C197.969,521.751,213.376,513.432,219.403,504.106 M209.042,498.845c0.106,0.222,0.249,0.417,0.278,0.627
		c0.012,0.079-0.238,0.195-0.369,0.294c-0.13-0.187-0.282-0.364-0.368-0.569C208.567,499.162,208.825,499.009,209.042,498.845
		 M201.876,474.648c0.131,0.161,0.264,0.325,0.396,0.491c-0.142,0.081-0.284,0.167-0.426,0.25c-0.103-0.123-0.296-0.257-0.283-0.367
		C201.577,474.887,201.764,474.77,201.876,474.648 M201.627,487.701c0.131,0.077,0.247,0.176,0.369,0.271
		c-0.109,0.104-0.218,0.205-0.327,0.31c-0.067-0.134-0.153-0.264-0.194-0.404C201.463,487.834,201.613,487.694,201.627,487.701
		 M200.197,504.106c0.141,0.031,0.282,0.062,0.423,0.095c-0.059,0.379-0.119,0.755-0.178,1.135
		c-0.219-0.054-0.437-0.109-0.655-0.164C199.924,504.818,200.06,504.459,200.197,504.106 M165.94,292.519
		c0.102,0.109,0.203,0.218,0.302,0.327c-0.123,0.084-0.243,0.176-0.375,0.242c-0.014,0.008-0.154-0.14-0.139-0.183
		C165.773,292.767,165.864,292.646,165.94,292.519 M164.522,280.989c0.324,0.275,0.741,0.501,0.931,0.85
		c0.097,0.176-0.224,0.575-0.485,1.166c-0.481-0.551-0.871-0.827-0.98-1.189C163.926,281.612,164.329,281.27,164.522,280.989
		 M157.815,260.224c0.128,0.18,0.2,0.401,0.293,0.608c-0.154,0.061-0.306,0.122-0.562,0.223c-0.059-0.23-0.154-0.446-0.147-0.658
		C157.402,260.329,157.791,260.193,157.815,260.224 M146.067,269.838c-0.069-0.132-0.153-0.26-0.193-0.401
		c-0.012-0.042,0.137-0.182,0.151-0.173c0.13,0.075,0.248,0.174,0.367,0.268C146.284,269.635,146.177,269.736,146.067,269.838
		 M145.721,255.472c0.515,0.119,1.029,0.237,1.543,0.354c0.004,0.161,0.007,0.321,0.011,0.48c-0.373,0.087-0.766,0.285-1.113,0.224
		c-0.249-0.043-0.437-0.434-0.653-0.669L145.721,255.472z M89.583,359.077c-0.178-0.175-0.487-0.336-0.506-0.527
		c-0.027-0.277,0.156-0.574,0.356-1.195c0.396,0.543,0.725,0.796,0.719,1.042C90.145,358.628,89.787,358.851,89.583,359.077
		 M91.081,340.127c0.091-0.265,0.496-0.421,0.766-0.625c0.18,0.28,0.49,0.555,0.506,0.844c0.018,0.337-0.222,0.688-0.349,1.033
		c-0.207-0.122-0.413-0.243-0.619-0.364C91.271,340.715,91.001,340.36,91.081,340.127 M92.9,365.741
		c0.104,0.857,0.207,1.714,0.378,3.122C91.659,367.681,91.408,366.846,92.9,365.741 M94.315,359.306
		c-0.24,0.233-0.912,0.324-1.194,0.158c-0.941-0.56-0.837-1.644,0.214-3.31C94.77,357.559,95.108,358.534,94.315,359.306
		 M139.457,401.742c-0.127,0.11-0.254,0.219-0.38,0.327c-0.102-0.192-0.204-0.386-0.304-0.578c0.155-0.057,0.331-0.186,0.461-0.149
		C139.336,401.373,139.384,401.6,139.457,401.742 M136.812,256.801c0.105,0.029,0.156,0.255,0.231,0.396
		c-0.125,0.11-0.252,0.218-0.378,0.328c-0.103-0.189-0.207-0.38-0.309-0.57C136.509,256.896,136.685,256.765,136.812,256.801
		 M135.995,316.253c0.225,0.047,0.449,0.096,0.674,0.145c-0.097,0.553-0.193,1.104-0.29,1.658c-0.29-0.054-0.577-0.109-0.864-0.164
		C135.675,317.346,135.835,316.8,135.995,316.253 M135.49,358.662c0.14,0.061,0.278,0.123,0.417,0.186
		c-0.099,0.112-0.189,0.24-0.303,0.333c-0.026,0.022-0.208-0.069-0.205-0.104C135.406,358.938,135.456,358.8,135.49,358.662
		 M132.174,338.127c-0.056,0.132-0.154,0.247-0.239,0.367c-0.092-0.112-0.183-0.226-0.273-0.341
		c0.125-0.073,0.247-0.156,0.381-0.211C132.061,337.935,132.191,338.089,132.174,338.127 M130.427,256.48
		c0.416,0.35,0.829,0.702,1.243,1.054l-0.559,0.604c-0.37-0.393-0.74-0.786-1.11-1.176
		C130.144,256.801,130.285,256.64,130.427,256.48 M131.533,361.716c-0.112,0.249-0.18,0.397-0.248,0.547
		c-0.204-0.1-0.422-0.179-0.599-0.312c-0.029-0.023,0.122-0.407,0.188-0.407C131.089,361.546,131.304,361.647,131.533,361.716
		 M128.412,355.113c-0.141,0.141-0.614,0.168-0.77,0.044c-0.865-0.692-0.25-1.281,0.19-2.128
		C128.854,353.8,129.114,354.414,128.412,355.113 M129.099,378.413c0.188,0.6,0.414,0.941,0.348,1.214
		c-0.07,0.288-0.417,0.51-0.643,0.762c-0.193-0.351-0.502-0.693-0.537-1.057C128.248,379.118,128.669,378.864,129.099,378.413
		 M119.462,255.586c3.237,1.655,3.457,1.999,2.212,4.108C120.854,258.118,118.903,257.647,119.462,255.586 M120.288,260.504
		c-0.125,0.085-0.246,0.177-0.378,0.245c-0.016,0.007-0.156-0.142-0.141-0.185c0.046-0.138,0.139-0.261,0.214-0.389
		C120.084,260.286,120.186,260.396,120.288,260.504 M117.903,286.733c-0.229,0.161-0.369,0.26-0.51,0.359
		c-0.142-0.201-0.3-0.395-0.405-0.614c-0.013-0.027,0.331-0.305,0.386-0.27C117.574,286.334,117.723,286.543,117.903,286.733
		 M117.092,259.722c-0.696-0.531-1.392-1.062-2.428-1.853C116.421,257.563,117.149,258.084,117.092,259.722 M113.465,293.174
		c0.167-0.019,0.369,0.273,0.614,0.475c-0.226,0.265-0.39,0.455-0.554,0.646c-0.205-0.212-0.413-0.426-0.619-0.64
		C113.092,293.483,113.263,293.197,113.465,293.174 M110.429,329.869c0.25-0.252,0.458-0.602,0.762-0.729
		c0.265-0.112,0.636,0.025,0.959,0.051c0.03,0.213,0.061,0.427,0.093,0.641c-0.527,0.131-1.052,0.261-1.579,0.392
		C110.584,330.106,110.506,329.987,110.429,329.869 M110.521,383.362c0.202,0.091,0.376,0.248,0.56,0.383
		c-0.103,0.13-0.206,0.259-0.587,0.741c-0.104-0.288-0.234-0.519-0.251-0.757C110.232,383.607,110.483,383.346,110.521,383.362
		 M100.859,273.059c1.224,0.29,1.064,1.243,0.625,2.386c-1.184-0.082-2.135-0.303-2.022-1.5
		C99.494,273.586,100.461,272.964,100.859,273.059 M101.235,358.545c0.179,0.357,0.358,0.716,0.539,1.073
		c-0.214,0.083-0.429,0.167-0.643,0.25c-0.105-0.382-0.208-0.767-0.311-1.15C100.958,358.66,101.096,358.604,101.235,358.545
		 M100.338,356.362c0.211-1.271,0.342-2.058,0.473-2.847c0.228,0.025,0.455,0.05,0.681,0.075
		C101.908,354.514,101.984,355.363,100.338,356.362 M97.067,314.116c0.142,0.169,0.236,0.377,0.345,0.572
		c-0.143,0.077-0.287,0.153-0.526,0.281c-0.08-0.222-0.195-0.426-0.204-0.636C96.678,314.262,97.048,314.092,97.067,314.116
		 M96.282,387.338c-0.067,0.022-0.22-0.232-0.333-0.358c0.182-0.162,0.355-0.34,0.561-0.467c0.025-0.016,0.215,0.235,0.404,0.446
		C96.694,387.099,96.504,387.268,96.282,387.338 M98.36,345.208c-1.378,0.508-1.378,0.508-2.831-0.762
		c1.301,0.06,2.083,0.096,2.865,0.131C98.384,344.787,98.371,344.997,98.36,345.208 M97.789,341.421
		c-0.194-0.088-0.287-0.405-0.422-0.624c0.213-0.112,0.463-0.348,0.631-0.301c0.201,0.058,0.332,0.359,0.583,0.667
		C98.231,341.289,97.949,341.493,97.789,341.421 M99.633,350.961c0.067,0.132,0.152,0.26,0.191,0.4
		c0.013,0.042-0.135,0.181-0.15,0.172c-0.128-0.074-0.245-0.174-0.363-0.266C99.418,351.165,99.525,351.064,99.633,350.961
		 M101.626,402.063c-0.674-0.274-1.132-0.316-1.308-0.562c-0.332-0.465-0.545-1.032-0.692-1.589
		c-0.021-0.085,0.712-0.557,0.867-0.464c0.487,0.293,0.944,0.719,1.257,1.193C101.902,400.873,101.706,401.333,101.626,402.063
		 M101.813,263.028c-0.067-0.131-0.152-0.257-0.191-0.396c-0.013-0.043,0.135-0.182,0.149-0.173
		c0.129,0.074,0.244,0.173,0.363,0.265C102.027,262.826,101.92,262.926,101.813,263.028 M104.088,382.934
		c-0.182-0.01-0.461-0.314-0.487-0.517c-0.032-0.244,0.16-0.517,0.328-0.978c0.469,0.657,0.755,0.889,0.72,1.054
		C104.61,382.683,104.28,382.945,104.088,382.934 M108.456,257.332c-0.067-0.089,0.328-0.753,0.488-0.743
		c0.367,0.021,0.719,0.294,1.298,0.569c-0.398,0.421-0.673,0.884-0.829,0.847C109.051,257.918,108.685,257.636,108.456,257.332
		 M110.81,306.239c0.215-0.208,1.093-0.158,1.174,0.012c0.201,0.418,0.334,1.219,0.102,1.428c-0.553,0.497-1.333,0.741-2.021,1.088
		c-0.205-0.225-0.409-0.45-0.613-0.674C109.892,307.462,110.266,306.763,110.81,306.239 M109.994,435.31
		c-0.421-1.887-0.005-2.784,1.392-2.976c0.261-0.038,0.812,0.322,0.833,0.537C112.36,434.393,111.042,434.465,109.994,435.31
		 M110.601,349.433c0.004-0.044,0.392-6.702,1.279-12.122c1.023-6.258,3.16-11.749,3.182-11.802c1.254-3.006,3.893-4.97,6.708-4.97
		c0.437,0,0.88,0.045,1.326,0.135c1.771,0.358,3.1,1.104,3.842,2.157c0.75,1.061,0.954,2.472,0.607,4.194
		c-0.077,0.309-2.182,9.043-2.884,12.97c-0.673,3.762-1.236,11.32-1.314,12.381c-0.65,2.983-3.313,5.139-6.37,5.139
		c-0.434,0-0.871-0.045-1.302-0.13C113.37,356.917,110.333,355.585,110.601,349.433 M118.504,359.03
		c-0.111,0.22-0.197,0.46-0.349,0.646c-0.034,0.041-0.447-0.13-0.441-0.178c0.025-0.238,0.131-0.468,0.211-0.708
		C118.183,358.898,118.344,358.964,118.504,359.03 M113.268,420.34c-0.073-0.142-0.227-0.303-0.197-0.416
		c0.036-0.134,0.231-0.226,0.357-0.334c0.102,0.191,0.203,0.383,0.306,0.574C113.579,420.222,113.424,420.283,113.268,420.34
		 M114.541,453.837c-0.103-0.188-0.205-0.377-0.309-0.565c0.154-0.059,0.327-0.189,0.454-0.155c0.104,0.029,0.155,0.257,0.23,0.395
		C114.791,453.62,114.667,453.729,114.541,453.837 M117.935,424.315c-0.113,0.007-0.242-0.188-0.363-0.295
		c0.089-0.138,0.176-0.279,0.264-0.417c0.161,0.136,0.322,0.272,0.48,0.408C118.189,424.122,118.068,424.306,117.935,424.315
		 M117.044,412.992c0.084-0.138,0.177-0.396,0.25-0.391c0.208,0.016,0.41,0.139,0.635,0.227c-0.14,0.229-0.271,0.496-0.302,0.487
		C117.422,413.239,117.234,413.105,117.044,412.992 M132.929,471.708c-0.167,0.176-0.487,0.205-1.039-0.014
		c0.354-0.374,0.708-0.748,1.062-1.122c0.135,0.095,0.271,0.189,0.406,0.284C133.222,471.145,133.139,471.488,132.929,471.708
		 M134.045,435.044c-0.183-0.137-0.38-0.264-0.539-0.428c-0.019-0.018,0.167-0.234,0.51-0.71c0.119,0.302,0.25,0.527,0.283,0.766
		C134.316,434.784,134.137,434.919,134.045,435.044 M133.78,421.539c-0.804,1.549-2.163,2.689-3.825,3.216
		c-0.785,0.25-1.534,0.374-2.228,0.374c-2.447,0-4.431-1.593-6.065-4.871c-0.02-0.04-2.905-6.051-4.755-11.221
		c-2.144-5.986-2.929-11.809-2.937-11.868c-0.353-3.176,0.957-6.942,4.684-8.12c0.656-0.208,1.301-0.314,1.92-0.314
		c2.469,0,4.477,1.686,5.37,4.507c0.065,0.258,2.155,8.166,3.443,11.949c1.237,3.616,4.405,10.499,4.853,11.466
		C134.73,418.291,134.568,420.019,133.78,421.539 M134.075,309.061c-0.177-0.165-0.354-0.331-0.531-0.495
		c0.115-0.124,0.272-0.37,0.337-0.349c0.218,0.075,0.404,0.247,0.616,0.391C134.305,308.814,134.191,308.939,134.075,309.061
		 M135.114,373.546c0.019-0.151,0.077-0.298,0.121-0.447c0.124,0.081,0.245,0.16,0.367,0.241c-0.097,0.109-0.184,0.229-0.295,0.321
		C135.286,373.678,135.109,373.579,135.114,373.546 M135.707,378.048c0.115-0.008,0.243,0.188,0.364,0.294
		c-0.088,0.14-0.176,0.279-0.265,0.418c-0.161-0.136-0.322-0.272-0.482-0.409C135.451,378.244,135.573,378.059,135.707,378.048
		 M136.131,444.072c-0.071,0.036-0.527-0.377-0.496-0.451c0.129-0.297,0.352-0.574,0.603-0.784c0.049-0.042,0.376,0.244,0.732,0.489
		C136.627,443.649,136.411,443.918,136.131,444.072 M136.247,389.09c-0.09-0.005-0.292-0.495-0.213-0.626
		c0.11-0.184,0.444-0.34,0.663-0.317c0.179,0.02,0.328,0.317,0.672,0.688C136.854,388.968,136.547,389.104,136.247,389.09
		 M138.651,308.981c0.129,0.076,0.246,0.174,0.366,0.267c-0.107,0.104-0.215,0.206-0.324,0.307c-0.069-0.132-0.154-0.26-0.193-0.401
		C138.488,309.113,138.637,308.972,138.651,308.981 M139.029,478.71c-0.076,0.01-0.188-0.239-0.285-0.374
		c0.186-0.126,0.363-0.274,0.567-0.362c0.03-0.014,0.18,0.245,0.337,0.464C139.43,478.542,139.238,478.681,139.029,478.71
		 M138.873,436.196c-0.123,0.007-0.38-0.232-0.363-0.272c0.084-0.203,0.239-0.376,0.367-0.561c0.13,0.102,0.261,0.2,0.773,0.601
		C139.346,436.063,139.112,436.182,138.873,436.196 M166.84,431.846c0.131-0.034,0.364,0.314,0.739,0.666
		c-0.458,0.198-0.75,0.417-1.042,0.415c-0.171,0-0.34-0.352-0.51-0.545C166.295,432.193,166.543,431.925,166.84,431.846
		 M163.839,448.985c0.13,0.102,0.263,0.202,0.769,0.593c-0.301,0.104-0.535,0.228-0.775,0.245c-0.124,0.007-0.385-0.236-0.368-0.275
		C163.553,449.341,163.708,449.169,163.839,448.985 M150.946,421.328c0.13,0.102,0.261,0.207,0.723,0.563
		c-0.282,0.111-0.506,0.245-0.739,0.269c-0.121,0.011-0.385-0.24-0.369-0.272C150.656,421.686,150.812,421.51,150.946,421.328
		 M146.278,395.236c0.111-0.028,0.268,0.135,0.406,0.214c-0.061,0.155-0.122,0.308-0.184,0.461
		c-0.188-0.109-0.376-0.218-0.564-0.325C146.049,395.461,146.144,395.268,146.278,395.236 M146.082,407.034
		c0.154-0.077,0.611,0.448,1.229,0.933c-0.726,0.498-1.198,0.823-1.672,1.15c-0.228-0.344-0.718-0.797-0.63-1.004
		C145.2,407.667,145.641,407.254,146.082,407.034 M144.645,418.793c0.125,0.074,0.226,0.185,0.338,0.279
		c-0.125,0.078-0.251,0.157-0.376,0.233c-0.057-0.132-0.125-0.259-0.157-0.397C144.443,418.885,144.61,418.775,144.645,418.793
		 M144.543,438.572c0.073,0.154,0.147,0.31,0.221,0.465c-0.121,0.097-0.278,0.295-0.354,0.268c-0.136-0.049-0.222-0.233-0.33-0.362
		C144.237,438.819,144.391,438.694,144.543,438.572 M147.394,489.506c-2.43-0.388-3.241-1.134-3.373-3.075
		c-0.092-1.32,0.222-2.403,1.824-2.483C147.671,487.118,147.671,487.118,147.394,489.506 M150.253,473.682
		c-0.092-0.214-0.201-0.417-0.252-0.635c-0.008-0.034,0.351-0.217,0.379-0.185c0.151,0.169,0.251,0.381,0.369,0.58
		C150.61,473.509,150.471,473.577,150.253,473.682 M155.787,487.714c-0.1-0.108-0.213-0.207-0.29-0.327
		c-0.02-0.03,0.089-0.199,0.115-0.194c0.136,0.028,0.266,0.092,0.397,0.144C155.936,487.462,155.861,487.59,155.787,487.714
		 M158.078,490.261c-0.271-0.023-0.51-0.379-0.765-0.591c0.179-0.189,0.346-0.527,0.537-0.538c0.3-0.023,0.617,0.173,1.277,0.396
		C158.582,489.929,158.313,490.283,158.078,490.261 M157.767,472.632c-0.021-0.03,0.088-0.198,0.114-0.194
		c0.137,0.027,0.266,0.093,0.398,0.146c-0.075,0.127-0.148,0.252-0.221,0.378C157.957,472.856,157.843,472.756,157.767,472.632
		 M164.547,477.773c-0.13-0.185-0.281-0.357-0.368-0.561c-0.016-0.034,0.234-0.185,0.448-0.342
		c-0.355-0.215-0.709-0.427-1.077-0.688c-0.035-0.025-5.402-3.987-9.46-7.688c-1.453-1.325-2.783-2.699-3.932-3.964
		c-0.2,0.058-0.395,0.127-0.583,0.122c-0.066-0.002-0.204-0.396-0.173-0.417c0.103-0.074,0.217-0.128,0.335-0.178
		c-2.31-2.598-3.779-4.639-3.802-4.672c-1.797-2.638-2.405-6.579,0.334-9.367c1.178-1.201,2.569-1.836,4.021-1.836
		c1.517,0,3.072,0.711,4.382,1.994c0.007,0.01,0.038,0.044,0.068,0.076c0.296-0.561,0.881-0.867,2.296-0.484
		c-0.597,0.57-1.05,1.005-1.464,1.401c1.72,1.881,5.503,5.975,7.743,8.078c2.785,2.615,8.81,7.215,9.658,7.856
		c1.198,1.213,1.866,2.819,1.881,4.529c0.016,1.743-0.649,3.39-1.872,4.634c-1.309,1.332-2.681,1.98-4.19,1.98h-0.001
		c-1.255,0-2.648-0.471-4.142-1.363c0.106,0.21,0.239,0.396,0.271,0.602C164.932,477.561,164.679,477.676,164.547,477.773
		 M168.916,491.891c-0.074,0.002-0.16-0.261-0.241-0.399c0.197-0.111,0.388-0.237,0.598-0.31c0.03-0.012,0.153,0.264,0.286,0.497
		C169.333,491.762,169.127,491.879,168.916,491.891 M174.341,484.182c-0.078,0.178-1.064-0.043-2.18-0.117
		c0.8-1.207,1.307-1.972,1.811-2.734c0.312,0.128,0.623,0.255,0.933,0.38C174.743,482.545,174.675,483.423,174.341,484.182
		 M194.951,493.374c0.068,0.131,0.153,0.259,0.192,0.399c0.013,0.042-0.135,0.182-0.149,0.173c-0.129-0.076-0.245-0.176-0.364-0.268
		C194.738,493.577,194.844,493.475,194.951,493.374 M194.375,470.074c0.059,0.164,0.119,0.328,0.218,0.594
		c-0.242,0.072-0.474,0.169-0.709,0.183c-0.049,0.005-0.206-0.411-0.164-0.446C193.909,470.256,194.151,470.177,194.375,470.074
		 M179.491,475.296c-0.062-0.173,0.338-0.515,0.53-0.778c0.317,0.245,0.724,0.439,0.909,0.762c0.093,0.159-0.226,0.554-0.478,1.095
		C179.991,475.887,179.612,475.638,179.491,475.296 M180.493,479.983c-0.125,0.014-0.404-0.254-0.391-0.281
		c0.109-0.219,0.274-0.408,0.421-0.61c0.139,0.107,0.277,0.211,0.79,0.601C180.997,479.812,180.752,479.956,180.493,479.983
		 M191.281,478.17c-0.176-0.143-0.321-0.323-0.475-0.494c0.115-0.102,0.23-0.203,0.415-0.364c0.133,0.195,0.288,0.371,0.368,0.576
		C191.61,477.94,191.3,478.187,191.281,478.17 M193.692,512.66c-0.218-0.244-0.463-0.471-0.631-0.745
		c-0.045-0.072,0.196-0.422,0.218-0.415c0.294,0.11,0.575,0.266,0.98,0.469C193.985,512.302,193.838,512.482,193.692,512.66
		 M194.249,505.291c0.649-0.051,1.297-0.104,2.358-0.187c-0.833,1.408-1.497,1.388-2.256,0.912
		C194.316,505.776,194.284,505.534,194.249,505.291"/>
</g>
</svg>
