<?xml version="1.0" encoding="utf-8"?>
<!-- Generator: Adobe Illustrator 14.0.0, SVG Export Plug-In . SVG Version: 6.00 Build 43363)  -->
<!DOCTYPE svg PUBLIC "-//W3C//DTD SVG 1.1//EN" "http://www.w3.org/Graphics/SVG/1.1/DTD/svg11.dtd">
<svg version="1.1" id="Layer_1" xmlns="http://www.w3.org/2000/svg" xmlns:xlink="http://www.w3.org/1999/xlink" x="0px" y="0px"
	 width="55.35px" height="55.35px" viewBox="0 0 55.35 55.35" enable-background="new 0 0 55.35 55.35" xml:space="preserve">
<g>
	<path fill="#2D3842" d="M27.67,0C12.41,0,0,12.41,0,27.67s12.41,27.67,27.67,27.67c15.26,0,27.67-12.41,27.67-27.67
		S42.93,0,27.67,0z M27.67,54.12c-14.58,0-26.45-11.87-26.45-26.45c0-14.58,11.86-26.45,26.45-26.45s26.45,11.87,26.45,26.45
		S42.26,54.12,27.67,54.12z"/>
	<path fill="#2D3842" d="M41.84,14.86h-4.41c-0.29,0-0.5,0.06-0.62,0.16c-0.12,0.11-0.18,0.26-0.18,0.44s0.06,0.32,0.19,0.43
		c0.12,0.11,0.33,0.16,0.61,0.16h2.21V29.8l-8.83-14.94h-3.13c-0.28,0-0.49,0.06-0.61,0.16c-0.12,0.11-0.19,0.26-0.19,0.44
		s0.06,0.32,0.19,0.43c0.12,0.11,0.33,0.16,0.61,0.16h1.61v11.19c-0.2-0.02-0.39-0.04-0.59-0.04h-1.98c0-0.08,0.02-0.16,0.02-0.25
		c0-0.89-0.29-1.71-0.87-2.45s-1.49-1.33-2.73-1.78c1.57-0.9,2.35-2.08,2.35-3.55c0-1.16-0.47-2.17-1.4-3.02
		c-0.94-0.86-2.15-1.29-3.64-1.29h-7.52c-0.29,0-0.49,0.05-0.61,0.16c-0.12,0.11-0.18,0.25-0.18,0.44s0.06,0.32,0.18,0.43
		c0.12,0.11,0.33,0.16,0.61,0.16h1.61v14.27h-1.61c-0.29,0-0.49,0.06-0.61,0.17c-0.12,0.11-0.18,0.25-0.18,0.43
		c0,0.17,0.06,0.31,0.18,0.43c0.12,0.11,0.33,0.17,0.61,0.17h8.94c0.32,0,0.62-0.04,0.92-0.09v11.23h-1.61
		c-0.29,0-0.49,0.05-0.61,0.16c-0.12,0.11-0.19,0.25-0.19,0.43c0,0.17,0.06,0.31,0.19,0.43c0.12,0.11,0.33,0.17,0.61,0.17h8.94
		c0.92,0,1.77-0.23,2.56-0.7s1.36-1.03,1.74-1.69c0.38-0.66,0.57-1.39,0.57-2.18c0-0.89-0.29-1.71-0.87-2.45
		c-0.58-0.74-1.49-1.33-2.73-1.78c1.57-0.9,2.35-2.08,2.35-3.55c0-1.16-0.47-2.17-1.4-3.02c-0.52-0.48-1.15-0.82-1.85-1.03V16.62
		l8.81,14.91h1.54V16.06h1.01c0.28,0,0.49-0.05,0.61-0.16c0.12-0.11,0.19-0.25,0.19-0.43s-0.06-0.33-0.19-0.44
		C42.33,14.92,42.13,14.86,41.84,14.86z M15.72,16.06h4.74c1.13,0,2.04,0.32,2.75,0.95c0.7,0.63,1.05,1.32,1.05,2.07
		c0,0.52-0.16,1.03-0.48,1.54c-0.32,0.5-0.77,0.89-1.35,1.15c-0.75,0.33-1.58,0.5-2.48,0.5h-4.23V16.06z M21.77,30.33h-6.05v-6.85
		h4.3c1.32,0,2.35,0.15,3.1,0.44s1.33,0.73,1.76,1.29c0.42,0.57,0.63,1.16,0.63,1.77c0,0.54-0.15,1.06-0.44,1.57
		c-0.29,0.5-0.73,0.93-1.3,1.27C23.21,30.16,22.54,30.33,21.77,30.33z M33.14,37.55c0.42,0.57,0.63,1.16,0.63,1.77
		c0,0.54-0.15,1.06-0.44,1.57c-0.29,0.5-0.73,0.92-1.3,1.27c-0.57,0.35-1.24,0.52-2.01,0.52h-6.05v-6.85h4.3
		c1.32,0,2.35,0.15,3.1,0.44S32.72,36.98,33.14,37.55z M32.52,31.42c0,0.52-0.16,1.04-0.48,1.54c-0.32,0.5-0.77,0.89-1.35,1.15
		c-0.75,0.33-1.58,0.5-2.48,0.5h-4.23v-3.56c0.15-0.07,0.29-0.14,0.44-0.22c0.78-0.47,1.36-1.03,1.75-1.69
		c0.14-0.24,0.24-0.49,0.33-0.74h2.23c1.13,0,2.05,0.32,2.75,0.95C32.17,29.97,32.52,30.67,32.52,31.42z"/>
</g>
</svg>
