<?xml version="1.0" encoding="utf-8"?>
<!-- Generator: Adobe Illustrator 14.0.0, SVG Export Plug-In . SVG Version: 6.00 Build 43363)  -->
<svg version="1.2" baseProfile="tiny" id="Layer_1" xmlns="http://www.w3.org/2000/svg" xmlns:xlink="http://www.w3.org/1999/xlink"
	 x="0px" y="0px" width="55.346px" height="55.346px" viewBox="0 0 55.346 55.346" xml:space="preserve">
<g>
	<path fill="#151313" d="M27.671,0C12.413,0,0,12.414,0,27.673s12.413,27.673,27.671,27.673c15.26,0,27.674-12.414,27.674-27.673
		C55.345,12.414,42.931,0,27.671,0z M27.671,54.124c-14.584,0-26.448-11.865-26.448-26.451c0-14.585,11.864-26.451,26.448-26.451
		s26.451,11.866,26.451,26.451S42.256,54.124,27.671,54.124z"/>
	<path fill="#151313" d="M41.843,14.862h-4.414c-0.295,0-0.502,0.056-0.618,0.164c-0.12,0.108-0.181,0.255-0.181,0.436
		s0.062,0.324,0.187,0.434c0.124,0.11,0.328,0.164,0.612,0.164h2.208V29.8l-8.83-14.938h-3.134c-0.283,0-0.487,0.056-0.61,0.164
		c-0.124,0.108-0.187,0.255-0.187,0.436s0.062,0.324,0.187,0.434c0.124,0.11,0.327,0.164,0.61,0.164h1.609v11.188
		c-0.197-0.018-0.386-0.045-0.594-0.045h-1.977c0.004-0.083,0.016-0.164,0.016-0.249c0-0.893-0.29-1.708-0.869-2.448
		s-1.49-1.334-2.733-1.78c1.566-0.9,2.35-2.084,2.35-3.546c0-1.157-0.468-2.166-1.402-3.025c-0.936-0.858-2.148-1.288-3.639-1.288
		h-7.52c-0.285,0-0.489,0.055-0.612,0.163c-0.122,0.108-0.185,0.255-0.185,0.436s0.062,0.324,0.185,0.434
		c0.124,0.109,0.328,0.164,0.612,0.164h1.609v14.269h-1.609c-0.285,0-0.489,0.056-0.612,0.165c-0.122,0.108-0.185,0.253-0.185,0.434
		c0,0.17,0.062,0.313,0.185,0.427c0.124,0.114,0.328,0.171,0.612,0.171h8.942c0.315,0,0.622-0.038,0.922-0.092v11.234H21.17
		c-0.285,0-0.488,0.055-0.611,0.164c-0.124,0.108-0.186,0.254-0.186,0.434c0,0.172,0.062,0.312,0.186,0.428
		c0.123,0.113,0.326,0.171,0.611,0.171h8.942c0.921,0,1.772-0.232,2.557-0.697s1.364-1.027,1.744-1.688
		c0.379-0.66,0.569-1.389,0.569-2.185c0-0.894-0.29-1.709-0.868-2.45c-0.58-0.74-1.49-1.333-2.734-1.779
		c1.566-0.901,2.351-2.083,2.351-3.546c0-1.158-0.468-2.166-1.402-3.024c-0.524-0.483-1.147-0.815-1.849-1.027v-10.85l8.814,14.908
		h1.537V16.059h1.012c0.284,0,0.488-0.055,0.611-0.164c0.125-0.108,0.187-0.253,0.187-0.434s-0.062-0.326-0.187-0.436
		C42.331,14.917,42.127,14.862,41.843,14.862z M15.72,16.059h4.741c1.13,0,2.045,0.315,2.748,0.946
		c0.703,0.633,1.055,1.323,1.055,2.072c0,0.521-0.162,1.034-0.484,1.538c-0.322,0.503-0.773,0.888-1.354,1.152
		c-0.75,0.332-1.575,0.498-2.478,0.498H15.72V16.059z M21.772,30.326H15.72v-6.851h4.3c1.318,0,2.354,0.148,3.104,0.442
		c0.75,0.294,1.335,0.726,1.758,1.295c0.423,0.57,0.635,1.158,0.635,1.766c0,0.542-0.147,1.064-0.442,1.566
		c-0.294,0.505-0.726,0.927-1.296,1.269C23.21,30.156,22.542,30.326,21.772,30.326z M33.138,37.553
		c0.423,0.569,0.635,1.158,0.635,1.766c0,0.54-0.147,1.063-0.441,1.567c-0.295,0.502-0.727,0.924-1.297,1.266
		c-0.568,0.345-1.238,0.515-2.008,0.515h-6.051v-6.85h4.3c1.319,0,2.354,0.147,3.104,0.441S32.716,36.982,33.138,37.553z
		 M32.519,31.415c0,0.521-0.161,1.035-0.484,1.538c-0.322,0.504-0.772,0.888-1.352,1.153c-0.75,0.332-1.576,0.497-2.479,0.497
		h-4.229v-3.557c0.147-0.07,0.295-0.138,0.438-0.223c0.784-0.466,1.365-1.028,1.745-1.688c0.136-0.237,0.239-0.486,0.327-0.741h2.23
		c1.131,0,2.047,0.315,2.749,0.947C32.168,29.975,32.519,30.665,32.519,31.415z"/>
</g>
</svg>
