<?xml version="1.0" encoding="utf-8"?>
<!-- Generator: Adobe Illustrator 14.0.0, SVG Export Plug-In . SVG Version: 6.00 Build 43363)  -->
<!DOCTYPE svg PUBLIC "-//W3C//DTD SVG 1.1//EN" "http://www.w3.org/Graphics/SVG/1.1/DTD/svg11.dtd">
<svg version="1.1" id="Layer_1" xmlns="http://www.w3.org/2000/svg" xmlns:xlink="http://www.w3.org/1999/xlink" x="0px" y="0px"
	 width="767.96px" height="691.98px" viewBox="0 0 767.96 691.98" enable-background="new 0 0 767.96 691.98" xml:space="preserve">
<path fill="#2D3842" d="M381.64,56.42c-86.19,0-162.32,50.87-207.16,128.04h82.69c32.15-40.92,76.5-66.22,125.49-66.22
	c48.98,0,93.33,25.3,125.49,66.22h80.68C543.98,107.29,467.85,56.42,381.64,56.42z M234.88,165.87l-7.03-2.84l-0.07,0.06l3.62,6.72
	l-4.42,1.41l-1.03-7.47l-0.11-0.11l-3.89,6.38l-3.49-3.13l5.91-4.49l-0.08-0.08l-7.64-0.3l0.88-4.5l7.06,2.8l0.05-0.05l-3.67-6.65
	l4.36-1.46l1.29,7.53l0.08,0.06l3.59-6.31l3.51,3.14l-5.69,4.49l0.04,0.09l7.5,0.21L234.88,165.87z M257.19,143.86l-6.59-3.75
	l-0.07,0.05l2.69,7.14l-4.57,0.81l-0.02-7.54l-0.1-0.13l-4.7,5.8l-3.04-3.57l6.46-3.66l-0.07-0.09l-7.53-1.31l1.47-4.34l6.62,3.72
	l0.06-0.05l-2.75-7.08l4.51-0.86l0.28,7.63l0.07,0.07l4.4-5.78l3.06,3.58l-6.23,3.7l0.02,0.09l7.4,1.21L257.19,143.86z
	 M282.06,125.78l-5.95-4.69l-0.09,0.06l1.61,7.44L273,128.7l1.08-7.46l-0.09-0.13l-5.47,5.02l-2.5-3.97l6.91-2.66l-0.05-0.08
	l-7.25-2.44l2.1-4.06l5.99,4.67l0.1-0.05l-1.7-7.39l4.6-0.19l-0.85,7.59l0.06,0.05l5.19-5.03l2.51,3.97l-6.71,2.75l0.02,0.08
	l7.16,2.29L282.06,125.78z M312.07,107.96l-2.62,3.76l-5.17-5.57l-0.08,0.04l0.44,7.61l-4.61-0.62l2.23-7.21l-0.06-0.12l-6.18,4.08
	l-1.87-4.32l7.24-1.54l-0.03-0.08l-6.79-3.54l2.7-3.67l5.21,5.52l0.08-0.02l-0.53-7.58l4.59,0.53l-2,7.37l0.02,0.07l5.92-4.16
	l1.84,4.33l-7.03,1.64v0.1L312.07,107.96z M341.94,98.97l-3.22,3.26l-4.19-6.33l-0.09,0.01l-0.79,7.57l-4.43-1.35l3.35-6.75
	l-0.03-0.14l-6.77,3.04l-1.13-4.58l7.39-0.33l-0.02-0.08l-6.12-4.62l3.26-3.21l4.23,6.33l0.1-0.02l0.72-7.54l4.42,1.28l-3.18,6.92
	l0.02,0.12l6.52-3.17l1.13,4.57l-7.24,0.47v0.1L341.94,98.97z M372.9,95.05l-3.7,2.68l-3.09-6.94h-0.1l-2.04,7.35l-4.16-2.09
	l4.42-6.08v-0.13l-7.18,1.83l-0.35-4.69l7.34,0.91l-0.01-0.12l-5.28-5.55l3.75-2.61l3.14,6.95l0.08-0.02l1.94-7.32l4.16,1.98
	l-4.27,6.32v0.11l6.94-2.04l0.36,4.69l-7.21-0.74l-0.02,0.12L372.9,95.05z M404.52,91.54l-7.18-1.83v0.13l4.42,6.08l-4.16,2.09
	l-2.04-7.35h-0.1l-3.09,6.94l-3.7-2.68l5.25-5.39l-0.02-0.12l-7.21,0.74l0.36-4.69l6.94,2.04v-0.11l-4.27-6.32l4.16-1.98l1.94,7.32
	l0.08,0.02l3.14-6.95l3.75,2.61l-5.28,5.55l-0.01,0.11l7.35-0.91L404.52,91.54z M435.81,98.16l-6.77-3.04L429,95.25l3.35,6.75
	l-4.43,1.35l-0.79-7.58l-0.09-0.01l-4.19,6.33l-3.22-3.26l6.07-4.44v-0.1l-7.24-0.47l1.13-4.57l6.52,3.17l0.02-0.11l-3.18-6.92
	l4.42-1.28l0.72,7.54l0.1,0.02l4.23-6.33l3.26,3.21l-6.12,4.62l-0.02,0.08l7.39,0.33L435.81,98.16z M465.56,109.79l-6.18-4.08
	l-0.06,0.11l2.23,7.21l-4.61,0.62l0.44-7.61l-0.08-0.04l-5.17,5.57l-2.62-3.76l6.71-3.38v-0.1l-7.03-1.64l1.84-4.33l5.92,4.16
	l0.02-0.07l-2-7.37l4.59-0.53l-0.53,7.58l0.08,0.02l5.21-5.52l2.7,3.67l-6.79,3.54l-0.04,0.08l7.24,1.54L465.56,109.79z
	 M495.56,122.03l-2.5,3.97l-5.47-5.02l-0.09,0.13l1.08,7.46l-4.63-0.12l1.61-7.44l-0.09-0.06l-5.95,4.68l-2.02-4.12l7.16-2.29
	l0.02-0.08l-6.71-2.75l2.51-3.97l5.19,5.03l0.06-0.05l-0.85-7.59l4.6,0.2l-1.7,7.39l0.1,0.05l5.99-4.67l2.1,4.06l-7.25,2.44
	l-0.04,0.08L495.56,122.03z M520.8,142.54l-3.04,3.57l-4.7-5.8l-0.1,0.13l-0.02,7.54l-4.57-0.81l2.69-7.14l-0.07-0.05l-6.59,3.75
	l-1.37-4.37l7.4-1.21l0.02-0.09l-6.23-3.69l3.06-3.58l4.4,5.78l0.07-0.07l0.28-7.63l4.51,0.86l-2.75,7.08l0.06,0.05l6.62-3.72
	l1.47,4.34l-7.54,1.31l-0.07,0.09L520.8,142.54z M540.19,169.68l-3.89-6.38l-0.11,0.11l-1.03,7.47l-4.42-1.41l3.62-6.72l-0.07-0.06
	l-7.03,2.84l-0.77-4.52l7.5-0.21l0.04-0.09l-5.68-4.49l3.51-3.14l3.59,6.31l0.08-0.06l1.29-7.53l4.36,1.46l-3.67,6.65l0.05,0.05
	l7.06-2.8l0.88,4.5l-7.64,0.3l-0.08,0.08l5.91,4.49L540.19,169.68z"/>
<g>
	<path fill="#2D3842" d="M611.52,513.19c-10.46,18.73-22.67,36.16-36.56,52.12c-25.01,28.78-54.15,51.38-86.64,67.19
		c-33.78,16.43-69.68,24.78-106.68,24.78c-37.01,0-72.89-8.35-106.67-24.78c-32.49-15.81-61.65-38.41-86.64-67.19
		c-13.88-15.96-26.1-33.4-36.55-52.12h-31.25c51.81,102.96,149.79,172.41,262.13,172.41c112.35,0,210.33-69.45,262.14-172.41H611.52
		z"/>
	<path fill="#2D3842" d="M147.96,184.46c11.26-21.41,24.76-41.21,40.36-59.16c24.99-28.76,54.15-51.37,86.64-67.18
		c33.78-16.46,69.67-24.78,106.67-24.78c37,0,72.9,8.32,106.68,24.78c32.49,15.81,61.63,38.42,86.64,67.18
		c15.6,17.95,29.11,37.75,40.36,59.16h32.91C597.41,77.65,497.55,5.02,382.66,5.02c-114.88,0-214.74,72.63-265.57,179.43H147.96z"/>
</g>
<path fill="#2D3842" d="M109.12,377.53c1.15-0.82,2.48-1.27,3.96-1.27c1.48,0,3.08,0.73,4.74,2.16c2.21-3.12,3.16-5.84,2.91-8.23
	c-0.25-2.4-1.22-4.32-2.91-5.8c-1.66-1.49-3.87-2.49-6.57-3.01c-2.71-0.52-5.4-0.47-8.04,0.12c-2.64,0.58-5.1,1.73-7.34,3.47
	c-2.25,1.74-3.77,4.17-4.56,7.25c-1.28,4.65-1.55,8.54-0.76,11.69c0.76,3.17,2.2,5.76,4.34,7.76c2.13,2,4.75,3.45,7.83,4.36
	c3.09,0.9,6.33,1.34,9.68,1.34c7.73,0,14.51-2.2,20.32-6.57c5.8-4.41,10.93-10.1,15.37-17.12c4.46-7.04,8.35-14.97,11.71-23.8
	c3.34-8.83,6.51-17.73,9.48-26.61c4,1.42,8.38,2.12,13.17,2.12c7.6,0,14.46-2.08,20.6-6.28c6.12-4.18,10.97-9.45,14.51-15.76
	c3.54-6.35,5.51-13.21,5.9-20.6c0.38-7.44-1.34-14.3-5.22-20.62c-3.88-6.33-10.09-11.56-18.66-15.76c-8.59-4.2-20.11-6.3-34.55-6.3
	c-10.82,0-20.66,1.65-29.5,4.93c-8.85,3.3-16.69,7.64-23.52,13.05c-6.84,5.43-12.62,11.63-17.32,18.59
	c-4.71,6.97-8.25,14.02-10.63,21.2c-2.4,7.13-3.62,14.2-3.69,21.17c-0.06,6.97,1.09,13.14,3.48,18.58
	c2.37,5.44,6.06,9.78,11.03,13.06c4.96,3.29,11.27,4.95,18.86,4.95c3.1,0,6.12-0.52,9.09-1.55c2.97-1.04,5.62-2.47,7.95-4.27
	c2.32-1.81,4.18-3.96,5.6-6.48c1.44-2.52,2.14-5.31,2.14-8.43c0-4.63-1.37-7.98-4.08-10.05c-2.7-2.05-5.69-3.06-8.99-2.99
	c-3.28,0.08-6.28,1.09-8.99,3.09c-2.71,2-4.06,4.73-4.06,8.22c3.99,0,6.87,0.74,8.61,2.23c1.75,1.48,2.64,3.14,2.71,4.92
	c0.07,1.82-0.54,3.46-1.85,4.94c-1.29,1.47-2.96,2.24-5.03,2.24c-4.53,0-8.15-2.46-10.93-7.36c-2.77-4.91-4.45-11.04-5.04-18.38
	c-0.57-7.36,0.03-15.32,1.84-23.89c1.81-8.59,5.03-16.55,9.68-23.92c4.65-7.35,10.82-13.48,18.56-18.38
	c7.75-4.89,17.16-7.36,28.25-7.36c8.27,0,15.2,1.26,20.82,3.78c5.59,2.52,10.14,5.71,13.62,9.58c-6.05,0.25-11.49,2.25-16.23,5.98
	c-4.79,3.78-9.07,8.68-12.88,14.73c-3.82,6.07-7.23,12.89-10.25,20.5c-3.04,7.64-5.89,15.43-8.52,23.43
	c-2.64,7.97-5.14,15.81-7.44,23.42c-2.34,7.6-4.75,14.37-7.27,20.3c-2.52,5.92-5.16,10.71-7.93,14.3c-2.8,3.63-5.9,5.43-9.39,5.43
	c-2.45,0-4.28-0.47-5.51-1.42c-1.23-0.99-1.98-2.13-2.23-3.42c-0.27-1.28-0.1-2.59,0.48-3.98
	C107.09,379.48,107.95,378.37,109.12,377.53z M177.43,298.97c1.79-5.36,3.66-10.25,5.6-14.69c1.93-4.45,4-8.35,6.18-11.71
	c2.2-3.33,4.57-5.85,7.16-7.55c3.48,5.18,5.58,10.85,6.29,17.13c0.7,6.25,0.32,12.11-1.16,17.52c-1.48,5.42-3.84,9.92-7.06,13.54
	c-3.23,3.63-7.04,5.42-11.41,5.42c-1.68,0-3.42-0.2-5.23-0.67c-1.79-0.45-3.81-1.19-5.99-2.24
	C173.75,309.92,175.61,304.34,177.43,298.97z"/>
<path fill="#2D3842" d="M336.57,322.48c-1.86,0.66-4.17,0-6.87-1.92c-1.42,3.61-1.23,6.53,0.58,8.8c1.81,2.25,4.12,3.63,6.97,4.14
	c2.82,0.52,5.74,0.04,8.69-1.42c2.98-1.51,5.05-4.2,6.21-8.05c1.28-5.17,0.25-9.35-3.09-12.57c-3.35-3.21-8.2-4.83-14.51-4.83
	c-7.23,0-12.9,1.53-17.02,4.63c-4.02,3-6.59,6.64-7.73,10.86c-1.13-0.19-2.17-0.63-3.1-1.3c-1.56-1.06-2.69-2.9-3.4-5.39
	c-0.7-2.52-0.68-6.1,0.09-10.74l-16.65,11.02l2.71-8.7h-17.61l-12.4,41.46c-2.01,3.04-4.12,5.88-6.35,8.47
	c-2.98,3.34-6.37,6.36-10.17,8.97c-3.81,2.67-7.83,4-12.09,4c-3.61,0-6-1.68-7.16-5.04c-1.15-3.35-1.54-7.48-1.15-12.4
	c5.41,0.66,10.34-0.03,14.8-2.03c4.45-2,8.25-4.67,11.4-8.03c3.16-3.34,5.58-7.1,7.26-11.22c1.69-4.13,2.48-7.98,2.43-11.51
	c-0.08-3.55-1.14-6.55-3.2-9c-2.06-2.47-5.22-3.67-9.48-3.67c-7.23,0-13.61,1.8-19.15,5.4c-5.56,3.62-10.16,8.1-13.83,13.46
	c-3.68,5.35-6.3,11.2-7.85,17.49c-1.55,6.33-1.98,12.16-1.25,17.52c0.71,5.36,2.68,9.86,5.99,13.47c3.29,3.6,7.95,5.4,14.03,5.4
	c3.22,0,6.31-0.51,9.27-1.55c2.98-1.01,5.75-2.37,8.35-4.06c2.57-1.7,4.96-3.58,7.15-5.72c2.19-2.12,4.2-4.32,6-6.66
	c0.56-0.68,1.11-1.37,1.65-2.08l-6.29,21.03h17.6l17.03-57.26c0.51,4.13,1.77,7.2,3.77,9.18c2,2.01,4.51,2.91,7.53,2.73
	c3.04-0.21,6.49-1.48,10.37-3.91c1.03-0.63,2.06-1.35,3.11-2.16c0.23,2.28,0.84,4.63,1.82,7.04c1.99,4.83,5.51,8.98,10.54,12.46
	c2.85,2.05,4.77,4.63,5.81,7.64c1.04,3.04,1.25,5.93,0.69,8.71c-0.59,2.77-1.88,5.1-3.88,6.97c-2,1.88-4.54,2.6-7.65,2.23
	c-2.7-0.37-4.34-1.55-4.93-3.49c-0.58-1.93-0.45-3.78,0.38-5.51c0.83-1.75,2.24-2.98,4.25-3.67c2-0.7,4.22,0.08,6.68,2.41
	c0.89-2.47,1.04-4.7,0.37-6.79c-0.62-2.05-1.74-3.8-3.27-5.22c-1.55-1.42-3.38-2.45-5.53-3.11c-2.12-0.61-4.29-0.76-6.48-0.36
	c-2.19,0.36-4.23,1.33-6.1,2.91c-1.85,1.53-3.27,3.8-4.14,6.77c-0.92,2.56-1.04,5.17-0.4,7.73c0.65,2.56,1.83,4.94,3.58,7.04
	c1.74,2.15,3.93,3.86,6.58,5.13c2.64,1.32,5.52,1.95,8.61,1.95c7.11,0,12.9-1.65,17.42-4.93c4.51-3.3,7.49-7.24,8.89-11.9
	c1.41-4.65,1.27-9.5-0.48-14.61c-1.74-5.08-5.38-9.44-10.94-13.07c-3.1-2.05-5.13-4.44-6.1-7.15c-0.97-2.71-1.16-5.27-0.59-7.68
	c0.59-2.34,1.8-4.34,3.6-5.98c1.81-1.6,3.99-2.43,6.58-2.43c2.84,0,4.68,0.8,5.52,2.36c0.83,1.53,0.92,3.04,0.29,4.54
	C339.69,320.79,338.44,321.83,336.57,322.48z M226.47,334.28c1.36-4,2.88-7.58,4.54-10.82c1.68-3.24,3.45-5.88,5.34-7.94
	c1.87-2.06,3.63-3.11,5.3-3.11c1.29,0,2.04,0.94,2.23,2.79c0.19,1.91,0,4.21-0.58,6.99c-0.59,2.77-1.54,5.69-2.91,8.79
	c-1.35,3.09-2.94,5.91-4.75,8.41c-1.78,2.52-3.77,4.46-5.88,5.83c-2.14,1.34-4.29,1.63-6.49,0.86
	C224.06,342.22,225.13,338.29,226.47,334.28z"/>
<path fill="#2D3842" d="M583.36,307.01l-22.05,73.72h17.59l12.2-40.63c0.92-2.21,1.88-4.46,2.92-6.76c1.01-2.34,2.05-4.45,3.08-6.31
	c1.04-1.87,2.12-3.4,3.3-4.64c1.15-1.2,2.25-1.84,3.26-1.84c1.43,0,1.75,1.48,0.98,4.44c-0.77,2.97-1.97,6.66-3.59,11.04
	c-1.61,4.37-3.32,9.16-5.13,14.3c-1.79,5.15-3.02,9.93-3.66,14.32c-0.65,4.37-0.4,8.06,0.77,11.02c1.17,2.98,3.93,4.46,8.32,4.46
	c1.67,0,3.58-0.39,5.72-1.15c2.13-0.79,4.33-2.05,6.58-3.78c2.25-1.73,4.41-4,6.47-6.77c1.2-1.61,2.32-3.45,3.35-5.48
	c0.9,4.45,2.79,8.25,5.66,11.39c3.29,3.6,7.96,5.4,14.03,5.4c3.22,0,6.31-0.51,9.27-1.55c2.97-1.01,5.75-2.37,8.35-4.06
	c2.56-1.7,4.96-3.58,7.16-5.72c2.19-2.12,4.18-4.32,5.99-6.66c4.25-5.14,7.93-11.15,11.03-17.99h-3.1
	c-2.84,4.9-5.93,9.28-9.29,13.16c-2.96,3.34-6.35,6.36-10.15,8.97c-3.81,2.67-7.83,4-12.09,4c-3.61,0-6-1.68-7.16-5.04
	c-1.15-3.35-1.55-7.49-1.15-12.4c5.41,0.66,10.34-0.03,14.79-2.03c4.44-2,8.26-4.67,11.41-8.03c3.16-3.34,5.58-7.1,7.26-11.22
	c1.67-4.13,2.5-7.98,2.42-11.51c-0.08-3.55-1.13-6.54-3.21-8.99c-2.05-2.47-5.21-3.67-9.46-3.67c-7.23,0-13.61,1.8-19.16,5.4
	c-5.53,3.62-10.15,8.1-13.83,13.46c-3.69,5.34-6.28,11.2-7.83,17.49c-1.3,5.32-1.8,10.28-1.51,14.91h-0.05
	c-1.54,3.34-3.43,5.62-5.71,6.77c-2.24,1.17-3.9,1.73-4.93,1.73c-2.06,0-2.83-1.46-2.31-4.45c0.52-2.93,1.58-6.63,3.18-11.01
	c1.63-4.4,3.4-9.22,5.33-14.43c1.92-5.22,3.34-10.03,4.25-14.42c0.89-4.38,0.87-8.05-0.11-11.02c-0.96-2.97-3.5-4.45-7.63-4.45
	c-3.37,0-6.48,1.14-9.39,3.39c-2.9,2.27-5.63,5.19-8.22,8.82l3.66-12.21L583.36,307.01L583.36,307.01z M645.96,334.28
	c1.36-4,2.88-7.58,4.54-10.82c1.68-3.24,3.46-5.88,5.33-7.94c1.88-2.06,3.64-3.11,5.33-3.11c1.28,0,2.04,0.94,2.23,2.79
	c0.18,1.91,0,4.21-0.59,6.99c-0.59,2.77-1.56,5.69-2.9,8.79c-1.36,3.09-2.96,5.91-4.76,8.41c-1.78,2.52-3.76,4.46-5.88,5.83
	c-2.15,1.34-4.29,1.63-6.49,0.86C643.54,342.22,644.6,338.29,645.96,334.28z"/>
<path fill="#2D3842" d="M31.38,198.36v292.82H363.5l-0.01,0.02h17.17l43.83-147.47c0.93-2.32,1.95-4.84,3.11-7.55
	c1.15-2.71,2.37-5.25,3.67-7.64c1.29-2.38,2.54-4.38,3.79-6c1.22-1.62,2.34-2.4,3.38-2.4s1.46,0.81,1.24,2.51
	c-0.19,1.67-0.72,3.92-1.63,6.78c-0.91,2.84-2.05,6.03-3.38,9.56c-1.35,3.53-2.65,7.19-3.87,10.95c-1.24,3.73-2.23,7.36-3,10.91
	c-0.78,3.57-1.06,6.75-0.87,9.58c0.18,2.85,1.02,5.12,2.52,6.77c1.48,1.68,3.9,2.52,7.25,2.52c1.68,0,3.58-0.39,5.7-1.15
	c2.13-0.79,4.32-2.03,6.59-3.78c1.64-1.26,3.23-2.82,4.77-4.63l-3.13,10.58h17.42l10.84-36.39c0.89-2.3,1.89-4.84,2.99-7.55
	c1.11-2.71,2.29-5.27,3.58-7.75c1.29-2.45,2.54-4.48,3.79-6.08c1.23-1.63,2.41-2.43,3.58-2.43c1.01,0,1.45,0.84,1.25,2.52
	c-0.19,1.67-0.76,3.93-1.65,6.77c-0.89,2.81-2.03,6.03-3.39,9.56c-1.34,3.56-2.64,7.22-3.86,10.94c-1.24,3.77-2.24,7.39-3,10.95
	c-0.77,3.53-1.06,6.72-0.87,9.56c0.19,2.85,1.01,5.11,2.5,6.78c1.48,1.67,3.92,2.52,7.28,2.52c1.68,0,3.58-0.38,5.7-1.17
	c2.11-0.76,4.28-2.04,6.47-3.76c2.18-1.75,4.35-4,6.49-6.79c0.76-0.98,1.48-2.05,2.16-3.19c0.17,1.4,0.45,2.73,0.83,3.97
	c1.04,3.3,2.89,5.88,5.6,7.73c2.71,1.88,6.52,2.81,11.42,2.81c3.5,0,7.04-0.93,10.64-2.81c3.62-1.85,7.06-4.44,10.35-7.73
	c3.3-3.31,6.29-7.16,8.99-11.61c2.71-4.45,4.83-9.18,6.39-14.22c1.42-5.03,2.4-9.76,2.89-14.21c0.53-4.48,0.27-8.35-0.76-11.61
	c-1.02-3.31-2.92-5.88-5.62-7.76c-2.71-1.86-6.51-2.79-11.42-2.79c-3.6,0-7.26,0.93-10.93,2.79c-3.68,1.87-7.16,4.45-10.44,7.76
	c-3.29,3.26-6.27,7.13-8.91,11.61c-2.64,4.45-4.67,9.18-6.1,14.21c-1.41,5.04-2.37,9.77-2.89,14.22c-0.05,0.42-0.08,0.83-0.12,1.24
	c-1.6,3.05-3.36,5.12-5.31,6.21c-2.07,1.18-3.81,1.72-5.23,1.72c-1.93,0-2.64-1.46-2.11-4.45c0.51-2.93,1.58-6.62,3.17-11.01
	c1.63-4.38,3.42-9.2,5.34-14.41c1.94-5.24,3.32-10.03,4.15-14.42c0.84-4.4,0.81-8.05-0.08-11.02c-0.91-2.99-3.48-4.47-7.75-4.47
	c-3.35,0-6.54,1.21-9.57,3.6c-3.04,2.38-5.84,5.44-8.42,9.17l17.02-57.26h-17.4l-28.78,97.1c-1.35,2.39-2.88,4.08-4.61,5.02
	c-2.14,1.17-3.91,1.75-5.32,1.75c-1.94,0-2.64-1.51-2.14-4.45c0.51-2.98,1.58-6.65,3.2-11.04c1.59-4.37,3.37-9.2,5.31-14.42
	c1.93-5.22,3.31-10.03,4.17-14.4c0.82-4.4,0.76-8.06-0.21-11.04c-0.98-2.97-3.52-4.45-7.64-4.45c-3.37,0-6.48,1.14-9.39,3.39
	c-2.89,2.27-5.64,5.25-8.22,8.98l3.68-12.37h-17.42l-12.31,41.45c-2.1,3.21-4.31,6.18-6.66,8.9c-2.96,3.34-6.34,6.36-10.16,8.97
	c-3.79,2.67-7.83,4-12.08,4c-3.62,0-6-1.68-7.16-5.04c-1.17-3.35-1.55-7.48-1.17-12.4c5.41,0.66,10.37-0.03,14.81-2.02
	c4.44-2,8.25-4.68,11.41-8.03c3.16-3.34,5.58-7.1,7.25-11.22c1.69-4.13,2.51-7.98,2.44-11.51c-0.06-3.55-1.13-6.55-3.18-9
	c-2.07-2.47-5.23-3.67-9.49-3.67c-7.23,0-13.62,1.8-19.16,5.4c-5.53,3.62-10.17,8.1-13.83,13.46c-3.67,5.35-6.3,11.2-7.83,17.49
	c-1.56,6.33-1.98,12.16-1.27,17.52c0.69,5.36,2.7,9.85,6,13.47c3.3,3.6,7.96,5.4,14.03,5.4c3.22,0,6.32-0.51,9.27-1.55
	c2.98-1.01,5.75-2.37,8.34-4.06c2.57-1.7,4.97-3.58,7.15-5.72c2.2-2.12,4.2-4.32,6-6.66c0.67-0.81,1.32-1.65,1.96-2.5l-34.32,115.58
	H47.76V214.76h669.82v260.08H396.2l-5.42,16.34h343.16V198.36H31.38z M530.84,357.31c0.58-4.12,1.48-8.52,2.71-13.24
	c1.21-4.71,2.62-9.13,4.26-13.27c1.61-4.12,3.31-7.54,5.12-10.24c1.81-2.72,3.55-4.05,5.23-4.05c1.66,0,2.62,1.33,2.89,4.05
	c0.25,2.71,0.08,6.12-0.58,10.24c-0.65,4.13-1.65,8.56-3,13.27c-1.34,4.72-2.87,9.12-4.54,13.24c-1.68,4.13-3.38,7.56-5.12,10.25
	c-1.75,2.72-3.39,4.07-4.94,4.07c-1.42,0-2.25-1.35-2.51-4.07C530.1,364.87,530.26,361.44,530.84,357.31z M372.74,334.28
	c1.37-4,2.88-7.58,4.55-10.82c1.68-3.24,3.45-5.88,5.33-7.94c1.87-2.06,3.64-3.11,5.32-3.11c1.29,0,2.04,0.94,2.24,2.79
	c0.18,1.91,0,4.21-0.59,6.99c-0.6,2.77-1.56,5.69-2.91,8.79c-1.36,3.09-2.94,5.91-4.75,8.41c-1.78,2.52-3.77,4.46-5.88,5.83
	c-2.15,1.34-4.29,1.63-6.5,0.86C370.32,342.22,371.4,338.29,372.74,334.28z"/>
<path fill="#2D3842" d="M189.57,452.82l9.78-42.34h9.56c2.52,0,4.63,0.68,6.35,2c1.48,1.14,2.3,2.9,2.52,5.25
	c0.09,1.27-0.05,2.75-0.45,4.49c-0.64,2.84-1.93,5.11-3.83,6.82c-0.81,0.73-1.67,1.28-2.59,1.66c1.27,0.54,2.23,1.62,2.85,3.2
	c0.38,1.09,0.55,2.5,0.48,4.2c-0.05,0.87-0.19,1.83-0.44,2.92c-0.62,2.68-1.66,4.96-3.1,6.82c-1.14,1.47-2.52,2.64-4.16,3.51
	c-1.84,0.99-3.57,1.48-5.16,1.48L189.57,452.82L189.57,452.82z M197.93,446.52h2.65c2.17,0,3.91-1.12,5.26-3.37
	c0.47-0.74,0.82-1.62,1.06-2.61c0.54-2.38,0.48-4.07-0.17-5.17c-0.58-0.99-1.67-1.49-3.23-1.49h-2.67L197.93,446.52z M202.23,427.79
	h2.69c1.98,0,3.52-0.99,4.63-2.92c0.43-0.73,0.76-1.61,1-2.66c0.4-1.75,0.28-3.09-0.36-3.98c-0.62-0.81-1.53-1.24-2.8-1.24h-2.67
	L202.23,427.79z"/>
<path fill="#2D3842" d="M236.43,410.52c3.55,0,5.95,0.99,7.15,2.94c1.08,1.73,1.25,4.1,0.54,7.16l-1.42,6.16
	c-0.67,2.99-2.4,5.52-5.15,7.58l0.46,18.46h-6.9l-0.21-15.92h-0.57h-3.68l-3.67,15.92h-6.39l9.78-42.3H236.43L236.43,410.52z
	 M237.89,420.73c0.58-2.45-0.36-3.68-2.78-3.68h-3.86l-3.13,13.52h3.84c1.02,0,1.95-0.33,2.82-1.04c0.88-0.74,1.43-1.6,1.67-2.61
	L237.89,420.73z"/>
<polygon fill="#2D3842" points="243.48,452.82 253.26,410.49 271.4,410.49 269.92,416.9 258.15,416.9 255.49,428.46 264.08,428.46 
	262.6,434.86 254.01,434.86 251.34,446.43 263.12,446.43 261.64,452.82 "/>
<polygon fill="#2D3842" points="302.01,410.53 308.71,410.53 292.31,452.82 286.23,452.82 287.98,429.56 279.21,452.82 
	273.11,452.82 275.79,410.53 282.47,410.53 280.59,433.18 288.88,410.53 295.56,410.53 293.69,433.16 "/>
<polygon fill="#2D3842" points="310.68,452.82 304.3,452.82 314.07,410.53 320.46,410.53 "/>
<polygon fill="#2D3842" points="333.33,410.49 335.22,438.94 341.78,410.49 348.15,410.49 338.39,452.83 331.54,452.83 
	329.02,425.73 322.77,452.83 316.38,452.83 326.14,410.49 "/>
<path fill="#2D3842" d="M354,453.36c-2.82,0-4.99-0.99-6.5-2.97c-1.51-1.98-1.94-4.35-1.3-7.11l5.33-23.1
	c0.65-2.81,2.2-5.21,4.62-7.19c2.44-1.94,5.06-2.93,7.83-2.93c2.82,0,4.96,0.99,6.47,2.97c1.51,1.99,1.93,4.39,1.31,7.16l-1.13,4.82
	h-6.62l1.14-4.94c0.23-1.04,0.08-1.9-0.47-2.62c-0.57-0.72-1.35-1.06-2.36-1.06c-1.01,0-1.95,0.34-2.83,1.06
	c-0.87,0.73-1.42,1.58-1.67,2.62l-5.34,23.15c-0.24,1.01-0.07,1.87,0.47,2.57c0.54,0.72,1.31,1.06,2.32,1.06
	c1.01,0,1.97-0.34,2.84-1.06c0.88-0.7,1.45-1.54,1.68-2.56l1.92-8.31h-3.53l1.48-6.43h10.14l-3.4,14.8
	c-0.63,2.79-2.19,5.19-4.63,7.15C359.35,452.39,356.76,453.36,354,453.36"/>
<path fill="#2D3842" d="M413.7,453.36c-2.81,0-4.98-0.99-6.49-2.94c-1.52-1.98-1.95-4.34-1.31-7.13l5.33-23.1
	c0.67-2.81,2.21-5.21,4.63-7.19c2.44-1.94,5.05-2.93,7.83-2.93c2.81,0,4.98,0.99,6.47,2.97c1.51,1.99,1.93,4.39,1.29,7.16
	l-1.11,4.82h-6.63l1.16-4.94c0.22-1.04,0.07-1.89-0.48-2.62c-0.56-0.72-1.34-1.06-2.38-1.06c-1,0-1.94,0.34-2.81,1.06
	c-0.87,0.73-1.44,1.58-1.68,2.62l-5.33,23.15c-0.25,1.01-0.08,1.87,0.46,2.57c0.54,0.72,1.32,1.06,2.34,1.06
	c1.01,0,1.97-0.34,2.85-1.06c0.88-0.7,1.44-1.55,1.67-2.57l1.35-5.85h6.62l-1.37,5.92c-0.64,2.79-2.18,5.19-4.62,7.15
	C419.06,452.39,416.46,453.36,413.7,453.36"/>
<path fill="#2D3842" d="M449.02,409.99c2.83,0,4.97,0.99,6.5,2.97c1.51,1.98,1.95,4.37,1.3,7.17l-5.35,23.08
	c-0.62,2.81-2.17,5.19-4.6,7.17c-2.45,1.98-5.05,2.97-7.85,2.97c-2.82,0-4.96-0.99-6.47-2.99c-1.49-1.98-1.93-4.37-1.27-7.15
	l5.31-23.08c0.66-2.83,2.2-5.21,4.63-7.17C443.66,410.98,446.26,409.99,449.02,409.99 M450.2,419.97c0.23-0.99,0.07-1.85-0.47-2.57
	c-0.54-0.72-1.33-1.06-2.33-1.06c-1.02,0-1.98,0.34-2.85,1.06c-0.89,0.72-1.44,1.58-1.66,2.57l-5.36,23.17
	c-0.22,1.01-0.08,1.87,0.47,2.6c0.57,0.68,1.35,1.06,2.37,1.06c1.01,0,1.95-0.38,2.82-1.06c0.87-0.73,1.44-1.59,1.68-2.6
	L450.2,419.97z"/>
<polygon fill="#2D3842" points="461.24,452.82 454.87,452.82 464.63,410.49 473.79,410.49 472.72,440.91 485.45,410.49 
	494.22,410.49 484.46,452.82 478.07,452.82 484.22,426.23 472.54,452.82 467.42,452.82 467.37,426.29 "/>
<path fill="#2D3842" d="M509.99,410.52c3.11,0,5.35,0.99,6.74,2.94c1.3,1.87,1.58,4.26,0.93,7.16l-1.42,6.16
	c-0.64,2.77-2.17,5.17-4.57,7.15c-2.41,1.99-4.98,2.97-7.76,2.97h-3.68l-3.67,15.92h-6.38l9.75-42.3H509.99L509.99,410.52z
	 M511.46,420.73c0.24-1.11,0.12-2-0.4-2.67c-0.49-0.66-1.31-1.01-2.4-1.01h-3.86l-3.13,13.52h3.85c1.01,0,1.97-0.33,2.85-1.04
	c0.85-0.74,1.41-1.6,1.65-2.61L511.46,420.73z"/>
<path fill="#2D3842" d="M521.66,443.11l-3.79,9.71h-6.64l16.96-42.3h8.78l-2.68,42.3h-6.72l0.75-9.71H521.66L521.66,443.11z
	 M530.31,420.23l-6.22,16.66h4.73L530.31,420.23z"/>
<polygon fill="#2D3842" points="556.59,410.49 558.48,438.94 565.05,410.49 571.42,410.49 561.66,452.83 554.81,452.83 
	552.3,425.73 546.03,452.83 539.65,452.83 549.41,410.49 "/>
<polygon fill="#2D3842" points="579.42,435.1 576.57,410.49 583.6,410.49 584.8,425.69 593,410.49 600.06,410.49 585.79,435.1 
	581.7,452.82 575.34,452.82 "/>
<g>
	<path fill="#2D3842" d="M372.37,252.94c0.31,0,0.61-0.2,0.89-0.4l0.18-0.14l-0.17-0.14c-0.16-0.14-0.32-0.21-0.51-0.21
		c-0.29,0-0.53,0.19-0.77,0.38l-0.29,0.23l0.22,0.13C372.08,252.89,372.21,252.94,372.37,252.94z"/>
	<path fill="#2D3842" d="M360.03,247.3l-0.1,0.12c-0.31,0.44-0.27,0.89,0.15,1.27l0.18,0.13l0.1-0.19c0.14-0.25,0.32-0.53,0.22-0.83
		c-0.05-0.17-0.19-0.31-0.43-0.44L360.03,247.3z"/>
	<path fill="#2D3842" d="M343.93,255.87l-0.31,0.17l0.31,0.16c0.21,0.11,0.44,0.16,0.67,0.16c0.63,0,1.19-0.41,1.73-0.8
		c0.6-0.43,1.17-0.84,1.74-0.68l0.21,0.02l0.02-0.22c0.01-0.26,0.37-0.39,0.9-0.56c0.53-0.12,1.11-0.29,1.16-0.82v-0.25l-0.26,0.09
		C348.02,253.86,345.94,254.78,343.93,255.87z"/>
	<path fill="#2D3842" d="M357.54,269.5l0.1-0.34c0.04-0.14,0.1-0.28,0.17-0.44c0.17-0.4,0.35-0.85,0.15-1.27l-0.11-0.28l-0.19,0.26
		c-0.42,0.55-0.81,1.23-0.34,1.8L357.54,269.5z"/>
	<path fill="#2D3842" d="M354,269c-0.25,0.31-0.58,0.78-0.16,1.16l0.14,0.13l0.11-0.15c0.39-0.52,0.78-1.12,0.51-1.67l-0.22-0.43
		l-0.12,0.48C354.22,268.64,354.11,268.81,354,269z"/>
	<path fill="#2D3842" d="M349.72,272.09c0.16-0.07,0.78-0.65,0.86-1.15c0.03-0.21-0.03-0.37-0.18-0.52l-0.2-0.15l-0.08,0.21
		c-0.06,0.15-0.17,0.29-0.25,0.44c-0.22,0.33-0.42,0.65-0.4,1.04l0.01,0.22L349.72,272.09z"/>
	<path fill="#2D3842" d="M349.61,276.02l-1.04,1.04c-2.05,2.06-4.37,4.68-3.98,6.54l0.16,0.77l0.2-0.75c0.33-1.3,1.37-2.71,2.36-4.1
		c0.54-0.72,1.1-1.5,1.54-2.23L349.61,276.02z"/>
	<path fill="#2D3842" d="M442.25,283.62c-0.58-1-1.94-1.36-3.37-1.74c-1.77-0.48-3.61-0.96-3.84-2.75l-0.01-0.12l-0.1-0.02
		c-3.03-1.08-6.05-1.73-8.98-2.38c-5.44-1.19-11.08-2.4-16.99-6.31c-3.04-1.99-4.69-4.34-6.29-6.59c-0.94-1.32-1.9-2.69-3.13-3.95
		c-0.93-0.95-2.02-2.33-2.26-3.12c-0.46-1.67,0.38-4.04,1.75-5.01c0.59-0.41,1.5-0.73,2.56,0.03c1.17,0.79,1.45,2.11,1.75,3.35
		c0.29,1.25,0.56,2.53,1.72,3.36l0.72,0.5l-0.46-0.75c-0.71-1.15-0.83-2.34-0.97-3.63c-0.21-1.98-0.42-4.01-2.97-5.78l-0.06-0.04
		l-0.07,0.02c-3.06,0.35-6.41,1.12-8.09,3.93c-1.45,2.47,0.02,4.75,1.45,6.96c0.66,1.03,1.34,2.07,1.73,3.12
		c-1.74-1.73-2.64-3.91-3.61-6.2c-0.46-1.13-0.95-2.26-1.53-3.36c-0.63-1.17-1.51-2.19-2.39-3.18c-0.77-0.88-1.55-1.79-2.14-2.78
		c-1.75-2.92-1.02-6.11-0.3-9.21c0.72-3.21,1.48-6.57-0.65-9.42l-0.88-1.18l0.59,1.37c0.97,2.32,0.21,4.77-0.61,7.39
		c-0.23,0.72-0.46,1.46-0.64,2.17c-0.5,1.92-1.09,4.42-1.09,6.62c0,4.72,3.12,8.42,6.73,12.71c0.46,0.54,0.92,1.1,1.39,1.64
		c-0.55-0.38-1.06-0.84-1.56-1.37c-2.37-2.51-4.69-5.11-6.35-7.14c-0.35-0.44-0.69-0.91-1.02-1.37c-0.66-0.93-1.37-1.9-2.28-2.68
		c-1.9-1.61-3.69-2.38-5.42-3.15c-0.47-0.21-0.91-0.42-1.37-0.63l-0.56-0.27c-4.9-2.36-9.98-4.8-14.85-2.4l-0.8,0.37l0.89-0.04
		c5.64-0.27,13.6,0.96,19.65,8.3c-0.24,0.27-0.44,0.42-0.64,0.44c-0.2-0.19-0.38-0.4-0.59-0.64c-1.03-1.08-2.34-2.45-2.6-3.25
		l-0.34,0.08c0.2,0.76,0.38,1.67,0.41,2.58c-0.13-0.38-0.29-0.71-0.57-1.01c-0.78-0.85-5.13-3.4-5.79-3.4h-0.52l0.4,0.3
		c0.29,0.22,0.66,0.43,1.05,0.64c0.96,0.57,2.03,1.21,2.42,2.17c-0.17,0.02-0.36-0.04-0.58-0.12l-0.04-0.02l0.38,0.02l-0.95-0.38
		c-0.44-0.21-0.92-0.46-1.4-0.69c-0.83-0.42-1.69-0.85-2.52-1.08l1.26-0.03l-1.46-0.34c-0.29-0.04-0.6-0.26-0.92-0.44
		c-0.4-0.27-0.85-0.55-1.27-0.55c-0.18,0-0.34,0.07-0.49,0.15l-0.21,0.12l0.19,0.17c0.83,0.72,1.59,0.9,2.28,0.93l0.45,0.31
		c0.62,0.42,0.99,0.84,1.1,1.27c-1.35-0.45-2.73-1.04-4.07-1.56c-1.49-0.63-3.05-1.27-4.56-1.73l-0.34-0.13l0.13,0.34
		c0.24,0.62,0.94,0.84,1.63,1.04c0.8,0.26,1.33,0.47,1.37,1c-0.61-0.28-1.25-0.29-1.86-0.31c-0.54-0.01-1.11-0.02-1.61-0.19
		c-0.43-0.16-0.85-0.44-1.3-0.78c-0.88-0.61-1.92-1.33-3.14-0.81l-0.19,0.08l0.1,0.2c0.29,0.46,0.93,0.61,1.61,0.79
		c0.77,0.17,1.53,0.38,1.77,0.98c-0.27-0.02-0.54-0.15-0.84-0.27c-0.5-0.19-0.99-0.4-1.48-0.24c-0.85-1.22-4.1-1.39-5.86-1.49
		c-0.39-0.03-0.68-0.03-0.81-0.07c-0.19-0.02-0.41-0.12-0.64-0.25c-0.3-0.15-0.58-0.29-0.84-0.23c-0.04-0.08-0.12-0.13-0.22-0.19
		l-0.13-0.06l-0.08,0.1c-0.12,0.11-0.45,0.46-0.32,0.79c0.02,0.1,0.1,0.17,0.18,0.21l-0.32,0.92l0.53-0.83
		c0.27,0.07,0.59,0.09,0.87,0.09c0.1,0,0.23,0,0.27,0.01c0.68,0.16,1.42,0.2,2.2,0.26c1.7,0.1,3.44,0.21,4.59,1.35
		c-0.07,0-0.15,0.03-0.2,0.07c-0.13,0.1-0.15,0.27-0.2,0.48v0.05c-0.15-0.04-0.28-0.1-0.42-0.16c-1.55-0.56-3.16-1.18-4.62-0.34
		l-0.34,0.2l0.36,0.12c0.55,0.2,1.08,0.24,1.54,0.28c0.76,0.04,1.34,0.08,1.76,0.82c-0.07,0-0.15-0.01-0.23-0.02
		c-0.32-0.04-0.71-0.07-1.03,0.34l-0.1,0.12l0.11,0.1c0.08,0.06,0.13,0.11,0.19,0.17c0.05,0.04,0.13,0.1,0.18,0.14
		c-0.82,0.07-1.7-0.02-2.64-0.1c-2.02-0.19-4.11-0.37-5.56,0.93l-0.62,0.57l0.8-0.25c2.41-0.8,5.63-1.35,7.42,0.66
		c-0.12,0.17-0.27,0.21-0.44,0.27c-0.12,0.04-0.27,0.08-0.4,0.19l-0.22,0.15l0.23,0.14c0.21,0.13,0.41,0.15,0.6,0.19
		c0.22,0.02,0.4,0.04,0.61,0.28c-0.04,0.04-0.08,0.08-0.12,0.13l-0.15-0.08c-0.39-0.2-0.77-0.36-1.13-0.48
		c-0.18-0.07-0.34-0.15-0.53-0.22c0.11-0.06,0.19-0.08,0.3-0.08c0.19-0.04,0.39-0.08,0.58-0.26l0.26-0.24l-0.33-0.06
		c-0.13-0.02-0.26-0.05-0.41-0.05c-0.75,0-1.51,0.32-1.54,0.94v0.26l0.23-0.09c0.13-0.05,0.29,0.05,0.44,0.14
		c-0.73,0.11-1.48,0.13-2.2,0.13c-1.94,0.02-3.95,0.04-5.76,1.67l-0.37,0.31h0.5c0.91-0.02,1.57-0.38,2.21-0.71
		c0.45-0.25,0.88-0.49,1.4-0.6c0.49-0.09,1.03-0.16,1.7-0.16c0.42,0,0.88,0.02,1.3,0.04c0.42,0.04,0.87,0.05,1.29,0.05
		c0.81,0,1.45-0.09,1.99-0.23c-0.45,0.53-0.99,1.32-1.12,1.81l-0.17,0.54l0.44-0.35c0.14-0.13,0.29-0.21,0.44-0.27l-0.05,0.16
		l0.01-0.01l0,0.02l0.17-0.14l0.13-0.1c0.76-0.19,1.69,0.05,2.43,0.23c0.12,0.04,0.26,0.07,0.38,0.11
		c-0.44,0.23-0.95,0.56-0.81,1.12l0.07,0.27l0.22-0.19c0.77-0.65,1.68-0.54,2.62-0.44c0.65,0.07,1.29,0.13,1.92-0.04
		c0.38-0.11,0.66-0.31,0.93-0.5c0.36-0.32,0.66-0.54,1.16-0.42c0,0.06,0.03,0.14,0.12,0.23c-0.28,0.27-0.56,0.4-0.86,0.54
		c-0.43,0.21-0.89,0.43-1.3,1.02l-0.24,0.34l0.4-0.05c0.47-0.06,0.97-0.08,1.52-0.11c1.83-0.07,3.91-0.16,5.11-1.72l0.08-0.11
		c0.11,0.07,0.25,0.11,0.28,0.17c0,0.01,0,0.06-0.06,0.15c-1.57,0.93-3.65,2.09-5.79,2.66l-0.3,0.1l0.21,0.22
		c0.69,0.71,1.28,0.25,1.76-0.12c0.14-0.12,0.3-0.24,0.44-0.3c1.37-0.3,2.75-0.38,4.12-0.49l0.41-0.02l0.06-0.02
		c0.21-0.1,0.37-0.25,0.53-0.38c0.28-0.25,0.47-0.37,0.64-0.35c-0.43,1.04-1.18,1.18-1.99,1.31c-0.68,0.1-1.4,0.22-1.79,1
		l-0.22,0.42l0.44-0.17c1.89-0.78,4.37-1.23,6.23-1.13c-0.62,0.21-1.27,0.44-1.43,0.95c-0.66-0.36-1.42-0.49-2.34-0.2l-0.65,0.22
		l0.66,0.14c0.65,0.12,2.09,0.65,2.41,1.41c0.1,0.2,0.1,0.38,0.01,0.59c-0.9-0.48-1.89-0.59-2.77-0.66
		c-0.76-0.08-1.46-0.16-2.01-0.44l0.44-0.09l-0.58-0.25c-0.3-0.1-0.58-0.18-0.86-0.25l-0.44-0.25l0.21,0.19
		c-0.06-0.02-0.1-0.02-0.15-0.03c-0.58-0.14-1.12-0.27-1.69-0.58l-0.12-0.06l-0.09,0.08c-0.58,0.57-1.23,0.28-1.98-0.04
		c-0.79-0.38-1.67-0.78-2.42,0.02l-0.14,0.17l0.19,0.11c0.58,0.36,1.39,0.54,2.25,0.75c0.73,0.17,1.47,0.33,2.16,0.63
		c-0.48,0.04-0.95,0.08-1.42,0.12c-0.92,0.09-1.85,0.19-2.76,0.34c-0.32-0.15-1.98-0.89-2.64-0.4c-0.17,0.13-0.33,0.36-0.27,0.78
		l0.02,0.1l0.12,0.02c0.23,0.07,0.39-0.08,0.51-0.21c0.04-0.04,0.12-0.12,0.16-0.14c0.59,0.78,1.4,0.78,2.19,0.78
		c0.57-0.02,1.13-0.02,1.64,0.25c-0.11,0-0.23-0.06-0.37-0.1c-0.29-0.11-0.67-0.21-1,0.06l-0.15,0.13l0.12,0.12
		c-0.89-0.16-1.77,0.07-2.64,0.3c-0.58,0.12-1.11,0.27-1.65,0.29c-0.34,0.02-0.69-0.08-1.03-0.19c-0.64-0.19-1.37-0.4-2.05,0.19
		l-0.14,0.11l0.1,0.12c0.38,0.55,0.91,0.63,1.33,0.69c0.33,0.07,0.54,0.11,0.64,0.26c-2.81,0.65-6.11,1.35-9.5,1.69
		c-0.3,0.02-0.6,0-0.94-0.05c-0.84-0.06-1.81-0.14-2.47,0.74l-0.22,0.27l0.34,0.02c1.27,0.05,2.53-0.25,3.76-0.5
		c1.26-0.28,2.48-0.55,3.7-0.51c-0.21,0.07-0.36,0.16-0.51,0.3l-0.35,0.31l0.47-0.01c0.1,0,0.17,0,0.27-0.01
		c0.4-0.02,0.91-0.04,1.14,0.15c-1.16,0.17-2.31,0.57-3.43,0.95c-1.29,0.44-2.6,0.89-3.9,1.03l-0.31,0.03l0.17,0.23
		c0.6,0.96,1.42,0.59,2.13,0.28c0.19-0.08,0.36-0.15,0.54-0.21l0.39,0.23c-0.69,0.29-1.54,0.52-2.42,0.76
		c-1.35,0.38-2.74,0.76-3.64,1.38c-0.17,0.1-1.49,1.01-1.35,1.6c0.06,0.21,0.24,0.33,0.58,0.38h0.14l0.04-0.15
		c0.1-0.4,0.71-0.89,1.43-1.18c0.71-0.3,1.41-0.35,1.91-0.17c-0.22,0.1-0.45,0.1-0.72,0.1c-0.37,0-0.8,0-1.19,0.36l-0.1,0.11
		l0.06,0.1c0.14,0.25,0.36,0.27,0.57,0.25c-0.68,0.19-1.3,0.55-1.93,0.89c-0.54,0.3-1.09,0.59-1.65,0.78l-0.27,0.08l0.19,0.21
		c0.17,0.17,0.38,0.23,0.54,0.31c0.09,0.02,0.19,0.07,0.21,0.1c0,0,0,0.05-0.05,0.16c-0.67,0.71-1.37,1.13-2.1,1.58l-0.23,0.15
		l0.06,0.13c0.17,0.37,0.53,0.37,0.74,0.35c-0.59,0.68-0.9,1.31-1.21,1.96c-0.24,0.53-0.48,1-0.86,1.53l-0.06,0.07l0.02,0.09
		c0.06,0.17,0.18,0.31,0.3,0.38c0.27,0.13,0.57,0.02,0.88-0.1c0.2-0.07,0.39-0.13,0.58-0.13c-0.1,0.22-0.15,0.44-0.19,0.68
		c-0.07,0.44-0.16,0.87-0.6,1.34l-0.3,0.3l0.42,0.01h0.01c0.78,0,1.5-0.37,2.19-0.72c0.62-0.32,1.21-0.61,1.81-0.66
		c-0.27,0.38-0.43,0.61-0.21,0.93c-2.08,0.94-4.14,5.33-4.16,5.39l-0.06,0.13l0.14,0.08c0.21,0.13,0.41,0.17,0.6,0.1
		c0.34-0.12,0.53-0.54,0.7-0.97c0.1-0.21,0.21-0.46,0.32-0.61c0.95-1.31,2.32-2.83,3.41-4.03l0.3-0.31
		c1.56-0.23,3.06-0.96,4.44-2.22c-0.2,1.17-1.36,1.71-2.41,2.17c-0.34,0.15-0.68,0.31-0.97,0.47l-0.57,0.33h0.67
		c2.63-0.02,5.06-1.96,7.5-4.2c-0.29,0.78-0.56,1.58-0.25,2.35l0.12,0.3l0.19-0.27c0.6-0.93,1.35-1.38,2.1-1.78
		c0.85-0.48,1.71-0.97,2.2-2.14c0.37-0.09,0.74-0.07,1.09-0.03c-0.04,0.24-0.19,0.51-0.32,0.76c-0.25,0.46-0.51,0.95-0.3,1.43
		l0.12,0.26l0.19-0.22c1.67-1.81,3.13-2.86,5.01-3.58c0,0.09-0.02,0.19-0.05,0.29c-0.05,0.2-0.11,0.46,0.04,0.71
		c-0.65,0.19-1.29,0.49-1.9,1.07l-0.26,0.23l0.34,0.06c0.19,0.05,0.37,0.07,0.61,0.07c1.31,0,2.81-0.82,3.27-1.08
		c0.05-0.03,0.1-0.05,0.14-0.09l-0.1-0.17c0.12-0.02,0.24-0.06,0.34-0.1c0.44-0.11,0.91-0.24,0.91-0.64v-0.28l-0.26,0.12
		c-0.61,0.29-1.25,0.42-1.9,0.54c-0.2,0.04-0.41,0.08-0.61,0.12c0.32-0.57,0.84-0.85,1.43-1.13c0.58-0.26,1.2-0.58,1.71-1.24
		c0.2,0.21,0.24,0.46,0.27,0.73c0.02,0.13,0.04,0.28,0.07,0.4l0.01,0.02c-0.29,0.17-0.51,0.36-0.69,0.72l-0.17,0.36l0.46-0.15
		c0.63-0.19,1.7-0.53,2.34-0.39c-0.1,0.03-0.21,0.05-0.3,0.08c-1.47,0.4-3.33,0.92-4.27,1.93l-0.27,0.3h0.1
		c-0.06,0.04-0.12,0.08-0.18,0.12l-0.12,0.11l0.09,0.14c0.28,0.34,0.68,0.24,0.97,0.17c0.09-0.04,0.28-0.06,0.32-0.04v0.02
		c-1.21,0.67-2.62,1.14-3.95,1.59c-1.43,0.48-2.78,0.93-3.84,1.56l-0.36,0.25l0.4,0.08c1.34,0.36,2.56-0.3,3.74-0.93
		c0.83-0.44,1.62-0.87,2.46-0.95c-0.18,0.16-0.38,0.35-0.56,0.52c-0.56,0.58-1.14,1.19-1.73,1.33l-0.39,0.13l0.35,0.21
		c0.53,0.31,1.14,0.19,1.69,0.08c0.54-0.08,0.91-0.16,1.17,0.07c-1.16,1.22-2.4,2.04-3.59,2.87c-0.76,0.5-1.57,1.03-2.34,1.67
		l-0.17,0.12l0.15,0.15c0.68,0.63,1.38-0.02,1.91-0.5c0.15-0.13,0.3-0.27,0.41-0.36c0.46-0.33,0.91-0.67,1.36-1.04
		c0.63-0.48,1.23-0.97,1.83-1.37c-0.06,0.25-0.29,0.54-0.48,0.85c-0.32,0.42-0.65,0.88-0.54,1.33l0.06,0.29l0.24-0.23
		c0.99-0.92,2.04-1.29,2.99-1.44c-1.02,1.11-2.18,2-3.42,2.94c-0.44,0.32-0.87,0.63-1.3,1c-0.22,0.15-0.46,0.33-0.73,0.5
		c-0.94,0.63-2.11,1.4-1.59,2.55l0.11,0.22l0.55-0.54c2.25-2.17,4.73-4.55,7.3-6.08l0.04,0.18l0.07-0.22
		c0.39-0.23,0.79-0.44,1.18-0.62c-0.23,0.26-0.51,0.56-0.83,0.85c-1.12,1.12-2.4,2.42-2.02,3.65l0.07,0.19l0.19-0.08
		c0.61-0.28,0.91-0.88,1.25-1.54c0.23-0.46,0.45-0.92,0.82-1.32c0.89-0.94,2.11-1.75,3.18-2.44c0.33-0.24,0.67-0.44,0.96-0.67
		c-0.23,0.4-0.68,0.84-1.15,1.31c-1.1,1.1-2.34,2.33-1.39,3.52l0.27,0.36l0.06-0.44c0.28-2.1,1.96-3.5,3.59-4.86
		c0.67-0.54,1.31-1.08,1.85-1.64c-0.26,0.58-0.61,1.18-0.94,1.79c-0.81,1.39-1.65,2.83-1.43,4.2l0.1,0.54l0.24-0.48
		c0.29-0.57,0.5-1.21,0.73-1.9c0.51-1.5,1.04-3.04,2.3-3.88c-0.15,0.55-0.43,1.08-0.73,1.58c-0.31,0.57-0.62,1.12-0.71,1.67
		l-0.08,0.48l0.36-0.29c0.76-0.64,1.16-1.46,1.52-2.24c0.43-0.9,0.85-1.75,1.74-2.29c-0.04,0.12-0.06,0.23-0.04,0.35
		c0,0.03,0.02,0.05,0.03,0.08l-0.07,0.14c-0.32,0.65-0.64,1.67,0.31,2.48l0.13,0.11l0.12-0.11c0.55-0.62,0.27-1.2,0.04-1.66
		c-0.11-0.2-0.19-0.4-0.23-0.6l0.09,0.07l0.1-0.17c0.66-1,0.67-2.36,0.69-3.71c0-1.48,0.01-2.79,0.88-3.39
		c-0.36,0.37-0.62,0.84-0.62,1.17c0,0.3,0.17,0.49,0.46,0.55l0.24,0.06l-0.04-0.25c-0.04-0.27,0.06-0.85,0.25-0.93
		c0-0.02,0.02-0.04,0.07-0.02c0.05,0.97-0.29,1.73-0.69,2.58l-0.11,0.27l0.31,0.19c0.14-0.21,0.28-0.34,0.43-0.36
		c0.06-0.02,0.11-0.02,0.16,0c-1.31,0.81-1.71,2.3-1.23,4.46l0.36-0.06c-0.03-0.79,0.37-2.08,1.21-2.92
		c-0.25,0.34-0.51,0.73-0.2,1.1l0.1,0.12l0.15-0.08c0.78-0.48,1-1.16,1.25-1.77c0.11-0.31,0.22-0.59,0.38-0.87
		c-0.03,0.06-0.04,0.13-0.04,0.19s0.02,0.17,0.14,0.25l0.06,0.06l0.09-0.02c1.1-0.27,1.37-1.24,1.62-2.08
		c0.03-0.11,0.06-0.19,0.1-0.28c-0.02,0.17,0.02,0.39,0.28,0.57l0.2,0.13l0.07-0.24c1.06-3.79,5.68-4.43,7.56-4.52
		c-0.76,0.91-1.79,1.59-2.77,2.24c-1.53,0.99-3.09,2-3.66,3.82c-1.05,3.4-2.41,7.66-1.6,11.1c0.15,0.55,0.34,1.08,0.55,1.61
		c0.46,1.09,0.88,2.13,0.4,3.21l0.32,0.17c1.54-2.5,0.83-4.73,0.21-6.73c0.02-2.11,1.82-5.01,3.44-7.59l0.36-0.6
		c1.4-2.23,3.68-3.29,6.1-4.37l0.28-0.15c3.82-1.73,6.57-1.69,10.89-0.96c7.54,1.28,12.91,2.92,15.97,4.88
		c1.91,1.23,3.78,2.33,5.62,3.41c2.5,1.47,4.89,2.87,7.13,4.47l0.17,0.11c2.53,1.79,4.73,3.33,7.15,2.85l0.23-0.04l-0.11-0.21
		c-1.04-1.92-3.02-3.01-4.92-4.05c-1.44-0.79-2.91-1.61-4.04-2.76c2.5,0.66,5.06,1.53,7.56,2.37c2.77,0.92,5.64,1.89,8.45,2.58
		l0.17,0.04l0.05-0.15C442.6,284.87,442.56,284.16,442.25,283.62z M362.75,252.65c-0.35-0.02-0.71,0.13-1.02,0.23
		c-0.42,0.17-0.69,0.24-0.85,0.18c0.44-0.26,0.91-0.64,1.38-1.05c0.83-0.69,1.7-1.41,2.44-1.35c0.18,0,0.36,0.08,0.53,0.21h-0.17
		c-0.39-0.03-0.83-0.05-1.19,0.34l-0.14,0.11l0.12,0.14c0.26,0.28,0.6,0.15,0.87,0.04c0.09,0,0.25-0.04,0.27-0.04
		c0,0,0.02,0,0.02,0.06c-0.41,0.53-0.85,0.5-1.36,0.48c-0.3-0.02-0.6-0.04-0.9,0.07l-0.09,0.02l-0.03,0.1
		C362.57,252.4,362.64,252.55,362.75,252.65z M376.67,270.04c0,0,0,0.02-0.02,0.05c-0.11-0.05-0.21-0.09-0.31-0.15
		c0.02,0.02,0.04,0.02,0.06,0.02C376.5,269.98,376.65,270.04,376.67,270.04z M354.6,267.75c0.8,0.68,0.07,2.05-0.66,3.37
		c-0.2,0.36-0.39,0.72-0.53,1.06l-0.06,0.14l0.1,0.09c0.33,0.21,0.62,0.02,0.82-0.1c0.13-0.11,0.22-0.15,0.3-0.15
		c-0.34,0.34-0.69,0.48-1.07,0.62c-0.39,0.16-0.78,0.31-1.16,0.68c0.26-0.76,0.22-1.52,0.18-2.27c-0.04-1.23-0.1-2.38,1.03-3.57
		c0.55-0.59,1.16-0.76,1.86-1.02c0.22-0.06,0.44-0.14,0.67-0.23c0.03,0.02,0.03,0.06,0.06,0.11c0,0.04,0.02,0.08,0.04,0.12
		c-0.55,0.4-1.01,0.75-1.48,0.83l-0.36,0.09L354.6,267.75z M347.46,272.56c0.44-1.73,0.87-3.38,2.92-4.01l0.37,0.3
		c-0.13,0.23-0.3,0.31-0.47,0.44c-0.11,0.08-0.24,0.15-0.33,0.27l-0.06,0.02l-0.01,0.07c-0.03,0.12,0,0.21,0.06,0.29
		c0.09,0.12,0.28,0.12,0.48,0.1c0.24,0,0.42,0,0.51,0.09c-0.06,1.64-1.27,2.55-2.96,3.63l-0.23,0.12l0.23,0.16
		c0.38,0.24,0.75,0.22,1.06,0.22c0.05,0,0.08,0,0.12-0.02c-0.38,0.13-0.77,0.29-1.12,0.46c-0.53,0.19-1.03,0.42-1.55,0.55
		C346.97,274.44,347.22,273.47,347.46,272.56z M344.5,266.61c0.86-0.48,1.67-0.93,2.52-0.7c0.32,0.59,0.84,0.74,1.32,0.9
		c0.31,0.1,0.61,0.16,0.89,0.37c-0.09,0.04-0.16,0.09-0.21,0.19c-0.08,0.12-0.01,0.29,0.11,0.46c-0.33-0.02-0.65-0.08-0.97-0.15
		l-0.44-0.06l0.15,0.29c0.06,0.14,0.07,0.19,0.07,0.2c-0.06,0.03-0.28-0.01-0.41-0.03c-0.16-0.03-0.35-0.06-0.51-0.05l-0.15,0.02
		v0.18c0,0.18,0.19,0.36,0.51,0.48c0.09,0.02,0.21,0.06,0.33,0.09c-1.33,0.57-3.31-0.32-5.23-1.4
		C343.19,267.37,343.86,266.97,344.5,266.61z M348.48,268.43C348.48,268.43,348.49,268.43,348.48,268.43
		C348.49,268.43,348.48,268.43,348.48,268.43L348.48,268.43z M352.06,273.81c-0.03,0.04-0.07,0.06-0.11,0.12
		c-0.02-0.02-0.04-0.06-0.06-0.08c0.02,0,0.03,0,0.04,0C351.97,273.85,352.02,273.83,352.06,273.81z M352.99,264.6
		c0.29,0.17,1.15,0.78,1.22,1.37c0.02,0.11,0,0.21-0.05,0.3c-0.25-0.59-0.61-1.1-1.62-1.29l-0.13-0.04l-0.07,0.12
		c-0.19,0.38,0.22,0.63,0.52,0.84c0.02,0,0.05,0.02,0.08,0.04c-0.45-0.02-0.92-0.14-1.42-0.27c-0.47-0.15-0.95-0.29-1.43-0.31
		l-0.26-0.01l0.1,0.26c0.24,0.69,1.27,1.14,1.97,1.35c-0.68,0.25-1.96-0.55-3.19-1.35c-0.61-0.36-1.24-0.79-1.79-1.06
		c0.07-0.02,0.15,0.02,0.36,0.1c0.15,0.07,0.34,0.15,0.52,0.17c0.58,0.02,1.23-0.12,1.93-0.27
		C350.87,264.33,352.06,264.05,352.99,264.6z M368.8,272.54c-0.21,0.04-0.39,0.12-0.55,0.24l-0.14,0.12l0.1,0.14
		c0.19,0.23,0.36,0.25,0.51,0.23c-1.1,0.4-2.3,0.07-3.62-1.08c1.49-0.73,2.71-1.14,4.17,0.04
		C369.24,272.37,369.1,272.43,368.8,272.54z M365.81,274.1c-0.2,0.21-0.39,0.25-0.66,0.3c-0.26,0.04-0.56,0.09-0.84,0.37l-0.13,0.16
		l0.13,0.12c0.28,0.21,0.98,0.33,1.62,0.19c-0.23,0.15-0.47,0.25-0.73,0.29c-0.96,0.15-2.13-0.27-3.14-1.12
		c0.75-0.65,1.62-1.02,2.38-1C364.99,273.44,365.45,273.7,365.81,274.1z M362.1,269.73c0.15-0.35,0.3-0.69,0.45-1.05
		c0.16-0.32,0.31-0.67,0.46-1l0.07-0.13l-0.12-0.1c-0.27-0.23-0.51-0.34-0.8-0.34l-0.13,0.01l-0.03,0.14
		c-0.27,0.98-0.33,1.71-0.27,2.4l0.05,0.38c-0.09,0.08-0.18,0.16-0.27,0.24c-0.34,0.3-0.57,0.53-0.82,0.55
		c0.48-0.82,0.69-1.79,0.9-2.76c0.38-1.84,0.72-3.43,2.85-3.59c0.02,0.06,0.02,0.08,0.02,0.08c-0.03,0.04-0.2,0.06-0.31,0.08
		c-0.32,0.03-0.76,0.09-0.96,0.48l-0.07,0.13l0.14,0.09c0.3,0.21,0.63,1.01,0.76,1.66c-0.16,0.28-0.4,0.54-0.65,0.81
		c-0.5,0.55-1.08,1.17-0.83,1.73c-0.18,0.07-0.35,0.17-0.5,0.28L362.1,269.73z M360.31,262.04c-0.47-0.31-0.97-0.65-1.46-0.86
		l-0.24-0.09l-0.01,0.26c-0.02,0.48,0.64,0.85,1.21,1.13c0.25,0.14,0.72,0.37,0.73,0.49c0,0-0.01,0.05-0.09,0.11l-0.22,0.13
		l0.22,0.16c0.82,0.55,1.58,0.63,2.36,0.63c-0.25,0.13-0.49,0.21-0.78,0.21c-1.5-0.02-3.41-2.04-4.81-3.59
		c1.17-0.29,4.51-0.8,5.65,2.23C362.15,263.3,361.26,262.68,360.31,262.04z M384.66,265.76c-2.17,0.34-4.4,0.65-6.57,0.36
		c-0.86-0.13-1.65-0.44-2.49-0.8c-1.07-0.44-2.16-0.88-3.38-0.88c2.86-1.16,6.02-0.93,9.32-0.7l0.08,0.02
		c3.39,0.21,6.3,0.72,9.09,1.56C388.66,265.15,386.64,265.47,384.66,265.76z M372.81,265.91c-0.23,0.71-0.44,1.4-0.79,2.08
		c-0.72-0.4-1.45-0.24-2.12-0.1c-0.76,0.17-1.39,0.3-1.91-0.31c0.38-0.46,0.78-0.88,1.18-1.24c0.1-0.07,0.2-0.15,0.29-0.22
		c0.03-0.02,0.05-0.04,0.08-0.06c0.1-0.08,0.19-0.17,0.28-0.26c0.43-0.32,0.87-0.61,1.34-0.87c0.58,0.3,1.15,0.57,1.71,0.8
		L372.81,265.91z M374.38,267.54c-0.69-0.36-0.85-0.79-1.04-1.24c-0.07-0.14-0.13-0.28-0.19-0.43l-0.01-0.04
		c3.59,1.54,6.86,2.3,9.92,2.3h0.07c-2.47,0.68-5.75,1.53-7.68-1.12l-0.04-0.04l-0.06-0.02c-0.06-0.02-0.13-0.02-0.21-0.02h-0.02
		l-0.02-0.11l-0.04,0.11c-0.28,0.04-0.42,0.25-0.53,0.42C374.48,267.43,374.43,267.52,374.38,267.54z M356.4,264.08
		c-0.55-0.51-1.06-0.65-1.6-0.77l-0.38-0.09l0.21,0.35c0.5,0.94,1.77,1.12,2.69,1.25c-1.21,0.65-3.62-1.06-5.24-2.19
		c-0.2-0.14-0.36-0.28-0.52-0.36c0.47-0.04,0.99-0.15,1.51-0.24c1.56-0.26,3.3-0.58,4.27,0.2c0.46,0.36,0.73,0.92,0.82,1.75
		C357.57,263.74,356.94,263.53,356.4,264.08z M356.4,271.71c0.14-0.25,0.33-0.54,0.4-0.93c0.05-0.25,0.07-0.57,0.11-0.92
		c0.13-1.17,0.32-2.79,1.21-3.3c0.18-0.08,0.4-0.15,0.66-0.15c0.3,0,0.66,0.11,1.07,0.26c-0.42,0.46-0.67,0.9-0.93,1.32
		c-0.23,0.36-0.4,0.71-0.7,1.05l-0.19,0.23l0.3,0.04c0.72,0.13,1.18-0.73,1.53-1.37c0.13,0.48-0.32,0.89-0.99,1.43
		c-0.44,0.34-0.89,0.69-1.16,1.15l-0.01,0.08c0,0.04-0.03,0.25,0.1,0.36c0.14,0.1,0.33,0.04,0.52-0.05c0.17-0.06,0.27-0.1,0.35-0.1
		c-0.34,0.46-0.72,0.57-1.12,0.69c-0.44,0.13-0.95,0.29-1.38,0.93C356.09,272.25,356.2,272.06,356.4,271.71z M373.74,270.45
		c-0.64,0.4-1.36,0.21-2.11,0c-0.59-0.15-1.2-0.31-1.8-0.19l-0.09,0.02l-0.03,0.11c-0.03,0.08-0.07,0.29,0.05,0.4
		c0.14,0.1,0.28,0.02,0.42-0.04c0.07-0.05,0.22-0.15,0.29-0.13c0.01,0.02,0.03,0.04,0.03,0.02c0.19,0.76,0.52,1.04,1.39,1.16
		c-0.83,0.06-1.72-0.29-3.14-1.56C370.61,269.29,372.19,268.99,373.74,270.45z M376.44,269.23c-0.16-0.09-0.3-0.13-0.46-0.15
		l-0.15-0.04l-0.06,0.12c-0.03,0.11-0.04,0.21-0.03,0.3c-0.15-0.17-0.27-0.34-0.37-0.55c-0.13-0.29-0.2-0.59-0.21-0.9
		C375.45,268.52,375.91,268.89,376.44,269.23z M365.51,253.47c0.11,0.13,0.21,0.19,0.31,0.25c-0.4,0-0.81,0-1.22-0.02
		c0.43-0.27,0.82-0.63,1.19-0.99c0.65-0.65,1.27-1.25,2.16-1.19c-0.17,0.06-0.39,0.14-0.43,0.4l-0.03,0.08l0.09,0.09
		c0.24,0.21,0.46,0.19,0.64,0.19c0.17,0,0.28,0,0.42,0.14c-0.53,0.36-1.09,0.4-1.69,0.47c-0.44,0.06-0.91,0.11-1.36,0.29l-0.22,0.06
		L365.51,253.47z M360.73,250.52l-0.04,0.05l-0.02,0.04c-0.05,0.06-0.12,0.24,0,0.37c0.09,0.11,0.26,0.09,0.38,0.05
		c-1.15,0.52-2.32,0.75-3.46,0.83c0.38-0.21,0.77-0.45,1.13-0.68c0.81-0.52,1.59-1.06,2.44-1.06c0.4,0,0.81,0.11,1.25,0.42
		c-0.13-0.02-0.25-0.06-0.37-0.09C361.62,250.36,361.17,250.25,360.73,250.52z M355.05,250.61l-0.06,0.1
		c-0.07,0.16-0.13,0.34-0.06,0.46c0.04,0.1,0.11,0.15,0.19,0.18c-0.31,0.08-0.59,0.2-0.86,0.34c-0.27,0.13-0.54,0.26-0.8,0.3
		c0.35-0.29,0.67-0.71,0.97-1.13c0.52-0.7,1.07-1.43,1.68-1.49h0.09c0.26,0,0.52,0.1,0.81,0.34c-0.28,1.03-1.46,0.95-1.83,0.91
		L355.05,250.61z M358.19,247.21c0.14,0.44,0.2,0.77-0.27,1.04c-0.5,0.08-1.57-0.38-1.83-1.08l-0.02-0.08l-0.07-0.04
		c-0.08-0.03-0.15-0.03-0.19-0.03c-0.09,0-0.16,0.03-0.21,0.08c-0.12,0.13-0.04,0.34,0.06,0.57c-0.56-0.29-0.71-0.95-0.83-1.58
		c-0.05-0.17-0.08-0.37-0.13-0.57c1.02,0.16,2.15,0.5,3.4,1.1l0.08,0.04l-0.01,0.01C358.09,246.81,358.14,247.01,358.19,247.21z
		 M364.85,248.85c-0.08,0.02-0.21-0.05-0.31-0.11c-0.22-0.11-0.55-0.25-0.81,0.04l-0.04,0.07v0.06c0,0.4,0.22,0.58,0.48,0.69
		c-1.17-0.33-2.15-1.73-2.95-2.81c-0.22-0.31-0.42-0.6-0.6-0.85c1.55,0.27,4.19,0.87,4.33,2.77
		C364.92,248.78,364.88,248.82,364.85,248.85z M361.44,248.57c-0.18-0.12-0.45-0.33-0.7-0.12c-0.05,0.06-0.24,0.17-0.24,0.4
		c0,0.18,0.17,0.33,0.35,0.46c-0.99-0.13-1.68-1.54-2.11-2.43c-0.04-0.1-0.1-0.2-0.14-0.29l-0.06-0.12l-0.14,0.02
		c-0.03,0.02-0.06,0.02-0.08,0.04c0.18-0.3,0.01-0.57-0.1-0.76l-0.01-0.01c1.46,0.1,2.81,1.49,3.47,2.97
		C361.64,248.72,361.51,248.62,361.44,248.57z M366.73,247.15c1.46,0.44,2.82,0.87,2.84,2.47c-0.34,0.32-0.72,0.06-1.44-0.52
		l-0.17-0.15l-0.09,0.21c-0.14,0.23-0.17,0.48-0.08,0.68c0.16,0.42,0.67,0.63,1.14,0.84c0.33,0.14,0.65,0.27,0.83,0.44
		c-1.27-0.12-2.19-1.09-2.98-2.21c0.14,0.08,0.31,0.14,0.53,0.19l0.34,0.06l-0.14-0.32c-0.32-0.71-0.67-0.82-0.82-0.82
		c-0.17,0-0.29,0.13-0.33,0.28c-0.14-0.22-0.28-0.44-0.42-0.66c-0.21-0.36-0.41-0.67-0.61-0.99
		C365.77,246.84,366.26,247,366.73,247.15z M370.65,253.37c1.04-1.11,1.96-2.04,3.32-1.04c-0.43,1.14-1.75,1.27-2.94,1.39
		l-0.22,0.02l0.02,0.19c0.01,0.36,0.38,0.4,0.66,0.44c0.2,0.03,0.39,0.05,0.56,0.11c-0.25,0.02-0.5,0.04-0.74,0.08
		c-0.68,0.06-1.33,0.13-2,0.02C369.77,254.3,370.21,253.82,370.65,253.37z M378.4,249.44c1.65,1.81,3.22,3.65,4.75,5.47
		c-1.65-0.48-3.61-1.52-4.46-3.06C378.27,251.09,378.19,250.29,378.4,249.44z M371.28,250.17c0.19,0.12,0.38,0.28,0.43,0.42
		c-0.17-0.15-0.33-0.3-0.5-0.47C371.25,250.11,371.27,250.15,371.28,250.17z M366.56,263.21c-0.46,0.06-0.86,0.05-1.28-0.15
		c-0.39-0.2-0.71-0.44-0.99-0.74C365.09,262.99,365.84,263.1,366.56,263.21z M334.91,277.73c0.07,0.29,0.44,0.32,0.84,0.34
		c0.17,0.02,0.36,0.04,0.53,0.06c-0.76,0.23-1.54,0.31-2.26,0.34c0.36-0.34,0.61-0.81,0.91-1.29c0.34-0.63,0.7-1.27,1.29-1.67
		c0.07,0.48,0.18,0.57,0.65,0.73c0.06,0.03,0.13,0.07,0.22,0.09c-0.62,0.75-1.28,0.95-1.99,1.16l-0.25,0.06L334.91,277.73z
		 M343.68,274.94c-0.12,0.09-0.23,0.17-0.33,0.23l-0.1,0.07l0.04,0.14c0.12,0.38,0.58,0.28,0.99,0.19c0.2-0.04,0.43-0.08,0.62-0.08
		c-0.28,0.23-0.61,0.32-0.93,0.4c-0.44,0.1-0.93,0.23-1.37,0.75c-0.07-0.82,0.22-1.94,0.79-2.87c0.62-1.06,1.45-1.78,2.32-2.01
		c0.18,0.23,0.26,0.45,0.24,0.71C345.85,273.39,344.5,274.35,343.68,274.94z M339.67,270.83c-0.5-0.27-1.03-0.55-1.54-0.69
		c0.48-0.19,0.95-0.48,1.41-0.75c1.19-0.68,2.3-1.37,3.57-0.74c-0.09,0.02-0.19,0.06-0.26,0.19l-0.08,0.12l0.1,0.11
		c0.4,0.42,0.77,0.46,1.12,0.5c0.16,0.02,0.32,0.04,0.47,0.11c-0.06,0.02-0.17,0.02-0.32,0c-0.17,0-0.37-0.02-0.46,0.14
		c-0.05,0.11-0.02,0.19,0.07,0.32c-0.08,0-0.17-0.02-0.23-0.02c-0.23-0.05-0.46-0.11-0.61,0.06c-0.06,0.08-0.08,0.17-0.08,0.23
		c-0.02,0-0.07,0-0.1,0.02c-0.45,0-0.84,0.02-1.3-0.42l-0.2-0.19l-0.1,0.28c-0.07,0.25-0.07,0.46,0.04,0.62
		c0.19,0.3,0.63,0.38,1.03,0.47c0.16,0.02,0.34,0.06,0.46,0.08C341.79,271.93,340.76,271.38,339.67,270.83z M338.02,273.43
		l-0.18,0.09l0.11,0.18c0.07,0.15,0.23,0.27,0.42,0.31c0.32,0.09,0.72-0.01,1.13-0.18c-1.3,1.06-3.35,0.48-5.02-0.04
		c0.38-0.21,0.76-0.46,1.18-0.74c0.99-0.66,2.02-1.35,2.84-1.12c0.35,0.08,0.67,0.34,0.92,0.8
		C338.99,272.98,338.51,273.25,338.02,273.43z M338.42,277.17c0.79-1.55,1.51-3.01,3.08-3.7c-0.01,1.08-0.76,2.34-1.99,3.32
		l-0.02,0.02l-0.02,0.04c-0.04,0.08-0.13,0.25,0,0.38c0.04,0.06,0.1,0.06,0.17,0.06c-0.15,0.08-0.29,0.16-0.42,0.23
		c-0.4,0.23-0.8,0.46-1.22,0.48C338.15,277.71,338.28,277.44,338.42,277.17z M332.25,276c0.13-0.04,0.22-0.08,0.34-0.08
		c0.17,0,0.32,0.06,0.47,0.17c-0.02,0-0.05,0.02-0.09,0.02c-0.1,0.06-0.24,0.12-0.38,0.31l-0.06,0.11l0.08,0.1
		c0.3,0.38,0.61,0.23,0.78,0.15c0.16-0.09,0.23-0.13,0.33,0.02c-0.41,0.9-1.06,0.97-1.81,1.07c-0.38,0.05-0.8,0.11-1.18,0.26
		C330.94,277.4,331.53,276.28,332.25,276z M358.53,279.76c0.33-0.3,0.58-0.5,0.8-0.5h0.02c-0.46,0.56-0.93,0.81-1.43,0.95
		C358.11,280.13,358.31,279.95,358.53,279.76z M364.21,277.02c-0.08,0.1-0.25,0.23-0.39,0.31c-0.08,0.07-0.16,0.12-0.26,0.19
		C363.75,277.33,363.98,277.16,364.21,277.02z M361.38,278.96c0.01,0.02-0.01,0.04-0.01,0.08c-0.02,0.08-0.05,0.21,0.01,0.34
		c-0.14,0.19-0.25,0.19-0.45,0.2c-0.17,0-0.36,0-0.57,0.15l-0.05,0.07v0.06c-0.01,0.18,0.07,0.36,0.14,0.46
		c0.08,0.16,0.12,0.26,0.1,0.36c-0.08,0.1-0.16,0.21-0.24,0.28l0.05-0.3l-0.2,0.4c-0.08,0.08-0.19,0.1-0.28,0.19
		c-0.21,0.1-0.41,0.21-0.61,0.44c-0.16,0.16-0.1,0.31-0.07,0.37c0.07,0.13,0.19,0.19,0.36,0.21c-0.07,0.07-0.13,0.11-0.22,0.15
		c-0.17,0.12-0.37,0.27-0.54,0.48C358.71,281.26,359.67,279.78,361.38,278.96z M362.09,280.19c0.06-0.2,0.15-0.38,0.21-0.56
		c0.14-0.35,0.28-0.66,0.44-0.97l0.1,0.07c0.3,0.19,0.53-0.11,0.67-0.28c0.04-0.04,0.12-0.14,0.19-0.17
		c0.13,0.3,0.08,0.62,0.01,0.87c-0.22,0.62-0.8,1.21-1.36,1.38l-0.09,0.03l-0.03,0.1c-0.06,0.12,0,0.29,0.16,0.36
		c0.09,0.06,0.23,0.08,0.39,0.06c-0.1,0.06-0.22,0.1-0.35,0.17c-0.3,0.14-0.62,0.29-0.88,0.54
		C361.64,281.28,361.87,280.71,362.09,280.19z M367.45,275.29c0.01,0.03,0,0.04,0,0.04c-0.03,0.09-0.28,0.17-0.47,0.23
		c-0.12,0.04-0.22,0.06-0.31,0.11C366.9,275.52,367.17,275.39,367.45,275.29z M365.95,276.74c0.42-0.1,0.68-0.04,0.76,0.17
		c0.22,0.57-0.51,2.03-1.43,2.51l-0.45,0.25c0.05-1,0.29-2.11,0.85-2.98l-0.04,0.11L365.95,276.74z M365.4,279.76
		c0.07,0,0.15-0.03,0.23-0.05c0.08,0,0.17,0,0.25-0.03c-0.18,0.18-0.37,0.36-0.55,0.56c-0.18,0.12-0.34,0.27-0.46,0.44
		c-0.04-0.24-0.05-0.5-0.05-0.8L365.4,279.76z M368.05,278.25c0.07-0.29,0.14-0.56,0.2-0.88c0.04-0.26,0.08-0.51,0.12-0.75
		c0.17-1.27,0.32-2.36,1.8-3.19c0.09,0.1,0.09,0.14,0.09,0.14c0,0.05-0.14,0.16-0.22,0.24c-0.21,0.14-0.48,0.34-0.64,0.7l-0.04,0.1
		l0.08,0.08c0.69,0.78,0.46,1.73-0.71,3.04l0.05-0.15c0.03-0.07,0.15-0.19,0.26-0.3c0.18-0.19,0.37-0.36,0.36-0.59
		c0-0.06-0.02-0.14-0.14-0.26l-0.05-0.05l-0.07,0.01c-0.31,0.02-0.7,0.35-0.8,0.68c-0.07,0.24,0,0.44,0.16,0.59l0.17,0.14
		c-0.08,0.08-0.14,0.16-0.23,0.25l-0.05,0.06v0.06c-0.01,0.19,0.07,0.3,0.13,0.34c0.21,0.12,0.46,0,0.78-0.15
		c0.05-0.02,0.14-0.05,0.2-0.08c-0.15,0.12-0.38,0.27-0.6,0.38c-0.38,0.21-0.82,0.44-1.07,0.75
		C367.84,279.08,367.94,278.67,368.05,278.25z M434.28,279.62l-0.07-0.02L434.28,279.62C434.28,279.62,434.28,279.62,434.28,279.62z
		 M432.69,279.45c-0.32-0.06-0.66-0.18-0.96-0.23l-0.53-0.08c-2.74-0.46-5.85-1-8.83-1.84c-2.04-0.57-4.12-1.29-6.16-1.96
		c-2.09-0.7-4.27-1.46-6.42-2.03c-1.82-0.52-3.6-1.16-5.32-1.79c-2.47-0.88-4.78-1.73-7.27-2.23c-4.45-0.91-8.24-1.04-12.26-0.44
		l-0.1,0.02l-0.02,0.1c-0.15,0.46-0.42,0.57-0.78,0.61c0.08-0.06,0.17-0.13,0.23-0.23l0.16-0.27h-0.32
		c-1.08,0.02-2.13,0.34-3.14,0.7c-1.07,0.34-2.16,0.69-3.27,0.65h-0.08l-0.05,0.04c-0.16,0.15-0.28,0.28-0.35,0.4
		c0.1-0.23,0.28-0.44,0.51-0.61l0.21-0.14l0.03,0.02l0.06-0.02c4.51-0.98,9.63-2.09,14.86-1.82c4.46,0.28,9.27,1.92,13.89,3.52
		c1.82,0.61,3.69,1.25,5.5,1.81l0.05-0.19l21.83,6.15C434.03,279.87,433.31,279.64,432.69,279.45z M347.57,263.47
		c-0.39,0.1-0.85,0.12-1.32,0.1C346.6,263.39,347.07,263.33,347.57,263.47z M362.44,270.96c0.07,0,0.16,0.01,0.23,0.02
		c0.03,0.25-0.14,0.37-0.37,0.56c-0.16,0.11-0.32,0.23-0.35,0.42c-0.01,0.13,0.03,0.23,0.12,0.34l0.02,0.04l0.05,0.01
		c0.29,0.12,0.61,0.05,0.92,0.01c0.49-0.06,0.81-0.1,1.01,0.17c-1.5-0.08-3.55-0.13-4.54,0.7l-0.32,0.29
		C360.04,272.16,361.32,270.96,362.44,270.96z M359.7,273.56c0.19-0.11,0.52-0.13,0.81-0.13c0.33,0,0.66,0.04,0.85,0.15
		c-0.3,0.06-0.64,0.07-1.01,0.08c-0.38,0.01-0.78,0.02-1.13,0.09L359.7,273.56z M361.57,277.17c-0.44,0.37-1.49,0.08-2.5-0.19
		c-0.46-0.13-0.94-0.28-1.39-0.36c0.36-0.11,0.71-0.21,1.06-0.34c1.04-0.35,2-0.69,3.05-0.42
		C361.88,276.5,361.81,276.96,361.57,277.17z M358.39,278.25c-0.25,0.22-0.28,0.54-0.3,0.8c-0.04,0.4-0.06,0.62-0.57,0.57
		l-0.28-0.01l0.09,0.24c0.06,0.19,0.17,0.32,0.31,0.36c0.04,0.02,0.08,0.02,0.1,0.02c-0.48,0.06-0.99,0.04-1.51,0
		c-0.31-0.04-0.63-0.06-0.95-0.06l-0.04,0c0.4-0.96,1.17-1.74,1.96-1.99C357.63,278.07,358.02,278.09,358.39,278.25z M373.88,248.32
		c1.29,0.67,2.42,1.92,2.17,3.23c-0.42-0.14-0.63-0.2-0.78-0.08c-0.12,0.08-0.16,0.24-0.15,0.46c-0.73-0.53-0.88-1.46-1.03-2.41
		c-0.07-0.41-0.13-0.82-0.26-1.22L373.88,248.32z M373.38,249.8c0.03,0.15,0.03,0.31-0.02,0.46c-0.16-0.35-0.41-0.89-0.97-0.68
		l-0.07,0.04l-0.02,0.09c-0.06,0.21,0.11,0.37,0.23,0.5c0.03,0.02,0.05,0.02,0.08,0.06c-0.2-0.06-0.42-0.27-0.64-0.48
		c-0.32-0.28-0.64-0.57-0.98-0.57v0h-0.17l-0.14,0.07l0.01,0.12c0,0.04,0,0.07,0.01,0.1c-0.79-1.01-1.45-2.29-1.38-2.74l0.1,0.06
		c0.31,0.27,0.77,0.53,1.33,0.82C371.83,248.26,373.18,248.98,373.38,249.8z M371.72,256.28c0.29,0.02,0.6,0.04,0.86,0.04
		c-0.03,0-0.07,0.04-0.12,0.06c-0.47,0.28-1,0.56-0.98,1.09v0.21l0.22-0.04c0.9-0.21,1.77-0.61,2.61-1.04
		c1.68-0.8,3.27-1.61,5.08-0.78c-0.18,0.04-0.36,0.06-0.57,0.08c-1.07,0.14-2.42,0.32-2.52,1.91v0.1l0.07,0.04
		c3,2.64,5.78,2.96,8.47,3.24c1.49,0.18,3.02,0.33,4.57,0.9l0.14-0.31c-1.29-0.77-2.81-1.17-4.31-1.55
		c-1.6-0.43-3.13-0.81-4.31-1.64c2.72,0.06,5.65,1.6,8.52,3.1c0.53,0.28,1.1,0.57,1.67,0.87c-1.83-0.15-3.73-0.51-5.74-0.9
		c-2.28-0.41-4.61-0.85-6.88-1c-0.26-0.02-0.57-0.04-0.87-0.04c-0.48,0-0.98,0.03-1.51,0.05c-2.05,0.06-4.36,0.14-5.76-0.75
		c-0.61-0.38-1.14-0.93-1.67-1.48c-0.5-0.48-1.01-1.01-1.56-1.37C368.44,256.16,370.25,256.24,371.72,256.28z M367.99,261.47
		c-0.23,0.05-0.4,0.26-0.55,0.4c-0.1,0.13-0.23,0.3-0.32,0.32c-0.38-0.38-0.81-0.55-1.32-0.76c-0.34-0.12-0.73-0.28-1.16-0.48
		l-0.1-0.08l-0.1,0.1c-0.1,0.1-0.21,0.23-0.2,0.4c0.04,0.15,0.17,0.22,0.27,0.27c0.1,0.06,0.15,0.09,0.14,0.15
		c-0.04-0.02-0.09-0.04-0.13-0.09c-0.15-0.09-0.42-0.27-0.65-0.02l-0.06,0.05c-0.29-0.45-0.51-0.96-0.75-1.44
		c-0.03-0.08-0.07-0.15-0.1-0.22l0.12,0.05c0.08,0.03,0.21,0.16,0.3,0.25c0.18,0.18,0.37,0.37,0.59,0.37c0.07,0,0.18-0.04,0.27-0.12
		l0.05-0.07l-0.01-0.07c-0.01-0.35-0.47-0.83-0.88-0.83c-0.16,0-0.3,0.06-0.4,0.19l-0.09,0.12c-0.35-0.75-0.72-1.43-1.35-1.79
		c0.03-0.05,0.07-0.09,0.11-0.11l0.11,0.11c0.88,0.84,1.98,1.07,3.06,1.28C366.22,259.72,367.42,259.97,367.99,261.47z
		 M340.61,266.6c0.31-0.06,0.59-0.08,0.86,0c-0.1,0.07-0.23,0.13-0.35,0.19L340.61,266.6z"/>
	<path fill="#2D3842" d="M355.72,254.28c-1.65-0.02-4.67-0.07-5.34,1.35L350.2,256l0.41-0.14c1.6-0.56,3.34-1.1,5.1-1.22V254.28z"/>
	<path fill="#2D3842" d="M346.81,259.62c-0.8,0-1.51,0.09-2.14,0.3l-0.23,0.04l0.13,0.22c0.25,0.36,0.59,0.54,1.05,0.54
		c0.36,0,0.73-0.1,1.1-0.21c0.34-0.09,0.68-0.17,0.99-0.19c0.56-0.02,1.2,0.06,1.81,0.12c0.49,0.08,0.98,0.15,1.44,0.15
		c0.5,0,0.91-0.08,1.2-0.27l0.63-0.36l-0.72,0.02c-0.93,0.04-1.9-0.06-2.82-0.18C348.45,259.71,347.62,259.62,346.81,259.62z"/>
	<path fill="#2D3842" d="M335.32,267.94c0.77-0.19,1.48-0.35,2.11-0.54l-0.05-0.17c0,0,0,0,0,0c0,0,0,0,0,0l-0.04-0.17
		c-0.78,0.21-1.69,0.29-2.65,0.4c-2.11,0.23-4.28,0.46-5.33,1.96l-0.37,0.54l0.6-0.27C331.35,268.92,333.44,268.39,335.32,267.94z"
		/>
	<path fill="#2D3842" d="M324.28,277.58c0.56,0,1.02-0.48,1.41-0.91c0.22-0.21,0.43-0.43,0.63-0.57c0.7-0.42,1.48-0.65,2.26-0.91
		c0.98-0.29,1.89-0.57,2.45-1.18l0.59-0.59l-0.77,0.29c-0.49,0.19-1,0.37-1.49,0.55c-0.76,0.23-1.55,0.48-2.33,0.9
		c-0.01-0.14-0.07-0.23-0.1-0.27l-0.06-0.11l-0.1,0.02c-1.11,0.13-2.67,1.21-3.26,2.26l-0.08,0.13l0.13,0.1
		C323.78,277.48,324.05,277.58,324.28,277.58z"/>
	<path fill="#2D3842" d="M326.6,281.29c-1.66,0.88-3.55,1.95-3.78,3.65l-0.11,0.65l0.4-0.5c0.76-0.98,1.8-1.65,2.69-2.22
		c0.71-0.45,1.37-0.87,1.81-1.38l0.21-0.24c0.04,0,0.09-0.02,0.12-0.07c0.43-0.21,0.91-0.44,0.88-0.97v-0.36l-0.29,0.21
		C328.01,280.49,327.32,280.87,326.6,281.29z"/>
	<path fill="#2D3842" d="M341.54,280.61c-1.31,1.18-2.76,2.52-2.41,3.75l0.1,0.38l0.22-0.34c0.36-0.58,1.04-1.41,1.69-2.21
		c0.81-1.02,1.6-1.94,1.91-2.59l0.6-1.23l-0.9,1.04C342.44,279.78,342.01,280.19,341.54,280.61z"/>
</g>
<path fill="#2D3842" d="M754.09,513.44H11.23V177.17h742.87V513.44z M20.05,504.65h725.21V185.99H20.05V504.65z"/>
<path fill="#2D3842" d="M502.37,513.19c-31.59,36.77-73.6,59.2-119.71,59.2c-46.11,0-88.12-22.43-119.71-59.2h-84.26
	c45.31,73.22,119.4,121.03,202.96,121.03c83.57,0,157.67-47.8,202.98-121.03H502.37z M233.46,533.17l-3.51,3.14l-3.59-6.31
	l-0.08,0.06l-1.29,7.53l-4.36-1.46l3.67-6.65l-0.05-0.05l-7.06,2.8l-0.88-4.5l7.64-0.3l0.08-0.08l-5.91-4.49l3.49-3.13l3.89,6.38
	l0.11-0.11l1.03-7.47l4.42,1.41l-3.61,6.71l0.07,0.06l7.03-2.84l0.77,4.52l-7.5,0.21l-0.04,0.09L233.46,533.17z M257.57,555.04
	l-3.06,3.58l-4.4-5.78l-0.07,0.07l-0.28,7.63l-4.51-0.86l2.75-7.08l-0.06-0.04l-6.62,3.72l-1.47-4.34l7.53-1.31l0.07-0.09
	l-6.46-3.66l3.04-3.57l4.7,5.8l0.1-0.12l0.02-7.54l4.57,0.81l-2.69,7.14l0.07,0.05l6.59-3.75l1.36,4.37l-7.4,1.21l-0.02,0.09
	L257.57,555.04z M283.82,573l-2.51,3.97l-5.19-5.03l-0.06,0.05l0.85,7.59l-4.6-0.2l1.7-7.39l-0.1-0.05l-5.99,4.67l-2.1-4.06
	l7.25-2.44l0.05-0.08l-6.91-2.66l2.5-3.97l5.47,5.02l0.09-0.13l-1.08-7.46l4.63,0.12l-1.61,7.44l0.09,0.06l5.95-4.68l2.02,4.12
	l-7.15,2.29l-0.02,0.08L283.82,573z M310.76,591.03l-5.92-4.16l-0.02,0.07l2,7.37l-4.59,0.53l0.53-7.58l-0.08-0.02l-5.21,5.52
	l-2.7-3.67l6.79-3.55l0.04-0.08l-7.24-1.54l1.87-4.32l6.18,4.07l0.06-0.12l-2.23-7.21l4.61-0.62l-0.44,7.61l0.08,0.04l5.17-5.57
	l2.62,3.76l-6.71,3.38v0.11l7.03,1.64L310.76,591.03z M342.18,600.16l-6.52-3.17l-0.02,0.12l3.18,6.92l-4.42,1.28l-0.72-7.54
	l-0.1-0.02l-4.23,6.33l-3.26-3.21l6.12-4.62l0.02-0.08l-7.39-0.33l1.13-4.58l6.77,3.04l0.03-0.14l-3.35-6.75l4.43-1.35l0.79,7.57
	l0.09,0.01l4.19-6.33l3.22,3.26l-6.07,4.44v0.1l7.24,0.47L342.18,600.16z M374.72,603.94l-6.94-2.04v0.12l4.26,6.32l-4.16,1.98
	l-1.94-7.32l-0.08-0.02l-3.14,6.95l-3.75-2.61l5.28-5.55l0.01-0.12l-7.34,0.91l0.35-4.69l7.18,1.83v-0.13l-4.42-6.08l4.16-2.1
	l2.04,7.35h0.1l3.08-6.94l3.7,2.68l-5.26,5.39l0.02,0.12l7.21-0.74L374.72,603.94z M397.74,601.63l5.28,5.55l-3.75,2.61l-3.14-6.95
	l-0.08,0.02l-1.95,7.32l-4.16-1.98l4.27-6.32v-0.12l-6.94,2.04l-0.36-4.69l7.21,0.74l0.02-0.12l-5.25-5.39l3.7-2.68l3.08,6.94h0.1
	l2.04-7.35l4.16,2.1l-4.42,6.08v0.13l7.18-1.83l0.35,4.69l-7.35-0.91L397.74,601.63z M429.78,596.12l6.12,4.62l-3.26,3.21
	l-4.23-6.33l-0.1,0.02l-0.72,7.54l-4.42-1.28l3.18-6.92l-0.02-0.12l-6.52,3.17l-1.13-4.57l7.24-0.47v-0.1l-6.07-4.44l3.22-3.26
	l4.19,6.33l0.09-0.01l0.79-7.57l4.43,1.35l-3.35,6.75l0.03,0.14l6.77-3.04l1.13,4.58l-7.39,0.33L429.78,596.12z M460.43,585.42
	l6.79,3.54l-2.7,3.67l-5.21-5.53l-0.08,0.02l0.53,7.58l-4.59-0.53l2-7.37l-0.02-0.07l-5.92,4.16l-1.84-4.33l7.03-1.63v-0.11
	l-6.71-3.38l2.62-3.76l5.17,5.57l0.08-0.04l-0.44-7.61l4.61,0.62l-2.23,7.21l0.06,0.12l6.18-4.08l1.87,4.32l-7.24,1.54
	L460.43,585.42z M494.06,576.48l-5.99-4.67l-0.1,0.05l1.7,7.39l-4.6,0.2l0.85-7.59l-0.06-0.05l-5.19,5.03l-2.51-3.97l6.71-2.75
	l-0.02-0.08l-7.15-2.29l2.02-4.12l5.95,4.68l0.09-0.06l-1.61-7.44l4.63-0.12l-1.08,7.46l0.09,0.13l5.47-5.02l2.5,3.97l-6.91,2.66
	l0.05,0.08l7.25,2.44L494.06,576.48z M520.68,556.14l-6.62-3.72l-0.06,0.04l2.75,7.08l-4.51,0.86l-0.28-7.63l-0.07-0.07l-4.4,5.78
	l-3.06-3.58l6.23-3.7l-0.02-0.09l-7.4-1.21l1.37-4.37l6.59,3.75l0.08-0.05l-2.69-7.14l4.57-0.81l0.02,7.54l0.1,0.12l4.7-5.8
	l3.04,3.57l-6.46,3.66l0.07,0.09l7.53,1.31L520.68,556.14z M544.25,531.9l-7.06-2.8l-0.05,0.05l3.67,6.65l-4.36,1.46l-1.29-7.53
	l-0.08-0.06l-3.59,6.31l-3.51-3.14l5.69-4.49l-0.04-0.09l-7.5-0.21l0.77-4.52l7.03,2.84l0.07-0.05l-3.61-6.71l4.42-1.41l1.03,7.47
	l0.11,0.11l3.89-6.38l3.49,3.13l-5.91,4.49l0.08,0.08l7.64,0.3L544.25,531.9z"/>
</svg>
