<?xml version="1.0" encoding="utf-8"?>
<!-- Generator: Adobe Illustrator 14.0.0, SVG Export Plug-In . SVG Version: 6.00 Build 43363)  -->
<!DOCTYPE svg PUBLIC "-//W3C//DTD SVG 1.1//EN" "http://www.w3.org/Graphics/SVG/1.1/DTD/svg11.dtd">
<svg version="1.1" id="Layer_1" xmlns="http://www.w3.org/2000/svg" xmlns:xlink="http://www.w3.org/1999/xlink" x="0px" y="0px"
	 width="500px" height="500px" viewBox="0 0 500 500" enable-background="new 0 0 500 500" xml:space="preserve">
<g>
	<path fill="#D7BEA9" d="M470.5,2.14h-441C14.39,2.14,2.14,14.39,2.14,29.5v441c0,15.11,12.25,27.36,27.36,27.36h237.42V305.89
		h-64.6v-74.82h64.6V175.9c0-64.03,39.11-98.89,96.22-98.89c27.36,0,50.88,2.04,57.73,2.95v66.91l-39.61,0.02
		c-31.06,0-37.08,14.76-37.08,36.42v47.76h74.08l-9.65,74.82h-64.44v191.97H470.5c15.11,0,27.36-12.25,27.36-27.36v-441
		C497.86,14.39,485.61,2.14,470.5,2.14"/>
</g>
</svg>
